<svg width="260" height="150" viewBox="0 0 260 150" fill="none" xmlns="http://www.w3.org/2000/svg">
<rect x="2.5" y="2.5" width="255" height="145" rx="7.5" fill="#EDF2F4" fill-opacity="0.3" stroke="#EDF2F4" stroke-width="5"/>
<path d="M144 73H132V61C132 60.4696 131.789 59.9609 131.414 59.5858C131.039 59.2107 130.53 59 130 59C129.47 59 128.961 59.2107 128.586 59.5858C128.211 59.9609 128 60.4696 128 61V73H116C115.47 73 114.961 73.2107 114.586 73.5858C114.211 73.9609 114 74.4696 114 75C114 75.5304 114.211 76.0391 114.586 76.4142C114.961 76.7893 115.47 77 116 77H128V89C128 89.5304 128.211 90.0391 128.586 90.4142C128.961 90.7893 129.47 91 130 91C130.53 91 131.039 90.7893 131.414 90.4142C131.789 90.0391 132 89.5304 132 89V77H144C144.53 77 145.039 76.7893 145.414 76.4142C145.789 76.0391 146 75.5304 146 75C146 74.4696 145.789 73.9609 145.414 73.5858C145.039 73.2107 144.53 73 144 73Z" fill="#EDF2F4"/>
</svg>
