<svg width="812" height="283" viewBox="0 0 812 283" fill="none" xmlns="http://www.w3.org/2000/svg">
<path d="M428.834 91.3334C427.95 91.3334 427.102 91.6845 426.477 92.3097C425.852 92.9348 425.5 93.7826 425.5 94.6667V95.9334L420.567 91C418.825 89.2718 416.471 88.3021 414.017 88.3021C411.563 88.3021 409.209 89.2718 407.467 91L405.134 93.3334L396.867 85.0667C395.101 83.3854 392.756 82.4476 390.317 82.4476C387.878 82.4476 385.533 83.3854 383.767 85.0667L378.834 90V71.3334C378.834 70.4493 379.185 69.6015 379.81 68.9763C380.435 68.3512 381.283 68 382.167 68H405.5C406.384 68 407.232 67.6488 407.857 67.0237C408.482 66.3986 408.834 65.5507 408.834 64.6667C408.834 63.7826 408.482 62.9348 407.857 62.3097C407.232 61.6845 406.384 61.3334 405.5 61.3334H382.167C379.515 61.3334 376.971 62.3869 375.096 64.2623C373.221 66.1377 372.167 68.6812 372.167 71.3334V111.333C372.167 113.986 373.221 116.529 375.096 118.404C376.971 120.28 379.515 121.333 382.167 121.333H422.167C424.819 121.333 427.363 120.28 429.238 118.404C431.113 116.529 432.167 113.986 432.167 111.333V94.6667C432.167 93.7826 431.816 92.9348 431.191 92.3097C430.566 91.6845 429.718 91.3334 428.834 91.3334ZM382.167 114.667C381.283 114.667 380.435 114.316 379.81 113.69C379.185 113.065 378.834 112.217 378.834 111.333V99.4334L388.5 89.7667C388.99 89.3 389.641 89.0397 390.317 89.0397C390.993 89.0397 391.644 89.3 392.134 89.7667L402.7 100.333L417.034 114.667H382.167ZM425.5 111.333C425.496 111.971 425.285 112.591 424.9 113.1L409.867 98L412.2 95.6667C412.439 95.4228 412.725 95.229 413.039 95.0967C413.354 94.9645 413.692 94.8963 414.034 94.8963C414.375 94.8963 414.713 94.9645 415.028 95.0967C415.343 95.229 415.628 95.4228 415.867 95.6667L425.5 105.367V111.333ZM441.2 62.3L431.2 52.3C430.883 51.9966 430.509 51.7587 430.1 51.6C429.289 51.2666 428.379 51.2666 427.567 51.6C427.158 51.7587 426.784 51.9966 426.467 52.3L416.467 62.3C416.156 62.6108 415.91 62.9798 415.741 63.3859C415.573 63.7919 415.487 64.2272 415.487 64.6667C415.487 65.5544 415.839 66.4057 416.467 67.0334C417.095 67.661 417.946 68.0137 418.834 68.0137C419.721 68.0137 420.573 67.661 421.2 67.0334L425.5 62.7V81.3334C425.5 82.2174 425.852 83.0653 426.477 83.6904C427.102 84.3155 427.95 84.6667 428.834 84.6667C429.718 84.6667 430.566 84.3155 431.191 83.6904C431.816 83.0653 432.167 82.2174 432.167 81.3334V62.7L436.467 67.0334C436.777 67.3458 437.146 67.5938 437.552 67.763C437.958 67.9322 438.394 68.0193 438.834 68.0193C439.274 68.0193 439.709 67.9322 440.116 67.763C440.522 67.5938 440.89 67.3458 441.2 67.0334C441.513 66.7235 441.761 66.3548 441.93 65.9486C442.099 65.5424 442.186 65.1067 442.186 64.6667C442.186 64.2266 442.099 63.791 441.93 63.3848C441.761 62.9786 441.513 62.6099 441.2 62.3Z" fill="#EDF2F4"/>
<circle cx="405.5" cy="88" r="85" stroke="#EDF2F4" stroke-width="5" stroke-linecap="round" stroke-dasharray="15 15"/>
<path d="M323.047 205.24C322.727 204.653 322.287 204.207 321.727 203.9C321.167 203.593 320.514 203.44 319.767 203.44C318.941 203.44 318.207 203.627 317.567 204C316.927 204.373 316.427 204.907 316.067 205.6C315.707 206.293 315.527 207.093 315.527 208C315.527 208.933 315.707 209.747 316.067 210.44C316.441 211.133 316.954 211.667 317.607 212.04C318.261 212.413 319.021 212.6 319.887 212.6C320.954 212.6 321.827 212.32 322.507 211.76C323.187 211.187 323.634 210.393 323.847 209.38H319.047V207.24H326.607V209.68C326.421 210.653 326.021 211.553 325.407 212.38C324.794 213.207 324.001 213.873 323.027 214.38C322.067 214.873 320.987 215.12 319.787 215.12C318.441 215.12 317.221 214.82 316.127 214.22C315.047 213.607 314.194 212.76 313.567 211.68C312.954 210.6 312.647 209.373 312.647 208C312.647 206.627 312.954 205.4 313.567 204.32C314.194 203.227 315.047 202.38 316.127 201.78C317.221 201.167 318.434 200.86 319.767 200.86C321.341 200.86 322.707 201.247 323.867 202.02C325.027 202.78 325.827 203.853 326.267 205.24H323.047ZM331.479 200.2V215H328.679V200.2H331.479ZM335.665 202.6C335.172 202.6 334.759 202.447 334.425 202.14C334.105 201.82 333.945 201.427 333.945 200.96C333.945 200.493 334.105 200.107 334.425 199.8C334.759 199.48 335.172 199.32 335.665 199.32C336.159 199.32 336.565 199.48 336.885 199.8C337.219 200.107 337.385 200.493 337.385 200.96C337.385 201.427 337.219 201.82 336.885 202.14C336.565 202.447 336.159 202.6 335.665 202.6ZM337.045 203.92V215H334.245V203.92H337.045ZM344.052 215.18C343.145 215.18 342.332 215.02 341.612 214.7C340.892 214.367 340.318 213.92 339.892 213.36C339.478 212.8 339.252 212.18 339.212 211.5H342.032C342.085 211.927 342.292 212.28 342.652 212.56C343.025 212.84 343.485 212.98 344.032 212.98C344.565 212.98 344.978 212.873 345.272 212.66C345.578 212.447 345.732 212.173 345.732 211.84C345.732 211.48 345.545 211.213 345.172 211.04C344.812 210.853 344.232 210.653 343.432 210.44C342.605 210.24 341.925 210.033 341.392 209.82C340.872 209.607 340.418 209.28 340.032 208.84C339.658 208.4 339.472 207.807 339.472 207.06C339.472 206.447 339.645 205.887 339.992 205.38C340.352 204.873 340.858 204.473 341.512 204.18C342.178 203.887 342.958 203.74 343.852 203.74C345.172 203.74 346.225 204.073 347.012 204.74C347.798 205.393 348.232 206.28 348.312 207.4H345.632C345.592 206.96 345.405 206.613 345.072 206.36C344.752 206.093 344.318 205.96 343.772 205.96C343.265 205.96 342.872 206.053 342.592 206.24C342.325 206.427 342.192 206.687 342.192 207.02C342.192 207.393 342.378 207.68 342.752 207.88C343.125 208.067 343.705 208.26 344.492 208.46C345.292 208.66 345.952 208.867 346.472 209.08C346.992 209.293 347.438 209.627 347.812 210.08C348.198 210.52 348.398 211.107 348.412 211.84C348.412 212.48 348.232 213.053 347.872 213.56C347.525 214.067 347.018 214.467 346.352 214.76C345.698 215.04 344.932 215.18 344.052 215.18ZM354.95 215.18C354.043 215.18 353.23 215.02 352.51 214.7C351.79 214.367 351.217 213.92 350.79 213.36C350.377 212.8 350.15 212.18 350.11 211.5H352.93C352.983 211.927 353.19 212.28 353.55 212.56C353.923 212.84 354.383 212.98 354.93 212.98C355.463 212.98 355.877 212.873 356.17 212.66C356.477 212.447 356.63 212.173 356.63 211.84C356.63 211.48 356.443 211.213 356.07 211.04C355.71 210.853 355.13 210.653 354.33 210.44C353.503 210.24 352.823 210.033 352.29 209.82C351.77 209.607 351.317 209.28 350.93 208.84C350.557 208.4 350.37 207.807 350.37 207.06C350.37 206.447 350.543 205.887 350.89 205.38C351.25 204.873 351.757 204.473 352.41 204.18C353.077 203.887 353.857 203.74 354.75 203.74C356.07 203.74 357.123 204.073 357.91 204.74C358.697 205.393 359.13 206.28 359.21 207.4H356.53C356.49 206.96 356.303 206.613 355.97 206.36C355.65 206.093 355.217 205.96 354.67 205.96C354.163 205.96 353.77 206.053 353.49 206.24C353.223 206.427 353.09 206.687 353.09 207.02C353.09 207.393 353.277 207.68 353.65 207.88C354.023 208.067 354.603 208.26 355.39 208.46C356.19 208.66 356.85 208.867 357.37 209.08C357.89 209.293 358.337 209.627 358.71 210.08C359.097 210.52 359.297 211.107 359.31 211.84C359.31 212.48 359.13 213.053 358.77 213.56C358.423 214.067 357.917 214.467 357.25 214.76C356.597 215.04 355.83 215.18 354.95 215.18ZM371.909 209.22C371.909 209.62 371.882 209.98 371.829 210.3H363.729C363.795 211.1 364.075 211.727 364.569 212.18C365.062 212.633 365.669 212.86 366.389 212.86C367.429 212.86 368.169 212.413 368.609 211.52H371.629C371.309 212.587 370.695 213.467 369.789 214.16C368.882 214.84 367.769 215.18 366.449 215.18C365.382 215.18 364.422 214.947 363.569 214.48C362.729 214 362.069 213.327 361.589 212.46C361.122 211.593 360.889 210.593 360.889 209.46C360.889 208.313 361.122 207.307 361.589 206.44C362.055 205.573 362.709 204.907 363.549 204.44C364.389 203.973 365.355 203.74 366.449 203.74C367.502 203.74 368.442 203.967 369.269 204.42C370.109 204.873 370.755 205.52 371.209 206.36C371.675 207.187 371.909 208.14 371.909 209.22ZM369.009 208.42C368.995 207.7 368.735 207.127 368.229 206.7C367.722 206.26 367.102 206.04 366.369 206.04C365.675 206.04 365.089 206.253 364.609 206.68C364.142 207.093 363.855 207.673 363.749 208.42H369.009ZM376.512 212.7H381.452V215H373.332V212.74L378.172 206.22H373.352V203.92H381.392V206.18L376.512 212.7ZM387.666 209.42C387.666 208.3 387.886 207.307 388.326 206.44C388.779 205.573 389.393 204.907 390.166 204.44C390.939 203.973 391.799 203.74 392.746 203.74C393.466 203.74 394.153 203.9 394.806 204.22C395.459 204.527 395.979 204.94 396.366 205.46V200.2H399.206V215H396.366V213.36C396.019 213.907 395.533 214.347 394.906 214.68C394.279 215.013 393.553 215.18 392.726 215.18C391.793 215.18 390.939 214.94 390.166 214.46C389.393 213.98 388.779 213.307 388.326 212.44C387.886 211.56 387.666 210.553 387.666 209.42ZM396.386 209.46C396.386 208.78 396.253 208.2 395.986 207.72C395.719 207.227 395.359 206.853 394.906 206.6C394.453 206.333 393.966 206.2 393.446 206.2C392.926 206.2 392.446 206.327 392.006 206.58C391.566 206.833 391.206 207.207 390.926 207.7C390.659 208.18 390.526 208.753 390.526 209.42C390.526 210.087 390.659 210.673 390.926 211.18C391.206 211.673 391.566 212.053 392.006 212.32C392.459 212.587 392.939 212.72 393.446 212.72C393.966 212.72 394.453 212.593 394.906 212.34C395.359 212.073 395.719 211.7 395.986 211.22C396.253 210.727 396.386 210.14 396.386 209.46ZM412.241 209.22C412.241 209.62 412.214 209.98 412.161 210.3H404.061C404.127 211.1 404.407 211.727 404.901 212.18C405.394 212.633 406.001 212.86 406.721 212.86C407.761 212.86 408.501 212.413 408.941 211.52H411.961C411.641 212.587 411.027 213.467 410.121 214.16C409.214 214.84 408.101 215.18 406.781 215.18C405.714 215.18 404.754 214.947 403.901 214.48C403.061 214 402.401 213.327 401.921 212.46C401.454 211.593 401.221 210.593 401.221 209.46C401.221 208.313 401.454 207.307 401.921 206.44C402.387 205.573 403.041 204.907 403.881 204.44C404.721 203.973 405.687 203.74 406.781 203.74C407.834 203.74 408.774 203.967 409.601 204.42C410.441 204.873 411.087 205.52 411.541 206.36C412.007 207.187 412.241 208.14 412.241 209.22ZM409.341 208.42C409.327 207.7 409.067 207.127 408.561 206.7C408.054 206.26 407.434 206.04 406.701 206.04C406.007 206.04 405.421 206.253 404.941 206.68C404.474 207.093 404.187 207.673 404.081 208.42H409.341ZM408.921 201L404.321 203.1V201.1L408.921 198.72V201ZM417.084 205.52C417.444 205.013 417.938 204.593 418.564 204.26C419.204 203.913 419.931 203.74 420.744 203.74C421.691 203.74 422.544 203.973 423.304 204.44C424.078 204.907 424.684 205.573 425.124 206.44C425.578 207.293 425.804 208.287 425.804 209.42C425.804 210.553 425.578 211.56 425.124 212.44C424.684 213.307 424.078 213.98 423.304 214.46C422.544 214.94 421.691 215.18 420.744 215.18C419.931 215.18 419.211 215.013 418.584 214.68C417.971 214.347 417.471 213.927 417.084 213.42V220.28H414.284V203.92H417.084V205.52ZM422.944 209.42C422.944 208.753 422.804 208.18 422.524 207.7C422.258 207.207 421.898 206.833 421.444 206.58C421.004 206.327 420.524 206.2 420.004 206.2C419.498 206.2 419.018 206.333 418.564 206.6C418.124 206.853 417.764 207.227 417.484 207.72C417.218 208.213 417.084 208.793 417.084 209.46C417.084 210.127 417.218 210.707 417.484 211.2C417.764 211.693 418.124 212.073 418.564 212.34C419.018 212.593 419.498 212.72 420.004 212.72C420.524 212.72 421.004 212.587 421.444 212.32C421.898 212.053 422.258 211.673 422.524 211.18C422.804 210.687 422.944 210.1 422.944 209.42ZM432.759 215.18C431.692 215.18 430.732 214.947 429.879 214.48C429.026 214 428.352 213.327 427.859 212.46C427.379 211.593 427.139 210.593 427.139 209.46C427.139 208.327 427.386 207.327 427.879 206.46C428.386 205.593 429.072 204.927 429.939 204.46C430.806 203.98 431.772 203.74 432.839 203.74C433.906 203.74 434.872 203.98 435.739 204.46C436.606 204.927 437.286 205.593 437.779 206.46C438.286 207.327 438.539 208.327 438.539 209.46C438.539 210.593 438.279 211.593 437.759 212.46C437.252 213.327 436.559 214 435.679 214.48C434.812 214.947 433.839 215.18 432.759 215.18ZM432.759 212.74C433.266 212.74 433.739 212.62 434.179 212.38C434.632 212.127 434.992 211.753 435.259 211.26C435.526 210.767 435.659 210.167 435.659 209.46C435.659 208.407 435.379 207.6 434.819 207.04C434.272 206.467 433.599 206.18 432.799 206.18C431.999 206.18 431.326 206.467 430.779 207.04C430.246 207.6 429.979 208.407 429.979 209.46C429.979 210.513 430.239 211.327 430.759 211.9C431.292 212.46 431.959 212.74 432.759 212.74ZM444.833 215.18C443.926 215.18 443.113 215.02 442.393 214.7C441.673 214.367 441.1 213.92 440.673 213.36C440.26 212.8 440.033 212.18 439.993 211.5H442.813C442.866 211.927 443.073 212.28 443.433 212.56C443.806 212.84 444.266 212.98 444.813 212.98C445.346 212.98 445.76 212.873 446.053 212.66C446.36 212.447 446.513 212.173 446.513 211.84C446.513 211.48 446.326 211.213 445.953 211.04C445.593 210.853 445.013 210.653 444.213 210.44C443.386 210.24 442.706 210.033 442.173 209.82C441.653 209.607 441.2 209.28 440.813 208.84C440.44 208.4 440.253 207.807 440.253 207.06C440.253 206.447 440.426 205.887 440.773 205.38C441.133 204.873 441.64 204.473 442.293 204.18C442.96 203.887 443.74 203.74 444.633 203.74C445.953 203.74 447.006 204.073 447.793 204.74C448.58 205.393 449.013 206.28 449.093 207.4H446.413C446.373 206.96 446.186 206.613 445.853 206.36C445.533 206.093 445.1 205.96 444.553 205.96C444.046 205.96 443.653 206.053 443.373 206.24C443.106 206.427 442.973 206.687 442.973 207.02C442.973 207.393 443.16 207.68 443.533 207.88C443.906 208.067 444.486 208.26 445.273 208.46C446.073 208.66 446.733 208.867 447.253 209.08C447.773 209.293 448.22 209.627 448.593 210.08C448.98 210.52 449.18 211.107 449.193 211.84C449.193 212.48 449.013 213.053 448.653 213.56C448.306 214.067 447.8 214.467 447.133 214.76C446.48 215.04 445.713 215.18 444.833 215.18ZM461.791 209.22C461.791 209.62 461.765 209.98 461.711 210.3H453.611C453.678 211.1 453.958 211.727 454.451 212.18C454.945 212.633 455.551 212.86 456.271 212.86C457.311 212.86 458.051 212.413 458.491 211.52H461.511C461.191 212.587 460.578 213.467 459.671 214.16C458.765 214.84 457.651 215.18 456.331 215.18C455.265 215.18 454.305 214.947 453.451 214.48C452.611 214 451.951 213.327 451.471 212.46C451.005 211.593 450.771 210.593 450.771 209.46C450.771 208.313 451.005 207.307 451.471 206.44C451.938 205.573 452.591 204.907 453.431 204.44C454.271 203.973 455.238 203.74 456.331 203.74C457.385 203.74 458.325 203.967 459.151 204.42C459.991 204.873 460.638 205.52 461.091 206.36C461.558 207.187 461.791 208.14 461.791 209.22ZM458.891 208.42C458.878 207.7 458.618 207.127 458.111 206.7C457.605 206.26 456.985 206.04 456.251 206.04C455.558 206.04 454.971 206.253 454.491 206.68C454.025 207.093 453.738 207.673 453.631 208.42H458.891ZM466.395 212.7H471.335V215H463.215V212.74L468.055 206.22H463.235V203.92H471.275V206.18L466.395 212.7ZM479.689 202.6C479.195 202.6 478.782 202.447 478.449 202.14C478.129 201.82 477.969 201.427 477.969 200.96C477.969 200.493 478.129 200.107 478.449 199.8C478.782 199.48 479.195 199.32 479.689 199.32C480.182 199.32 480.589 199.48 480.909 199.8C481.242 200.107 481.409 200.493 481.409 200.96C481.409 201.427 481.242 201.82 480.909 202.14C480.589 202.447 480.182 202.6 479.689 202.6ZM481.069 203.92V215H478.269V203.92H481.069ZM483.115 209.46C483.115 208.313 483.348 207.313 483.815 206.46C484.282 205.593 484.928 204.927 485.755 204.46C486.582 203.98 487.528 203.74 488.595 203.74C489.968 203.74 491.102 204.087 491.995 204.78C492.902 205.46 493.508 206.42 493.815 207.66H490.795C490.635 207.18 490.362 206.807 489.975 206.54C489.602 206.26 489.135 206.12 488.575 206.12C487.775 206.12 487.142 206.413 486.675 207C486.208 207.573 485.975 208.393 485.975 209.46C485.975 210.513 486.208 211.333 486.675 211.92C487.142 212.493 487.775 212.78 488.575 212.78C489.708 212.78 490.448 212.273 490.795 211.26H493.815C493.508 212.46 492.902 213.413 491.995 214.12C491.088 214.827 489.955 215.18 488.595 215.18C487.528 215.18 486.582 214.947 485.755 214.48C484.928 214 484.282 213.333 483.815 212.48C483.348 211.613 483.115 210.607 483.115 209.46ZM497.286 202.6C496.793 202.6 496.38 202.447 496.046 202.14C495.726 201.82 495.566 201.427 495.566 200.96C495.566 200.493 495.726 200.107 496.046 199.8C496.38 199.48 496.793 199.32 497.286 199.32C497.78 199.32 498.186 199.48 498.506 199.8C498.84 200.107 499.006 200.493 499.006 200.96C499.006 201.427 498.84 201.82 498.506 202.14C498.186 202.447 497.78 202.6 497.286 202.6ZM498.666 203.92V215H495.866V203.92H498.666Z" fill="#EDF2F4"/>
<path d="M398.027 245.18C397 245.18 396.067 244.947 395.227 244.48C394.4 244.013 393.747 243.353 393.267 242.5C392.8 241.633 392.567 240.633 392.567 239.5C392.567 238.38 392.807 237.393 393.287 236.54C393.78 235.673 394.447 235.013 395.287 234.56C396.127 234.093 397.067 233.86 398.107 233.86C399.147 233.86 400.087 234.093 400.927 234.56C401.767 235.013 402.427 235.667 402.907 236.52C403.4 237.373 403.647 238.367 403.647 239.5C403.647 240.633 403.394 241.633 402.887 242.5C402.394 243.353 401.72 244.013 400.867 244.48C400.014 244.947 399.067 245.18 398.027 245.18ZM398.027 243.58C398.68 243.58 399.294 243.427 399.867 243.12C400.44 242.813 400.9 242.353 401.247 241.74C401.607 241.127 401.787 240.38 401.787 239.5C401.787 238.62 401.614 237.873 401.267 237.26C400.92 236.647 400.467 236.193 399.907 235.9C399.347 235.593 398.74 235.44 398.087 235.44C397.42 235.44 396.807 235.593 396.247 235.9C395.7 236.193 395.26 236.647 394.927 237.26C394.594 237.873 394.427 238.62 394.427 239.5C394.427 240.393 394.587 241.147 394.907 241.76C395.24 242.373 395.68 242.833 396.227 243.14C396.774 243.433 397.374 243.58 398.027 243.58ZM415.76 234.04V245H413.94V243.38C413.593 243.94 413.107 244.38 412.48 244.7C411.867 245.007 411.187 245.16 410.44 245.16C409.587 245.16 408.82 244.987 408.14 244.64C407.46 244.28 406.92 243.747 406.52 243.04C406.133 242.333 405.94 241.473 405.94 240.46V234.04H407.74V240.22C407.74 241.3 408.013 242.133 408.56 242.72C409.107 243.293 409.853 243.58 410.8 243.58C411.773 243.58 412.54 243.28 413.1 242.68C413.66 242.08 413.94 241.207 413.94 240.06V234.04H415.76Z" fill="#EDF2F4"/>
<path d="M193.796 275.14C192.876 275.14 192.049 274.98 191.316 274.66C190.596 274.327 190.029 273.873 189.616 273.3C189.203 272.713 188.989 272.04 188.976 271.28H190.916C190.983 271.933 191.249 272.487 191.716 272.94C192.196 273.38 192.889 273.6 193.796 273.6C194.663 273.6 195.343 273.387 195.836 272.96C196.343 272.52 196.596 271.96 196.596 271.28C196.596 270.747 196.449 270.313 196.156 269.98C195.863 269.647 195.496 269.393 195.056 269.22C194.616 269.047 194.023 268.86 193.276 268.66C192.356 268.42 191.616 268.18 191.056 267.94C190.509 267.7 190.036 267.327 189.636 266.82C189.249 266.3 189.056 265.607 189.056 264.74C189.056 263.98 189.249 263.307 189.636 262.72C190.023 262.133 190.563 261.68 191.256 261.36C191.963 261.04 192.769 260.88 193.676 260.88C194.983 260.88 196.049 261.207 196.876 261.86C197.716 262.513 198.189 263.38 198.296 264.46H196.296C196.229 263.927 195.949 263.46 195.456 263.06C194.963 262.647 194.309 262.44 193.496 262.44C192.736 262.44 192.116 262.64 191.636 263.04C191.156 263.427 190.916 263.973 190.916 264.68C190.916 265.187 191.056 265.6 191.336 265.92C191.629 266.24 191.983 266.487 192.396 266.66C192.823 266.82 193.416 267.007 194.176 267.22C195.096 267.473 195.836 267.727 196.396 267.98C196.956 268.22 197.436 268.6 197.836 269.12C198.236 269.627 198.436 270.32 198.436 271.2C198.436 271.88 198.256 272.52 197.896 273.12C197.536 273.72 197.003 274.207 196.296 274.58C195.589 274.953 194.756 275.14 193.796 275.14ZM211.114 269.1C211.114 269.447 211.094 269.813 211.054 270.2H202.294C202.361 271.28 202.728 272.127 203.394 272.74C204.074 273.34 204.894 273.64 205.854 273.64C206.641 273.64 207.294 273.46 207.814 273.1C208.348 272.727 208.721 272.233 208.934 271.62H210.894C210.601 272.673 210.014 273.533 209.134 274.2C208.254 274.853 207.161 275.18 205.854 275.18C204.814 275.18 203.881 274.947 203.054 274.48C202.241 274.013 201.601 273.353 201.134 272.5C200.668 271.633 200.434 270.633 200.434 269.5C200.434 268.367 200.661 267.373 201.114 266.52C201.568 265.667 202.201 265.013 203.014 264.56C203.841 264.093 204.788 263.86 205.854 263.86C206.894 263.86 207.814 264.087 208.614 264.54C209.414 264.993 210.028 265.62 210.454 266.42C210.894 267.207 211.114 268.1 211.114 269.1ZM209.234 268.72C209.234 268.027 209.081 267.433 208.774 266.94C208.468 266.433 208.048 266.053 207.514 265.8C206.994 265.533 206.414 265.4 205.774 265.4C204.854 265.4 204.068 265.693 203.414 266.28C202.774 266.867 202.408 267.68 202.314 268.72H209.234ZM207.734 260.94L203.474 263.22V261.86L207.734 259.36V260.94ZM215.337 260.2V275H213.517V260.2H215.337ZM228.438 269.1C228.438 269.447 228.418 269.813 228.378 270.2H219.618C219.685 271.28 220.052 272.127 220.718 272.74C221.398 273.34 222.218 273.64 223.178 273.64C223.965 273.64 224.618 273.46 225.138 273.1C225.672 272.727 226.045 272.233 226.258 271.62H228.218C227.925 272.673 227.338 273.533 226.458 274.2C225.578 274.853 224.485 275.18 223.178 275.18C222.138 275.18 221.205 274.947 220.378 274.48C219.565 274.013 218.925 273.353 218.458 272.5C217.992 271.633 217.758 270.633 217.758 269.5C217.758 268.367 217.985 267.373 218.438 266.52C218.892 265.667 219.525 265.013 220.338 264.56C221.165 264.093 222.112 263.86 223.178 263.86C224.218 263.86 225.138 264.087 225.938 264.54C226.738 264.993 227.352 265.62 227.778 266.42C228.218 267.207 228.438 268.1 228.438 269.1ZM226.558 268.72C226.558 268.027 226.405 267.433 226.098 266.94C225.792 266.433 225.372 266.053 224.838 265.8C224.318 265.533 223.738 265.4 223.098 265.4C222.178 265.4 221.392 265.693 220.738 266.28C220.098 266.867 219.732 267.68 219.638 268.72H226.558ZM230.161 269.5C230.161 268.367 230.387 267.38 230.841 266.54C231.294 265.687 231.921 265.027 232.721 264.56C233.534 264.093 234.461 263.86 235.501 263.86C236.847 263.86 237.954 264.187 238.821 264.84C239.701 265.493 240.281 266.4 240.561 267.56H238.601C238.414 266.893 238.047 266.367 237.501 265.98C236.967 265.593 236.301 265.4 235.501 265.4C234.461 265.4 233.621 265.76 232.981 266.48C232.341 267.187 232.021 268.193 232.021 269.5C232.021 270.82 232.341 271.84 232.981 272.56C233.621 273.28 234.461 273.64 235.501 273.64C236.301 273.64 236.967 273.453 237.501 273.08C238.034 272.707 238.401 272.173 238.601 271.48H240.561C240.267 272.6 239.681 273.5 238.801 274.18C237.921 274.847 236.821 275.18 235.501 275.18C234.461 275.18 233.534 274.947 232.721 274.48C231.921 274.013 231.294 273.353 230.841 272.5C230.387 271.647 230.161 270.647 230.161 269.5ZM245.209 265.54V272C245.209 272.533 245.323 272.913 245.549 273.14C245.776 273.353 246.169 273.46 246.729 273.46H248.069V275H246.429C245.416 275 244.656 274.767 244.149 274.3C243.643 273.833 243.389 273.067 243.389 272V265.54H241.969V264.04H243.389V261.28H245.209V264.04H248.069V265.54H245.209ZM251.214 262.26C250.868 262.26 250.574 262.14 250.334 261.9C250.094 261.66 249.974 261.367 249.974 261.02C249.974 260.673 250.094 260.38 250.334 260.14C250.574 259.9 250.868 259.78 251.214 259.78C251.548 259.78 251.828 259.9 252.054 260.14C252.294 260.38 252.414 260.673 252.414 261.02C252.414 261.367 252.294 261.66 252.054 261.9C251.828 262.14 251.548 262.26 251.214 262.26ZM252.094 264.04V275H250.274V264.04H252.094ZM259.976 275.18C258.95 275.18 258.016 274.947 257.176 274.48C256.35 274.013 255.696 273.353 255.216 272.5C254.75 271.633 254.516 270.633 254.516 269.5C254.516 268.38 254.756 267.393 255.236 266.54C255.73 265.673 256.396 265.013 257.236 264.56C258.076 264.093 259.016 263.86 260.056 263.86C261.096 263.86 262.036 264.093 262.876 264.56C263.716 265.013 264.376 265.667 264.856 266.52C265.35 267.373 265.596 268.367 265.596 269.5C265.596 270.633 265.343 271.633 264.836 272.5C264.343 273.353 263.67 274.013 262.816 274.48C261.963 274.947 261.016 275.18 259.976 275.18ZM259.976 273.58C260.63 273.58 261.243 273.427 261.816 273.12C262.39 272.813 262.85 272.353 263.196 271.74C263.556 271.127 263.736 270.38 263.736 269.5C263.736 268.62 263.563 267.873 263.216 267.26C262.87 266.647 262.416 266.193 261.856 265.9C261.296 265.593 260.69 265.44 260.036 265.44C259.37 265.44 258.756 265.593 258.196 265.9C257.65 266.193 257.21 266.647 256.876 267.26C256.543 267.873 256.376 268.62 256.376 269.5C256.376 270.393 256.536 271.147 256.856 271.76C257.19 272.373 257.63 272.833 258.176 273.14C258.723 273.433 259.323 273.58 259.976 273.58ZM273.329 263.84C274.663 263.84 275.743 264.247 276.569 265.06C277.396 265.86 277.809 267.02 277.809 268.54V275H276.009V268.8C276.009 267.707 275.736 266.873 275.189 266.3C274.643 265.713 273.896 265.42 272.949 265.42C271.989 265.42 271.223 265.72 270.649 266.32C270.089 266.92 269.809 267.793 269.809 268.94V275H267.989V264.04H269.809V265.6C270.169 265.04 270.656 264.607 271.269 264.3C271.896 263.993 272.583 263.84 273.329 263.84ZM286.122 263.84C287.456 263.84 288.536 264.247 289.362 265.06C290.189 265.86 290.602 267.02 290.602 268.54V275H288.802V268.8C288.802 267.707 288.529 266.873 287.982 266.3C287.436 265.713 286.689 265.42 285.742 265.42C284.782 265.42 284.016 265.72 283.442 266.32C282.882 266.92 282.602 267.793 282.602 268.94V275H280.782V264.04H282.602V265.6C282.962 265.04 283.449 264.607 284.062 264.3C284.689 263.993 285.376 263.84 286.122 263.84ZM303.575 269.1C303.575 269.447 303.555 269.813 303.515 270.2H294.755C294.822 271.28 295.188 272.127 295.855 272.74C296.535 273.34 297.355 273.64 298.315 273.64C299.102 273.64 299.755 273.46 300.275 273.1C300.808 272.727 301.182 272.233 301.395 271.62H303.355C303.062 272.673 302.475 273.533 301.595 274.2C300.715 274.853 299.622 275.18 298.315 275.18C297.275 275.18 296.342 274.947 295.515 274.48C294.702 274.013 294.062 273.353 293.595 272.5C293.128 271.633 292.895 270.633 292.895 269.5C292.895 268.367 293.122 267.373 293.575 266.52C294.028 265.667 294.662 265.013 295.475 264.56C296.302 264.093 297.248 263.86 298.315 263.86C299.355 263.86 300.275 264.087 301.075 264.54C301.875 264.993 302.488 265.62 302.915 266.42C303.355 267.207 303.575 268.1 303.575 269.1ZM301.695 268.72C301.695 268.027 301.542 267.433 301.235 266.94C300.928 266.433 300.508 266.053 299.975 265.8C299.455 265.533 298.875 265.4 298.235 265.4C297.315 265.4 296.528 265.693 295.875 266.28C295.235 266.867 294.868 267.68 294.775 268.72H301.695ZM307.338 273.5H312.718V275H305.258V273.5L310.578 265.52H305.298V264.04H312.678V265.52L307.338 273.5ZM330.131 264.04V275H328.311V273.38C327.964 273.94 327.478 274.38 326.851 274.7C326.238 275.007 325.558 275.16 324.811 275.16C323.958 275.16 323.191 274.987 322.511 274.64C321.831 274.28 321.291 273.747 320.891 273.04C320.504 272.333 320.311 271.473 320.311 270.46V264.04H322.111V270.22C322.111 271.3 322.384 272.133 322.931 272.72C323.478 273.293 324.224 273.58 325.171 273.58C326.144 273.58 326.911 273.28 327.471 272.68C328.031 272.08 328.311 271.207 328.311 270.06V264.04H330.131ZM338.544 263.84C339.877 263.84 340.957 264.247 341.784 265.06C342.611 265.86 343.024 267.02 343.024 268.54V275H341.224V268.8C341.224 267.707 340.951 266.873 340.404 266.3C339.857 265.713 339.111 265.42 338.164 265.42C337.204 265.42 336.437 265.72 335.864 266.32C335.304 266.92 335.024 267.793 335.024 268.94V275H333.204V264.04H335.024V265.6C335.384 265.04 335.871 264.607 336.484 264.3C337.111 263.993 337.797 263.84 338.544 263.84ZM355.997 269.1C355.997 269.447 355.977 269.813 355.937 270.2H347.177C347.244 271.28 347.61 272.127 348.277 272.74C348.957 273.34 349.777 273.64 350.737 273.64C351.524 273.64 352.177 273.46 352.697 273.1C353.23 272.727 353.604 272.233 353.817 271.62H355.777C355.484 272.673 354.897 273.533 354.017 274.2C353.137 274.853 352.044 275.18 350.737 275.18C349.697 275.18 348.764 274.947 347.937 274.48C347.124 274.013 346.484 273.353 346.017 272.5C345.55 271.633 345.317 270.633 345.317 269.5C345.317 268.367 345.544 267.373 345.997 266.52C346.45 265.667 347.084 265.013 347.897 264.56C348.724 264.093 349.67 263.86 350.737 263.86C351.777 263.86 352.697 264.087 353.497 264.54C354.297 264.993 354.91 265.62 355.337 266.42C355.777 267.207 355.997 268.1 355.997 269.1ZM354.117 268.72C354.117 268.027 353.964 267.433 353.657 266.94C353.35 266.433 352.93 266.053 352.397 265.8C351.877 265.533 351.297 265.4 350.657 265.4C349.737 265.4 348.95 265.693 348.297 266.28C347.657 266.867 347.29 267.68 347.197 268.72H354.117ZM365.551 266.06C365.911 265.433 366.445 264.913 367.151 264.5C367.871 264.073 368.705 263.86 369.651 263.86C370.625 263.86 371.505 264.093 372.291 264.56C373.091 265.027 373.718 265.687 374.171 266.54C374.625 267.38 374.851 268.36 374.851 269.48C374.851 270.587 374.625 271.573 374.171 272.44C373.718 273.307 373.091 273.98 372.291 274.46C371.505 274.94 370.625 275.18 369.651 275.18C368.718 275.18 367.891 274.973 367.171 274.56C366.465 274.133 365.925 273.607 365.551 272.98V280.2H363.731V264.04H365.551V266.06ZM372.991 269.48C372.991 268.653 372.825 267.933 372.491 267.32C372.158 266.707 371.705 266.24 371.131 265.92C370.571 265.6 369.951 265.44 369.271 265.44C368.605 265.44 367.985 265.607 367.411 265.94C366.851 266.26 366.398 266.733 366.051 267.36C365.718 267.973 365.551 268.687 365.551 269.5C365.551 270.327 365.718 271.053 366.051 271.68C366.398 272.293 366.851 272.767 367.411 273.1C367.985 273.42 368.605 273.58 369.271 273.58C369.951 273.58 370.571 273.42 371.131 273.1C371.705 272.767 372.158 272.293 372.491 271.68C372.825 271.053 372.991 270.32 372.991 269.48ZM382.687 263.84C383.514 263.84 384.26 264.02 384.927 264.38C385.594 264.727 386.114 265.253 386.487 265.96C386.874 266.667 387.067 267.527 387.067 268.54V275H385.267V268.8C385.267 267.707 384.994 266.873 384.447 266.3C383.9 265.713 383.154 265.42 382.207 265.42C381.247 265.42 380.48 265.72 379.907 266.32C379.347 266.92 379.067 267.793 379.067 268.94V275H377.247V260.2H379.067V265.6C379.427 265.04 379.92 264.607 380.547 264.3C381.187 263.993 381.9 263.84 382.687 263.84ZM394.82 275.18C393.793 275.18 392.86 274.947 392.02 274.48C391.193 274.013 390.54 273.353 390.06 272.5C389.593 271.633 389.36 270.633 389.36 269.5C389.36 268.38 389.6 267.393 390.08 266.54C390.573 265.673 391.24 265.013 392.08 264.56C392.92 264.093 393.86 263.86 394.9 263.86C395.94 263.86 396.88 264.093 397.72 264.56C398.56 265.013 399.22 265.667 399.7 266.52C400.193 267.373 400.44 268.367 400.44 269.5C400.44 270.633 400.187 271.633 399.68 272.5C399.187 273.353 398.513 274.013 397.66 274.48C396.807 274.947 395.86 275.18 394.82 275.18ZM394.82 273.58C395.473 273.58 396.087 273.427 396.66 273.12C397.233 272.813 397.693 272.353 398.04 271.74C398.4 271.127 398.58 270.38 398.58 269.5C398.58 268.62 398.407 267.873 398.06 267.26C397.713 266.647 397.26 266.193 396.7 265.9C396.14 265.593 395.533 265.44 394.88 265.44C394.213 265.44 393.6 265.593 393.04 265.9C392.493 266.193 392.053 266.647 391.72 267.26C391.387 267.873 391.22 268.62 391.22 269.5C391.22 270.393 391.38 271.147 391.7 271.76C392.033 272.373 392.473 272.833 393.02 273.14C393.567 273.433 394.167 273.58 394.82 273.58ZM405.053 265.54V272C405.053 272.533 405.166 272.913 405.393 273.14C405.62 273.353 406.013 273.46 406.573 273.46H407.913V275H406.273C405.26 275 404.5 274.767 403.993 274.3C403.486 273.833 403.233 273.067 403.233 272V265.54H401.813V264.04H403.233V261.28H405.053V264.04H407.913V265.54H405.053ZM414.898 275.18C413.871 275.18 412.938 274.947 412.098 274.48C411.271 274.013 410.618 273.353 410.138 272.5C409.671 271.633 409.438 270.633 409.438 269.5C409.438 268.38 409.678 267.393 410.158 266.54C410.651 265.673 411.318 265.013 412.158 264.56C412.998 264.093 413.938 263.86 414.978 263.86C416.018 263.86 416.958 264.093 417.798 264.56C418.638 265.013 419.298 265.667 419.778 266.52C420.271 267.373 420.518 268.367 420.518 269.5C420.518 270.633 420.265 271.633 419.758 272.5C419.265 273.353 418.591 274.013 417.738 274.48C416.885 274.947 415.938 275.18 414.898 275.18ZM414.898 273.58C415.551 273.58 416.165 273.427 416.738 273.12C417.311 272.813 417.771 272.353 418.118 271.74C418.478 271.127 418.658 270.38 418.658 269.5C418.658 268.62 418.485 267.873 418.138 267.26C417.791 266.647 417.338 266.193 416.778 265.9C416.218 265.593 415.611 265.44 414.958 265.44C414.291 265.44 413.678 265.593 413.118 265.9C412.571 266.193 412.131 266.647 411.798 267.26C411.465 267.873 411.298 268.62 411.298 269.5C411.298 270.393 411.458 271.147 411.778 271.76C412.111 272.373 412.551 272.833 413.098 273.14C413.645 273.433 414.245 273.58 414.898 273.58ZM432.123 275.18C431.283 275.18 430.53 275.04 429.863 274.76C429.196 274.467 428.67 274.067 428.283 273.56C427.896 273.04 427.683 272.447 427.643 271.78H429.523C429.576 272.327 429.83 272.773 430.283 273.12C430.75 273.467 431.356 273.64 432.103 273.64C432.796 273.64 433.343 273.487 433.743 273.18C434.143 272.873 434.343 272.487 434.343 272.02C434.343 271.54 434.13 271.187 433.703 270.96C433.276 270.72 432.616 270.487 431.723 270.26C430.91 270.047 430.243 269.833 429.723 269.62C429.216 269.393 428.776 269.067 428.403 268.64C428.043 268.2 427.863 267.627 427.863 266.92C427.863 266.36 428.03 265.847 428.363 265.38C428.696 264.913 429.17 264.547 429.783 264.28C430.396 264 431.096 263.86 431.883 263.86C433.096 263.86 434.076 264.167 434.823 264.78C435.57 265.393 435.97 266.233 436.023 267.3H434.203C434.163 266.727 433.93 266.267 433.503 265.92C433.09 265.573 432.53 265.4 431.823 265.4C431.17 265.4 430.65 265.54 430.263 265.82C429.876 266.1 429.683 266.467 429.683 266.92C429.683 267.28 429.796 267.58 430.023 267.82C430.263 268.047 430.556 268.233 430.903 268.38C431.263 268.513 431.756 268.667 432.383 268.84C433.17 269.053 433.81 269.267 434.303 269.48C434.796 269.68 435.216 269.987 435.563 270.4C435.923 270.813 436.11 271.353 436.123 272.02C436.123 272.62 435.956 273.16 435.623 273.64C435.29 274.12 434.816 274.5 434.203 274.78C433.603 275.047 432.91 275.18 432.123 275.18ZM448.412 264.04V275H446.592V273.38C446.246 273.94 445.759 274.38 445.132 274.7C444.519 275.007 443.839 275.16 443.092 275.16C442.239 275.16 441.472 274.987 440.792 274.64C440.112 274.28 439.572 273.747 439.172 273.04C438.786 272.333 438.592 271.473 438.592 270.46V264.04H440.392V270.22C440.392 271.3 440.666 272.133 441.212 272.72C441.759 273.293 442.506 273.58 443.452 273.58C444.426 273.58 445.192 273.28 445.752 272.68C446.312 272.08 446.592 271.207 446.592 270.06V264.04H448.412ZM453.305 265.82C453.625 265.193 454.079 264.707 454.665 264.36C455.265 264.013 455.992 263.84 456.845 263.84V265.72H456.365C454.325 265.72 453.305 266.827 453.305 269.04V275H451.485V264.04H453.305V265.82ZM468.358 273.32L471.758 264.04H473.698L469.398 275H467.278L462.978 264.04H464.938L468.358 273.32ZM480.269 275.18C479.243 275.18 478.309 274.947 477.469 274.48C476.643 274.013 475.989 273.353 475.509 272.5C475.043 271.633 474.809 270.633 474.809 269.5C474.809 268.38 475.049 267.393 475.529 266.54C476.023 265.673 476.689 265.013 477.529 264.56C478.369 264.093 479.309 263.86 480.349 263.86C481.389 263.86 482.329 264.093 483.169 264.56C484.009 265.013 484.669 265.667 485.149 266.52C485.643 267.373 485.889 268.367 485.889 269.5C485.889 270.633 485.636 271.633 485.129 272.5C484.636 273.353 483.963 274.013 483.109 274.48C482.256 274.947 481.309 275.18 480.269 275.18ZM480.269 273.58C480.923 273.58 481.536 273.427 482.109 273.12C482.683 272.813 483.143 272.353 483.489 271.74C483.849 271.127 484.029 270.38 484.029 269.5C484.029 268.62 483.856 267.873 483.509 267.26C483.163 266.647 482.709 266.193 482.149 265.9C481.589 265.593 480.983 265.44 480.329 265.44C479.663 265.44 479.049 265.593 478.489 265.9C477.943 266.193 477.503 266.647 477.169 267.26C476.836 267.873 476.669 268.62 476.669 269.5C476.669 270.393 476.829 271.147 477.149 271.76C477.483 272.373 477.923 272.833 478.469 273.14C479.016 273.433 479.616 273.58 480.269 273.58ZM490.502 265.54V272C490.502 272.533 490.616 272.913 490.842 273.14C491.069 273.353 491.462 273.46 492.022 273.46H493.362V275H491.722C490.709 275 489.949 274.767 489.442 274.3C488.936 273.833 488.682 273.067 488.682 272V265.54H487.262V264.04H488.682V261.28H490.502V264.04H493.362V265.54H490.502ZM497.387 265.82C497.707 265.193 498.161 264.707 498.747 264.36C499.347 264.013 500.074 263.84 500.927 263.84V265.72H500.447C498.407 265.72 497.387 266.827 497.387 269.04V275H495.567V264.04H497.387V265.82ZM513.028 269.1C513.028 269.447 513.008 269.813 512.968 270.2H504.208C504.275 271.28 504.642 272.127 505.308 272.74C505.988 273.34 506.808 273.64 507.768 273.64C508.555 273.64 509.208 273.46 509.728 273.1C510.262 272.727 510.635 272.233 510.848 271.62H512.808C512.515 272.673 511.928 273.533 511.048 274.2C510.168 274.853 509.075 275.18 507.768 275.18C506.728 275.18 505.795 274.947 504.968 274.48C504.155 274.013 503.515 273.353 503.048 272.5C502.582 271.633 502.348 270.633 502.348 269.5C502.348 268.367 502.575 267.373 503.028 266.52C503.482 265.667 504.115 265.013 504.928 264.56C505.755 264.093 506.702 263.86 507.768 263.86C508.808 263.86 509.728 264.087 510.528 264.54C511.328 264.993 511.942 265.62 512.368 266.42C512.808 267.207 513.028 268.1 513.028 269.1ZM511.148 268.72C511.148 268.027 510.995 267.433 510.688 266.94C510.382 266.433 509.962 266.053 509.428 265.8C508.908 265.533 508.328 265.4 507.688 265.4C506.768 265.4 505.982 265.693 505.328 266.28C504.688 266.867 504.322 267.68 504.228 268.72H511.148ZM525.543 275.18C524.516 275.18 523.583 274.947 522.743 274.48C521.916 274.013 521.263 273.353 520.783 272.5C520.316 271.633 520.083 270.633 520.083 269.5C520.083 268.38 520.323 267.393 520.803 266.54C521.296 265.673 521.963 265.013 522.803 264.56C523.643 264.093 524.583 263.86 525.623 263.86C526.663 263.86 527.603 264.093 528.443 264.56C529.283 265.013 529.943 265.667 530.423 266.52C530.916 267.373 531.163 268.367 531.163 269.5C531.163 270.633 530.909 271.633 530.403 272.5C529.909 273.353 529.236 274.013 528.383 274.48C527.529 274.947 526.583 275.18 525.543 275.18ZM525.543 273.58C526.196 273.58 526.809 273.427 527.383 273.12C527.956 272.813 528.416 272.353 528.763 271.74C529.123 271.127 529.303 270.38 529.303 269.5C529.303 268.62 529.129 267.873 528.783 267.26C528.436 266.647 527.983 266.193 527.423 265.9C526.863 265.593 526.256 265.44 525.603 265.44C524.936 265.44 524.323 265.593 523.763 265.9C523.216 266.193 522.776 266.647 522.443 267.26C522.109 267.873 521.943 268.62 521.943 269.5C521.943 270.393 522.103 271.147 522.423 271.76C522.756 272.373 523.196 272.833 523.743 273.14C524.289 273.433 524.889 273.58 525.543 273.58ZM535.376 265.82C535.696 265.193 536.149 264.707 536.736 264.36C537.336 264.013 538.062 263.84 538.916 263.84V265.72H538.436C536.396 265.72 535.376 266.827 535.376 269.04V275H533.556V264.04H535.376V265.82ZM540.337 269.48C540.337 268.36 540.563 267.38 541.017 266.54C541.47 265.687 542.09 265.027 542.877 264.56C543.677 264.093 544.57 263.86 545.557 263.86C546.41 263.86 547.203 264.06 547.937 264.46C548.67 264.847 549.23 265.36 549.617 266V260.2H551.457V275H549.617V272.94C549.257 273.593 548.723 274.133 548.017 274.56C547.31 274.973 546.483 275.18 545.537 275.18C544.563 275.18 543.677 274.94 542.877 274.46C542.09 273.98 541.47 273.307 541.017 272.44C540.563 271.573 540.337 270.587 540.337 269.48ZM549.617 269.5C549.617 268.673 549.45 267.953 549.117 267.34C548.783 266.727 548.33 266.26 547.757 265.94C547.197 265.607 546.577 265.44 545.897 265.44C545.217 265.44 544.597 265.6 544.037 265.92C543.477 266.24 543.03 266.707 542.697 267.32C542.363 267.933 542.197 268.653 542.197 269.48C542.197 270.32 542.363 271.053 542.697 271.68C543.03 272.293 543.477 272.767 544.037 273.1C544.597 273.42 545.217 273.58 545.897 273.58C546.577 273.58 547.197 273.42 547.757 273.1C548.33 272.767 548.783 272.293 549.117 271.68C549.45 271.053 549.617 270.327 549.617 269.5ZM555.472 262.26C555.126 262.26 554.832 262.14 554.592 261.9C554.352 261.66 554.232 261.367 554.232 261.02C554.232 260.673 554.352 260.38 554.592 260.14C554.832 259.9 555.126 259.78 555.472 259.78C555.806 259.78 556.086 259.9 556.312 260.14C556.552 260.38 556.672 260.673 556.672 261.02C556.672 261.367 556.552 261.66 556.312 261.9C556.086 262.14 555.806 262.26 555.472 262.26ZM556.352 264.04V275H554.532V264.04H556.352ZM564.794 263.84C566.127 263.84 567.207 264.247 568.034 265.06C568.861 265.86 569.274 267.02 569.274 268.54V275H567.474V268.8C567.474 267.707 567.201 266.873 566.654 266.3C566.107 265.713 565.361 265.42 564.414 265.42C563.454 265.42 562.687 265.72 562.114 266.32C561.554 266.92 561.274 267.793 561.274 268.94V275H559.454V264.04H561.274V265.6C561.634 265.04 562.121 264.607 562.734 264.3C563.361 263.993 564.047 263.84 564.794 263.84ZM571.567 269.48C571.567 268.36 571.794 267.38 572.247 266.54C572.7 265.687 573.32 265.027 574.107 264.56C574.907 264.093 575.794 263.86 576.767 263.86C577.727 263.86 578.56 264.067 579.267 264.48C579.974 264.893 580.5 265.413 580.847 266.04V264.04H582.687V275H580.847V272.96C580.487 273.6 579.947 274.133 579.227 274.56C578.52 274.973 577.694 275.18 576.747 275.18C575.774 275.18 574.894 274.94 574.107 274.46C573.32 273.98 572.7 273.307 572.247 272.44C571.794 271.573 571.567 270.587 571.567 269.48ZM580.847 269.5C580.847 268.673 580.68 267.953 580.347 267.34C580.014 266.727 579.56 266.26 578.987 265.94C578.427 265.607 577.807 265.44 577.127 265.44C576.447 265.44 575.827 265.6 575.267 265.92C574.707 266.24 574.26 266.707 573.927 267.32C573.594 267.933 573.427 268.653 573.427 269.48C573.427 270.32 573.594 271.053 573.927 271.68C574.26 272.293 574.707 272.767 575.267 273.1C575.827 273.42 576.447 273.58 577.127 273.58C577.807 273.58 578.427 273.42 578.987 273.1C579.56 272.767 580.014 272.293 580.347 271.68C580.68 271.053 580.847 270.327 580.847 269.5ZM587.983 265.54V272C587.983 272.533 588.096 272.913 588.323 273.14C588.549 273.353 588.943 273.46 589.503 273.46H590.843V275H589.203C588.189 275 587.429 274.767 586.923 274.3C586.416 273.833 586.163 273.067 586.163 272V265.54H584.743V264.04H586.163V261.28H587.983V264.04H590.843V265.54H587.983ZM603.048 269.1C603.048 269.447 603.028 269.813 602.988 270.2H594.228C594.294 271.28 594.661 272.127 595.328 272.74C596.008 273.34 596.828 273.64 597.788 273.64C598.574 273.64 599.228 273.46 599.748 273.1C600.281 272.727 600.654 272.233 600.868 271.62H602.828C602.534 272.673 601.948 273.533 601.068 274.2C600.188 274.853 599.094 275.18 597.788 275.18C596.748 275.18 595.814 274.947 594.988 274.48C594.174 274.013 593.534 273.353 593.068 272.5C592.601 271.633 592.368 270.633 592.368 269.5C592.368 268.367 592.594 267.373 593.048 266.52C593.501 265.667 594.134 265.013 594.948 264.56C595.774 264.093 596.721 263.86 597.788 263.86C598.828 263.86 599.748 264.087 600.548 264.54C601.348 264.993 601.961 265.62 602.388 266.42C602.828 267.207 603.048 268.1 603.048 269.1ZM601.168 268.72C601.168 268.027 601.014 267.433 600.708 266.94C600.401 266.433 599.981 266.053 599.448 265.8C598.928 265.533 598.348 265.4 597.708 265.4C596.788 265.4 596.001 265.693 595.348 266.28C594.708 266.867 594.341 267.68 594.248 268.72H601.168ZM615.17 264.04V275H613.35V273.38C613.003 273.94 612.517 274.38 611.89 274.7C611.277 275.007 610.597 275.16 609.85 275.16C608.997 275.16 608.23 274.987 607.55 274.64C606.87 274.28 606.33 273.747 605.93 273.04C605.543 272.333 605.35 271.473 605.35 270.46V264.04H607.15V270.22C607.15 271.3 607.423 272.133 607.97 272.72C608.517 273.293 609.263 273.58 610.21 273.58C611.183 273.58 611.95 273.28 612.51 272.68C613.07 272.08 613.35 271.207 613.35 270.06V264.04H615.17ZM620.063 265.82C620.383 265.193 620.836 264.707 621.423 264.36C622.023 264.013 622.75 263.84 623.603 263.84V265.72H623.123C621.083 265.72 620.063 266.827 620.063 269.04V275H618.243V264.04H620.063V265.82Z" fill="#EDF2F4"/>
<path d="M187.836 277H624.163V278H187.836V277Z" fill="#EDF2F4"/>
</svg>
