<svg width="264" height="286" viewBox="0 0 264 286" fill="none" xmlns="http://www.w3.org/2000/svg">
<path d="M28.2683 5.0088V5.8968H25.9883V13.3728H24.8963V5.8968H22.6043V5.0088H28.2683ZM35.2765 6.7968L31.3165 16.4688H30.1885L31.4845 13.3008L28.8325 6.7968H30.0445L32.1085 12.1248L34.1485 6.7968H35.2765ZM37.4662 8.0088C37.6822 7.6328 38.0022 7.3208 38.4262 7.0728C38.8582 6.8168 39.3582 6.6888 39.9262 6.6888C40.5102 6.6888 41.0382 6.8288 41.5102 7.1088C41.9902 7.3888 42.3662 7.7848 42.6382 8.2968C42.9102 8.8008 43.0462 9.3888 43.0462 10.0608C43.0462 10.7248 42.9102 11.3168 42.6382 11.8368C42.3662 12.3568 41.9902 12.7608 41.5102 13.0488C41.0382 13.3368 40.5102 13.4808 39.9262 13.4808C39.3662 13.4808 38.8702 13.3568 38.4382 13.1088C38.0142 12.8528 37.6902 12.5368 37.4662 12.1608V16.4928H36.3742V6.7968H37.4662V8.0088ZM41.9302 10.0608C41.9302 9.5648 41.8302 9.1328 41.6302 8.7648C41.4302 8.3968 41.1582 8.1168 40.8142 7.9248C40.4782 7.7328 40.1062 7.6368 39.6982 7.6368C39.2982 7.6368 38.9262 7.7368 38.5822 7.9368C38.2462 8.1288 37.9742 8.4128 37.7662 8.7888C37.5662 9.1568 37.4662 9.5848 37.4662 10.0728C37.4662 10.5688 37.5662 11.0048 37.7662 11.3808C37.9742 11.7488 38.2462 12.0328 38.5822 12.2328C38.9262 12.4248 39.2982 12.5208 39.6982 12.5208C40.1062 12.5208 40.4782 12.4248 40.8142 12.2328C41.1582 12.0328 41.4302 11.7488 41.6302 11.3808C41.8302 11.0048 41.9302 10.5648 41.9302 10.0608ZM50.4836 9.8328C50.4836 10.0408 50.4716 10.2608 50.4476 10.4928H45.1916C45.2316 11.1408 45.4516 11.6488 45.8516 12.0168C46.2596 12.3768 46.7516 12.5568 47.3276 12.5568C47.7996 12.5568 48.1916 12.4488 48.5036 12.2328C48.8236 12.0088 49.0476 11.7128 49.1756 11.3448H50.3516C50.1756 11.9768 49.8236 12.4928 49.2956 12.8928C48.7676 13.2848 48.1116 13.4808 47.3276 13.4808C46.7036 13.4808 46.1436 13.3408 45.6476 13.0608C45.1596 12.7808 44.7756 12.3848 44.4956 11.8728C44.2156 11.3528 44.0756 10.7528 44.0756 10.0728C44.0756 9.3928 44.2116 8.7968 44.4836 8.2848C44.7556 7.7728 45.1356 7.3808 45.6236 7.1088C46.1196 6.8288 46.6876 6.6888 47.3276 6.6888C47.9516 6.6888 48.5036 6.8248 48.9836 7.0968C49.4636 7.3688 49.8316 7.7448 50.0876 8.2248C50.3516 8.6968 50.4836 9.2328 50.4836 9.8328ZM49.3556 9.6048C49.3556 9.1888 49.2636 8.8328 49.0796 8.5368C48.8956 8.2328 48.6436 8.0048 48.3236 7.8528C48.0116 7.6928 47.6636 7.6128 47.2796 7.6128C46.7276 7.6128 46.2556 7.7888 45.8636 8.1408C45.4796 8.4928 45.2596 8.9808 45.2036 9.6048H49.3556ZM54.253 13.4808C53.749 13.4808 53.297 13.3968 52.897 13.2288C52.497 13.0528 52.181 12.8128 51.949 12.5088C51.717 12.1968 51.589 11.8408 51.565 11.4408H52.693C52.725 11.7688 52.877 12.0368 53.149 12.2448C53.429 12.4528 53.793 12.5568 54.241 12.5568C54.657 12.5568 54.985 12.4648 55.225 12.2808C55.465 12.0968 55.585 11.8648 55.585 11.5848C55.585 11.2968 55.457 11.0848 55.201 10.9488C54.945 10.8048 54.549 10.6648 54.013 10.5288C53.525 10.4008 53.125 10.2728 52.813 10.1448C52.509 10.0088 52.245 9.8128 52.021 9.5568C51.805 9.2928 51.697 8.9488 51.697 8.5248C51.697 8.1888 51.797 7.8808 51.997 7.6008C52.197 7.3208 52.481 7.1008 52.849 6.9408C53.217 6.7728 53.637 6.6888 54.109 6.6888C54.837 6.6888 55.425 6.8728 55.873 7.2408C56.321 7.6088 56.561 8.1128 56.593 8.7528H55.501C55.477 8.4088 55.337 8.1328 55.081 7.9248C54.833 7.7168 54.497 7.6128 54.073 7.6128C53.681 7.6128 53.369 7.6968 53.137 7.8648C52.905 8.0328 52.789 8.2528 52.789 8.5248C52.789 8.7408 52.857 8.9208 52.993 9.0648C53.137 9.2008 53.313 9.3128 53.521 9.4008C53.737 9.4808 54.033 9.5728 54.409 9.6768C54.881 9.8048 55.265 9.9328 55.561 10.0608C55.857 10.1808 56.109 10.3648 56.317 10.6128C56.533 10.8608 56.645 11.1848 56.653 11.5848C56.653 11.9448 56.553 12.2688 56.353 12.5568C56.153 12.8448 55.869 13.0728 55.501 13.2408C55.141 13.4008 54.725 13.4808 54.253 13.4808ZM60.9857 10.0608C60.9857 9.3888 61.1217 8.8008 61.3937 8.2968C61.6657 7.7848 62.0377 7.3888 62.5097 7.1088C62.9897 6.8288 63.5257 6.6888 64.1177 6.6888C64.6297 6.6888 65.1057 6.8088 65.5457 7.0488C65.9857 7.2808 66.3217 7.5888 66.5537 7.9728V4.4928H67.6577V13.3728H66.5537V12.1368C66.3377 12.5288 66.0177 12.8528 65.5937 13.1088C65.1697 13.3568 64.6737 13.4808 64.1057 13.4808C63.5217 13.4808 62.9897 13.3368 62.5097 13.0488C62.0377 12.7608 61.6657 12.3568 61.3937 11.8368C61.1217 11.3168 60.9857 10.7248 60.9857 10.0608ZM66.5537 10.0728C66.5537 9.5768 66.4537 9.1448 66.2537 8.7768C66.0537 8.4088 65.7817 8.1288 65.4377 7.9368C65.1017 7.7368 64.7297 7.6368 64.3217 7.6368C63.9137 7.6368 63.5417 7.7328 63.2057 7.9248C62.8697 8.1168 62.6017 8.3968 62.4017 8.7648C62.2017 9.1328 62.1017 9.5648 62.1017 10.0608C62.1017 10.5648 62.2017 11.0048 62.4017 11.3808C62.6017 11.7488 62.8697 12.0328 63.2057 12.2328C63.5417 12.4248 63.9137 12.5208 64.3217 12.5208C64.7297 12.5208 65.1017 12.4248 65.4377 12.2328C65.7817 12.0328 66.0537 11.7488 66.2537 11.3808C66.4537 11.0048 66.5537 10.5688 66.5537 10.0728ZM75.5031 9.8328C75.5031 10.0408 75.4911 10.2608 75.4671 10.4928H70.2111C70.2511 11.1408 70.4711 11.6488 70.8711 12.0168C71.2791 12.3768 71.7711 12.5568 72.3471 12.5568C72.8191 12.5568 73.2111 12.4488 73.5231 12.2328C73.8431 12.0088 74.0671 11.7128 74.1951 11.3448H75.3711C75.1951 11.9768 74.8431 12.4928 74.3151 12.8928C73.7871 13.2848 73.1311 13.4808 72.3471 13.4808C71.7231 13.4808 71.1631 13.3408 70.6671 13.0608C70.1791 12.7808 69.7951 12.3848 69.5151 11.8728C69.2351 11.3528 69.0951 10.7528 69.0951 10.0728C69.0951 9.3928 69.2311 8.7968 69.5031 8.2848C69.7751 7.7728 70.1551 7.3808 70.6431 7.1088C71.1391 6.8288 71.7071 6.6888 72.3471 6.6888C72.9711 6.6888 73.5231 6.8248 74.0031 7.0968C74.4831 7.3688 74.8511 7.7448 75.1071 8.2248C75.3711 8.6968 75.5031 9.2328 75.5031 9.8328ZM74.3751 9.6048C74.3751 9.1888 74.2831 8.8328 74.0991 8.5368C73.9151 8.2328 73.6631 8.0048 73.3431 7.8528C73.0311 7.6928 72.6831 7.6128 72.2991 7.6128C71.7471 7.6128 71.2751 7.7888 70.8831 8.1408C70.4991 8.4928 70.2791 8.9808 70.2231 9.6048H74.3751ZM82.8197 7.6968H81.4397V13.3728H80.3477V7.6968H79.4957V6.7968H80.3477V6.3288C80.3477 5.5928 80.5357 5.0568 80.9117 4.7208C81.2957 4.3768 81.9077 4.2048 82.7477 4.2048V5.1168C82.2677 5.1168 81.9277 5.2128 81.7277 5.4048C81.5357 5.5888 81.4397 5.8968 81.4397 6.3288V6.7968H82.8197V7.6968ZM84.6569 5.7288C84.4489 5.7288 84.2729 5.6568 84.1289 5.5128C83.9849 5.3688 83.9129 5.1928 83.9129 4.9848C83.9129 4.7768 83.9849 4.6008 84.1289 4.4568C84.2729 4.3128 84.4489 4.2408 84.6569 4.2408C84.8569 4.2408 85.0249 4.3128 85.1609 4.4568C85.3049 4.6008 85.3769 4.7768 85.3769 4.9848C85.3769 5.1928 85.3049 5.3688 85.1609 5.5128C85.0249 5.6568 84.8569 5.7288 84.6569 5.7288ZM85.1849 6.7968V13.3728H84.0929V6.7968H85.1849ZM86.6381 10.0728C86.6381 9.3928 86.7741 8.8008 87.0461 8.2968C87.3181 7.7848 87.6941 7.3888 88.1741 7.1088C88.6621 6.8288 89.2181 6.6888 89.8421 6.6888C90.6501 6.6888 91.3141 6.8848 91.8341 7.2768C92.3621 7.6688 92.7101 8.2128 92.8781 8.9088H91.7021C91.5901 8.5088 91.3701 8.1928 91.0421 7.9608C90.7221 7.7288 90.3221 7.6128 89.8421 7.6128C89.2181 7.6128 88.7141 7.8288 88.3301 8.2608C87.9461 8.6848 87.7541 9.2888 87.7541 10.0728C87.7541 10.8648 87.9461 11.4768 88.3301 11.9088C88.7141 12.3408 89.2181 12.5568 89.8421 12.5568C90.3221 12.5568 90.7221 12.4448 91.0421 12.2208C91.3621 11.9968 91.5821 11.6768 91.7021 11.2608H92.8781C92.7021 11.9328 92.3501 12.4728 91.8221 12.8808C91.2941 13.2808 90.6341 13.4808 89.8421 13.4808C89.2181 13.4808 88.6621 13.3408 88.1741 13.0608C87.6941 12.7808 87.3181 12.3848 87.0461 11.8728C86.7741 11.3608 86.6381 10.7608 86.6381 10.0728ZM97.5991 6.6768C98.0951 6.6768 98.5431 6.7848 98.9431 7.0008C99.3431 7.2088 99.6551 7.5248 99.8791 7.9488C100.111 8.3728 100.227 8.8888 100.227 9.4968V13.3728H99.1471V9.6528C99.1471 8.9968 98.9831 8.4968 98.6551 8.1528C98.3271 7.8008 97.8791 7.6248 97.3111 7.6248C96.7351 7.6248 96.2751 7.8048 95.9311 8.1648C95.5951 8.5248 95.4271 9.0488 95.4271 9.7368V13.3728H94.3351V4.4928H95.4271V7.7328C95.6431 7.3968 95.9391 7.1368 96.3151 6.9528C96.6991 6.7688 97.1271 6.6768 97.5991 6.6768ZM102.575 5.7288C102.367 5.7288 102.191 5.6568 102.047 5.5128C101.903 5.3688 101.831 5.1928 101.831 4.9848C101.831 4.7768 101.903 4.6008 102.047 4.4568C102.191 4.3128 102.367 4.2408 102.575 4.2408C102.775 4.2408 102.943 4.3128 103.079 4.4568C103.223 4.6008 103.295 4.7768 103.295 4.9848C103.295 5.1928 103.223 5.3688 103.079 5.5128C102.943 5.6568 102.775 5.7288 102.575 5.7288ZM103.103 6.7968V13.3728H102.011V6.7968H103.103ZM110.964 9.8328C110.964 10.0408 110.952 10.2608 110.928 10.4928H105.672C105.712 11.1408 105.932 11.6488 106.332 12.0168C106.74 12.3768 107.232 12.5568 107.808 12.5568C108.28 12.5568 108.672 12.4488 108.984 12.2328C109.304 12.0088 109.528 11.7128 109.656 11.3448H110.832C110.656 11.9768 110.304 12.4928 109.776 12.8928C109.248 13.2848 108.592 13.4808 107.808 13.4808C107.184 13.4808 106.624 13.3408 106.128 13.0608C105.64 12.7808 105.256 12.3848 104.976 11.8728C104.696 11.3528 104.556 10.7528 104.556 10.0728C104.556 9.3928 104.692 8.7968 104.964 8.2848C105.236 7.7728 105.616 7.3808 106.104 7.1088C106.6 6.8288 107.168 6.6888 107.808 6.6888C108.432 6.6888 108.984 6.8248 109.464 7.0968C109.944 7.3688 110.312 7.7448 110.568 8.2248C110.832 8.6968 110.964 9.2328 110.964 9.8328ZM109.836 9.6048C109.836 9.1888 109.744 8.8328 109.56 8.5368C109.376 8.2328 109.124 8.0048 108.804 7.8528C108.492 7.6928 108.144 7.6128 107.76 7.6128C107.208 7.6128 106.736 7.7888 106.344 8.1408C105.96 8.4928 105.74 8.9808 105.684 9.6048H109.836ZM113.497 7.8648C113.689 7.4888 113.961 7.1968 114.313 6.9888C114.673 6.7808 115.109 6.6768 115.621 6.6768V7.8048H115.333C114.109 7.8048 113.497 8.4688 113.497 9.7968V13.3728H112.405V6.7968H113.497V7.8648ZM119.21 13.4808C118.706 13.4808 118.254 13.3968 117.854 13.2288C117.454 13.0528 117.138 12.8128 116.906 12.5088C116.674 12.1968 116.546 11.8408 116.522 11.4408H117.65C117.682 11.7688 117.834 12.0368 118.106 12.2448C118.386 12.4528 118.75 12.5568 119.198 12.5568C119.614 12.5568 119.942 12.4648 120.182 12.2808C120.422 12.0968 120.542 11.8648 120.542 11.5848C120.542 11.2968 120.414 11.0848 120.158 10.9488C119.902 10.8048 119.506 10.6648 118.97 10.5288C118.482 10.4008 118.082 10.2728 117.77 10.1448C117.466 10.0088 117.202 9.8128 116.978 9.5568C116.762 9.2928 116.654 8.9488 116.654 8.5248C116.654 8.1888 116.754 7.8808 116.954 7.6008C117.154 7.3208 117.438 7.1008 117.806 6.9408C118.174 6.7728 118.594 6.6888 119.066 6.6888C119.794 6.6888 120.382 6.8728 120.83 7.2408C121.278 7.6088 121.518 8.1128 121.55 8.7528H120.458C120.434 8.4088 120.294 8.1328 120.038 7.9248C119.79 7.7168 119.454 7.6128 119.03 7.6128C118.638 7.6128 118.326 7.6968 118.094 7.8648C117.862 8.0328 117.746 8.2528 117.746 8.5248C117.746 8.7408 117.814 8.9208 117.95 9.0648C118.094 9.2008 118.27 9.3128 118.478 9.4008C118.694 9.4808 118.99 9.5728 119.366 9.6768C119.838 9.8048 120.222 9.9328 120.518 10.0608C120.814 10.1808 121.066 10.3648 121.274 10.6128C121.49 10.8608 121.602 11.1848 121.61 11.5848C121.61 11.9448 121.51 12.2688 121.31 12.5568C121.11 12.8448 120.826 13.0728 120.458 13.2408C120.098 13.4008 119.682 13.4808 119.21 13.4808ZM125.943 10.0608C125.943 9.3888 126.079 8.8008 126.351 8.2968C126.623 7.7848 126.995 7.3888 127.467 7.1088C127.947 6.8288 128.479 6.6888 129.063 6.6888C129.639 6.6888 130.139 6.8128 130.563 7.0608C130.987 7.3088 131.303 7.6208 131.511 7.9968V6.7968H132.615V13.3728H131.511V12.1488C131.295 12.5328 130.971 12.8528 130.539 13.1088C130.115 13.3568 129.619 13.4808 129.051 13.4808C128.467 13.4808 127.939 13.3368 127.467 13.0488C126.995 12.7608 126.623 12.3568 126.351 11.8368C126.079 11.3168 125.943 10.7248 125.943 10.0608ZM131.511 10.0728C131.511 9.5768 131.411 9.1448 131.211 8.7768C131.011 8.4088 130.739 8.1288 130.395 7.9368C130.059 7.7368 129.687 7.6368 129.279 7.6368C128.871 7.6368 128.499 7.7328 128.163 7.9248C127.827 8.1168 127.559 8.3968 127.359 8.7648C127.159 9.1328 127.059 9.5648 127.059 10.0608C127.059 10.5648 127.159 11.0048 127.359 11.3808C127.559 11.7488 127.827 12.0328 128.163 12.2328C128.499 12.4248 128.871 12.5208 129.279 12.5208C129.687 12.5208 130.059 12.4248 130.395 12.2328C130.739 12.0328 131.011 11.7488 131.211 11.3808C131.411 11.0048 131.511 10.5688 131.511 10.0728ZM134.052 10.0728C134.052 9.3928 134.188 8.8008 134.46 8.2968C134.732 7.7848 135.108 7.3888 135.588 7.1088C136.076 6.8288 136.632 6.6888 137.256 6.6888C138.064 6.6888 138.728 6.8848 139.248 7.2768C139.776 7.6688 140.124 8.2128 140.292 8.9088H139.116C139.004 8.5088 138.784 8.1928 138.456 7.9608C138.136 7.7288 137.736 7.6128 137.256 7.6128C136.632 7.6128 136.128 7.8288 135.744 8.2608C135.36 8.6848 135.168 9.2888 135.168 10.0728C135.168 10.8648 135.36 11.4768 135.744 11.9088C136.128 12.3408 136.632 12.5568 137.256 12.5568C137.736 12.5568 138.136 12.4448 138.456 12.2208C138.776 11.9968 138.996 11.6768 139.116 11.2608H140.292C140.116 11.9328 139.764 12.4728 139.236 12.8808C138.708 13.2808 138.048 13.4808 137.256 13.4808C136.632 13.4808 136.076 13.3408 135.588 13.0608C135.108 12.7808 134.732 12.3848 134.46 11.8728C134.188 11.3608 134.052 10.7608 134.052 10.0728ZM141.341 10.0728C141.341 9.3928 141.477 8.8008 141.749 8.2968C142.021 7.7848 142.397 7.3888 142.877 7.1088C143.365 6.8288 143.921 6.6888 144.545 6.6888C145.353 6.6888 146.017 6.8848 146.537 7.2768C147.065 7.6688 147.413 8.2128 147.581 8.9088H146.405C146.293 8.5088 146.073 8.1928 145.745 7.9608C145.425 7.7288 145.025 7.6128 144.545 7.6128C143.921 7.6128 143.417 7.8288 143.033 8.2608C142.649 8.6848 142.457 9.2888 142.457 10.0728C142.457 10.8648 142.649 11.4768 143.033 11.9088C143.417 12.3408 143.921 12.5568 144.545 12.5568C145.025 12.5568 145.425 12.4448 145.745 12.2208C146.065 11.9968 146.285 11.6768 146.405 11.2608H147.581C147.405 11.9328 147.053 12.4728 146.525 12.8808C145.997 13.2808 145.337 13.4808 144.545 13.4808C143.921 13.4808 143.365 13.3408 142.877 13.0608C142.397 12.7808 142.021 12.3848 141.749 11.8728C141.477 11.3608 141.341 10.7608 141.341 10.0728ZM155.038 9.8328C155.038 10.0408 155.026 10.2608 155.002 10.4928H149.746C149.786 11.1408 150.006 11.6488 150.406 12.0168C150.814 12.3768 151.306 12.5568 151.882 12.5568C152.354 12.5568 152.746 12.4488 153.058 12.2328C153.378 12.0088 153.602 11.7128 153.73 11.3448H154.906C154.73 11.9768 154.378 12.4928 153.85 12.8928C153.322 13.2848 152.666 13.4808 151.882 13.4808C151.258 13.4808 150.698 13.3408 150.202 13.0608C149.714 12.7808 149.33 12.3848 149.05 11.8728C148.77 11.3528 148.63 10.7528 148.63 10.0728C148.63 9.3928 148.766 8.7968 149.038 8.2848C149.31 7.7728 149.69 7.3808 150.178 7.1088C150.674 6.8288 151.242 6.6888 151.882 6.6888C152.506 6.6888 153.058 6.8248 153.538 7.0968C154.018 7.3688 154.386 7.7448 154.642 8.2248C154.906 8.6968 155.038 9.2328 155.038 9.8328ZM153.91 9.6048C153.91 9.1888 153.818 8.8328 153.634 8.5368C153.45 8.2328 153.198 8.0048 152.878 7.8528C152.566 7.6928 152.218 7.6128 151.834 7.6128C151.282 7.6128 150.81 7.7888 150.418 8.1408C150.034 8.4928 149.814 8.9808 149.758 9.6048H153.91ZM157.572 8.0088C157.788 7.6328 158.108 7.3208 158.532 7.0728C158.964 6.8168 159.464 6.6888 160.032 6.6888C160.616 6.6888 161.144 6.8288 161.616 7.1088C162.096 7.3888 162.472 7.7848 162.744 8.2968C163.016 8.8008 163.152 9.3888 163.152 10.0608C163.152 10.7248 163.016 11.3168 162.744 11.8368C162.472 12.3568 162.096 12.7608 161.616 13.0488C161.144 13.3368 160.616 13.4808 160.032 13.4808C159.472 13.4808 158.976 13.3568 158.544 13.1088C158.12 12.8528 157.796 12.5368 157.572 12.1608V16.4928H156.48V6.7968H157.572V8.0088ZM162.036 10.0608C162.036 9.5648 161.936 9.1328 161.736 8.7648C161.536 8.3968 161.264 8.1168 160.92 7.9248C160.584 7.7328 160.212 7.6368 159.804 7.6368C159.404 7.6368 159.032 7.7368 158.688 7.9368C158.352 8.1288 158.08 8.4128 157.872 8.7888C157.672 9.1568 157.572 9.5848 157.572 10.0728C157.572 10.5688 157.672 11.0048 157.872 11.3808C158.08 11.7488 158.352 12.0328 158.688 12.2328C159.032 12.4248 159.404 12.5208 159.804 12.5208C160.212 12.5208 160.584 12.4248 160.92 12.2328C161.264 12.0328 161.536 11.7488 161.736 11.3808C161.936 11.0048 162.036 10.5648 162.036 10.0608ZM165.921 7.6968V11.5728C165.921 11.8928 165.989 12.1208 166.125 12.2568C166.261 12.3848 166.497 12.4488 166.833 12.4488H167.637V13.3728H166.653C166.045 13.3728 165.589 13.2328 165.285 12.9528C164.981 12.6728 164.829 12.2128 164.829 11.5728V7.6968H163.977V6.7968H164.829V5.1408H165.921V6.7968H167.637V7.6968H165.921ZM174.96 9.8328C174.96 10.0408 174.948 10.2608 174.924 10.4928H169.668C169.708 11.1408 169.928 11.6488 170.328 12.0168C170.736 12.3768 171.228 12.5568 171.804 12.5568C172.276 12.5568 172.668 12.4488 172.98 12.2328C173.3 12.0088 173.524 11.7128 173.652 11.3448H174.828C174.652 11.9768 174.3 12.4928 173.772 12.8928C173.244 13.2848 172.588 13.4808 171.804 13.4808C171.18 13.4808 170.62 13.3408 170.124 13.0608C169.636 12.7808 169.252 12.3848 168.972 11.8728C168.692 11.3528 168.552 10.7528 168.552 10.0728C168.552 9.3928 168.688 8.7968 168.96 8.2848C169.232 7.7728 169.612 7.3808 170.1 7.1088C170.596 6.8288 171.164 6.6888 171.804 6.6888C172.428 6.6888 172.98 6.8248 173.46 7.0968C173.94 7.3688 174.308 7.7448 174.564 8.2248C174.828 8.6968 174.96 9.2328 174.96 9.8328ZM173.832 9.6048C173.832 9.1888 173.74 8.8328 173.556 8.5368C173.372 8.2328 173.12 8.0048 172.8 7.8528C172.488 7.6928 172.14 7.6128 171.756 7.6128C171.204 7.6128 170.732 7.7888 170.34 8.1408C169.956 8.4928 169.736 8.9808 169.68 9.6048H173.832ZM172.932 4.9368L170.376 6.3048V5.4888L172.932 3.9888V4.9368ZM178.73 13.4808C178.226 13.4808 177.774 13.3968 177.374 13.2288C176.974 13.0528 176.658 12.8128 176.426 12.5088C176.194 12.1968 176.066 11.8408 176.042 11.4408H177.17C177.202 11.7688 177.354 12.0368 177.626 12.2448C177.906 12.4528 178.27 12.5568 178.718 12.5568C179.134 12.5568 179.462 12.4648 179.702 12.2808C179.942 12.0968 180.062 11.8648 180.062 11.5848C180.062 11.2968 179.934 11.0848 179.678 10.9488C179.422 10.8048 179.026 10.6648 178.49 10.5288C178.002 10.4008 177.602 10.2728 177.29 10.1448C176.986 10.0088 176.722 9.8128 176.498 9.5568C176.282 9.2928 176.174 8.9488 176.174 8.5248C176.174 8.1888 176.274 7.8808 176.474 7.6008C176.674 7.3208 176.958 7.1008 177.326 6.9408C177.694 6.7728 178.114 6.6888 178.586 6.6888C179.314 6.6888 179.902 6.8728 180.35 7.2408C180.798 7.6088 181.038 8.1128 181.07 8.7528H179.978C179.954 8.4088 179.814 8.1328 179.558 7.9248C179.31 7.7168 178.974 7.6128 178.55 7.6128C178.158 7.6128 177.846 7.6968 177.614 7.8648C177.382 8.0328 177.266 8.2528 177.266 8.5248C177.266 8.7408 177.334 8.9208 177.47 9.0648C177.614 9.2008 177.79 9.3128 177.998 9.4008C178.214 9.4808 178.51 9.5728 178.886 9.6768C179.358 9.8048 179.742 9.9328 180.038 10.0608C180.334 10.1808 180.586 10.3648 180.794 10.6128C181.01 10.8608 181.122 11.1848 181.13 11.5848C181.13 11.9448 181.03 12.2688 180.83 12.5568C180.63 12.8448 180.346 13.0728 179.978 13.2408C179.618 13.4008 179.202 13.4808 178.73 13.4808ZM186.218 13.4448C186.01 13.4448 185.834 13.3728 185.69 13.2288C185.546 13.0848 185.474 12.9088 185.474 12.7008C185.474 12.4928 185.546 12.3168 185.69 12.1728C185.834 12.0288 186.01 11.9568 186.218 11.9568C186.418 11.9568 186.586 12.0288 186.722 12.1728C186.866 12.3168 186.938 12.4928 186.938 12.7008C186.938 12.9088 186.866 13.0848 186.722 13.2288C186.586 13.3728 186.418 13.4448 186.218 13.4448ZM186.218 8.3088C186.01 8.3088 185.834 8.2368 185.69 8.0928C185.546 7.9488 185.474 7.7728 185.474 7.5648C185.474 7.3568 185.546 7.1808 185.69 7.0368C185.834 6.8928 186.01 6.8208 186.218 6.8208C186.418 6.8208 186.586 6.8928 186.722 7.0368C186.866 7.1808 186.938 7.3568 186.938 7.5648C186.938 7.7728 186.866 7.9488 186.722 8.0928C186.586 8.2368 186.418 8.3088 186.218 8.3088ZM191.972 13.4448C191.764 13.4448 191.588 13.3728 191.444 13.2288C191.3 13.0848 191.228 12.9088 191.228 12.7008C191.228 12.4928 191.3 12.3168 191.444 12.1728C191.588 12.0288 191.764 11.9568 191.972 11.9568C192.172 11.9568 192.34 12.0288 192.476 12.1728C192.62 12.3168 192.692 12.4928 192.692 12.7008C192.692 12.9088 192.62 13.0848 192.476 13.2288C192.34 13.3728 192.172 13.4448 191.972 13.4448ZM194.732 5.7288C194.524 5.7288 194.348 5.6568 194.204 5.5128C194.068 5.3688 194 5.1928 194 4.9848C194 4.7768 194.068 4.6008 194.204 4.4568C194.348 4.3128 194.524 4.2408 194.732 4.2408C194.94 4.2408 195.112 4.3128 195.248 4.4568C195.392 4.6008 195.464 4.7768 195.464 4.9848C195.464 5.1928 195.392 5.3688 195.248 5.5128C195.112 5.6568 194.94 5.7288 194.732 5.7288ZM195.272 14.8008C195.272 15.3848 195.124 15.8128 194.828 16.0848C194.532 16.3568 194.1 16.4928 193.532 16.4928H192.896V15.5688H193.352C193.656 15.5688 193.868 15.5088 193.988 15.3888C194.116 15.2688 194.18 15.0648 194.18 14.7768V6.7968H195.272V14.8008ZM198.212 8.0088C198.428 7.6328 198.748 7.3208 199.172 7.0728C199.604 6.8168 200.104 6.6888 200.672 6.6888C201.256 6.6888 201.784 6.8288 202.256 7.1088C202.736 7.3888 203.112 7.7848 203.384 8.2968C203.656 8.8008 203.792 9.3888 203.792 10.0608C203.792 10.7248 203.656 11.3168 203.384 11.8368C203.112 12.3568 202.736 12.7608 202.256 13.0488C201.784 13.3368 201.256 13.4808 200.672 13.4808C200.112 13.4808 199.616 13.3568 199.184 13.1088C198.76 12.8528 198.436 12.5368 198.212 12.1608V16.4928H197.12V6.7968H198.212V8.0088ZM202.676 10.0608C202.676 9.5648 202.576 9.1328 202.376 8.7648C202.176 8.3968 201.904 8.1168 201.56 7.9248C201.224 7.7328 200.852 7.6368 200.444 7.6368C200.044 7.6368 199.672 7.7368 199.328 7.9368C198.992 8.1288 198.72 8.4128 198.512 8.7888C198.312 9.1568 198.212 9.5848 198.212 10.0728C198.212 10.5688 198.312 11.0048 198.512 11.3808C198.72 11.7488 198.992 12.0328 199.328 12.2328C199.672 12.4248 200.044 12.5208 200.444 12.5208C200.852 12.5208 201.224 12.4248 201.56 12.2328C201.904 12.0328 202.176 11.7488 202.376 11.3808C202.576 11.0048 202.676 10.5648 202.676 10.0608ZM207.942 6.6888C208.51 6.6888 209.006 6.8128 209.43 7.0608C209.862 7.3088 210.182 7.6208 210.39 7.9968V6.7968H211.494V13.5168C211.494 14.1168 211.366 14.6488 211.11 15.1128C210.854 15.5848 210.486 15.9528 210.006 16.2168C209.534 16.4808 208.982 16.6128 208.35 16.6128C207.486 16.6128 206.766 16.4088 206.19 16.0008C205.614 15.5928 205.274 15.0368 205.17 14.3328H206.25C206.37 14.7328 206.618 15.0528 206.994 15.2928C207.37 15.5408 207.822 15.6648 208.35 15.6648C208.95 15.6648 209.438 15.4768 209.814 15.1008C210.198 14.7248 210.39 14.1968 210.39 13.5168V12.1368C210.174 12.5208 209.854 12.8408 209.43 13.0968C209.006 13.3528 208.51 13.4808 207.942 13.4808C207.358 13.4808 206.826 13.3368 206.346 13.0488C205.874 12.7608 205.502 12.3568 205.23 11.8368C204.958 11.3168 204.822 10.7248 204.822 10.0608C204.822 9.3888 204.958 8.8008 205.23 8.2968C205.502 7.7848 205.874 7.3888 206.346 7.1088C206.826 6.8288 207.358 6.6888 207.942 6.6888ZM210.39 10.0728C210.39 9.5768 210.29 9.1448 210.09 8.7768C209.89 8.4088 209.618 8.1288 209.274 7.9368C208.938 7.7368 208.566 7.6368 208.158 7.6368C207.75 7.6368 207.378 7.7328 207.042 7.9248C206.706 8.1168 206.438 8.3968 206.238 8.7648C206.038 9.1328 205.938 9.5648 205.938 10.0608C205.938 10.5648 206.038 11.0048 206.238 11.3808C206.438 11.7488 206.706 12.0328 207.042 12.2328C207.378 12.4248 207.75 12.5208 208.158 12.5208C208.566 12.5208 208.938 12.4248 209.274 12.2328C209.618 12.0328 209.89 11.7488 210.09 11.3808C210.29 11.0048 210.39 10.5688 210.39 10.0728ZM216.13 10.0608C216.13 9.3888 216.266 8.8008 216.538 8.2968C216.81 7.7848 217.182 7.3888 217.654 7.1088C218.134 6.8288 218.67 6.6888 219.262 6.6888C219.774 6.6888 220.25 6.8088 220.69 7.0488C221.13 7.2808 221.466 7.5888 221.698 7.9728V4.4928H222.802V13.3728H221.698V12.1368C221.482 12.5288 221.162 12.8528 220.738 13.1088C220.314 13.3568 219.818 13.4808 219.25 13.4808C218.666 13.4808 218.134 13.3368 217.654 13.0488C217.182 12.7608 216.81 12.3568 216.538 11.8368C216.266 11.3168 216.13 10.7248 216.13 10.0608ZM221.698 10.0728C221.698 9.5768 221.598 9.1448 221.398 8.7768C221.198 8.4088 220.926 8.1288 220.582 7.9368C220.246 7.7368 219.874 7.6368 219.466 7.6368C219.058 7.6368 218.686 7.7328 218.35 7.9248C218.014 8.1168 217.746 8.3968 217.546 8.7648C217.346 9.1328 217.246 9.5648 217.246 10.0608C217.246 10.5648 217.346 11.0048 217.546 11.3808C217.746 11.7488 218.014 12.0328 218.35 12.2328C218.686 12.4248 219.058 12.5208 219.466 12.5208C219.874 12.5208 220.246 12.4248 220.582 12.2328C220.926 12.0328 221.198 11.7488 221.398 11.3808C221.598 11.0048 221.698 10.5688 221.698 10.0728ZM230.648 9.8328C230.648 10.0408 230.636 10.2608 230.612 10.4928H225.356C225.396 11.1408 225.616 11.6488 226.016 12.0168C226.424 12.3768 226.916 12.5568 227.492 12.5568C227.964 12.5568 228.356 12.4488 228.668 12.2328C228.988 12.0088 229.212 11.7128 229.34 11.3448H230.516C230.34 11.9768 229.988 12.4928 229.46 12.8928C228.932 13.2848 228.276 13.4808 227.492 13.4808C226.868 13.4808 226.308 13.3408 225.812 13.0608C225.324 12.7808 224.94 12.3848 224.66 11.8728C224.38 11.3528 224.24 10.7528 224.24 10.0728C224.24 9.3928 224.376 8.7968 224.648 8.2848C224.92 7.7728 225.3 7.3808 225.788 7.1088C226.284 6.8288 226.852 6.6888 227.492 6.6888C228.116 6.6888 228.668 6.8248 229.148 7.0968C229.628 7.3688 229.996 7.7448 230.252 8.2248C230.516 8.6968 230.648 9.2328 230.648 9.8328ZM229.52 9.6048C229.52 9.1888 229.428 8.8328 229.244 8.5368C229.06 8.2328 228.808 8.0048 228.488 7.8528C228.176 7.6928 227.828 7.6128 227.444 7.6128C226.892 7.6128 226.42 7.7888 226.028 8.1408C225.644 8.4928 225.424 8.9808 225.368 9.6048H229.52ZM240.64 5.6448H236.428V8.3808C236.612 8.1248 236.884 7.9168 237.244 7.7568C237.604 7.5888 237.992 7.5048 238.408 7.5048C239.072 7.5048 239.612 7.6448 240.028 7.9248C240.444 8.1968 240.74 8.5528 240.916 8.9928C241.1 9.4248 241.192 9.8848 241.192 10.3728C241.192 10.9488 241.084 11.4648 240.868 11.9208C240.652 12.3768 240.32 12.7368 239.872 13.0008C239.432 13.2648 238.884 13.3968 238.228 13.3968C237.388 13.3968 236.708 13.1808 236.188 12.7488C235.668 12.3168 235.352 11.7408 235.24 11.0208H236.308C236.412 11.4768 236.632 11.8328 236.968 12.0888C237.304 12.3448 237.728 12.4728 238.24 12.4728C238.872 12.4728 239.348 12.2848 239.668 11.9088C239.988 11.5248 240.148 11.0208 240.148 10.3968C240.148 9.7728 239.988 9.2928 239.668 8.9568C239.348 8.6128 238.876 8.4408 238.252 8.4408C237.828 8.4408 237.456 8.5448 237.136 8.7528C236.824 8.9528 236.596 9.2288 236.452 9.5808H235.42V4.6848H240.64V5.6448ZM254.507 5.0688V13.3728H253.415V7.1808L250.655 13.3728H249.887L247.115 7.1688V13.3728H246.023V5.0688H247.199L250.271 11.9328L253.343 5.0688H254.507ZM259.227 13.4808C258.611 13.4808 258.051 13.3408 257.547 13.0608C257.051 12.7808 256.659 12.3848 256.371 11.8728C256.091 11.3528 255.951 10.7528 255.951 10.0728C255.951 9.4008 256.095 8.8088 256.383 8.2968C256.679 7.7768 257.079 7.3808 257.583 7.1088C258.087 6.8288 258.651 6.6888 259.275 6.6888C259.899 6.6888 260.463 6.8288 260.967 7.1088C261.471 7.3808 261.867 7.7728 262.155 8.2848C262.451 8.7968 262.599 9.3928 262.599 10.0728C262.599 10.7528 262.447 11.3528 262.143 11.8728C261.847 12.3848 261.443 12.7808 260.931 13.0608C260.419 13.3408 259.851 13.4808 259.227 13.4808ZM259.227 12.5208C259.619 12.5208 259.987 12.4288 260.331 12.2448C260.675 12.0608 260.951 11.7848 261.159 11.4168C261.375 11.0488 261.483 10.6008 261.483 10.0728C261.483 9.5448 261.379 9.0968 261.171 8.7288C260.963 8.3608 260.691 8.0888 260.355 7.9128C260.019 7.7288 259.655 7.6368 259.263 7.6368C258.863 7.6368 258.495 7.7288 258.159 7.9128C257.831 8.0888 257.567 8.3608 257.367 8.7288C257.167 9.0968 257.067 9.5448 257.067 10.0728C257.067 10.6088 257.163 11.0608 257.355 11.4288C257.555 11.7968 257.819 12.0728 258.147 12.2568C258.475 12.4328 258.835 12.5208 259.227 12.5208Z" fill="#EDF2F4"/>
<path fill-rule="evenodd" clip-rule="evenodd" d="M22.9641 28.78C20.6315 28.78 18.4135 29.2319 16.3924 30.0485C15.1411 30.5541 13.706 29.9756 13.1871 28.7563C12.6682 27.537 13.2619 26.1387 14.5133 25.6331C17.1195 24.58 19.9754 24 22.9641 24H30.673C32.0277 24 33.1259 25.07 33.1259 26.39C33.1259 27.71 32.0277 28.78 30.673 28.78H22.9641ZM43.638 26.39C43.638 25.07 44.7362 24 46.0908 24H61.5086C62.8633 24 63.9614 25.07 63.9614 26.39C63.9614 27.71 62.8633 28.78 61.5086 28.78H46.0908C44.7362 28.78 43.638 27.71 43.638 26.39ZM74.4736 26.39C74.4736 25.07 75.5717 24 76.9264 24H92.3442C93.6989 24 94.797 25.07 94.797 26.39C94.797 27.71 93.6989 28.78 92.3442 28.78H76.9264C75.5717 28.78 74.4736 27.71 74.4736 26.39ZM105.309 26.39C105.309 25.07 106.407 24 107.762 24H123.18C124.534 24 125.633 25.07 125.633 26.39C125.633 27.71 124.534 28.78 123.18 28.78H107.762C106.407 28.78 105.309 27.71 105.309 26.39ZM136.145 26.39C136.145 25.07 137.243 24 138.598 24H154.015C155.37 24 156.468 25.07 156.468 26.39C156.468 27.71 155.37 28.78 154.015 28.78H138.598C137.243 28.78 136.145 27.71 136.145 26.39ZM166.98 26.39C166.98 25.07 168.078 24 169.433 24H184.851C186.206 24 187.304 25.07 187.304 26.39C187.304 27.71 186.206 28.78 184.851 28.78H169.433C168.078 28.78 166.98 27.71 166.98 26.39ZM197.816 26.39C197.816 25.07 198.914 24 200.269 24H215.686C217.041 24 218.139 25.07 218.139 26.39C218.139 27.71 217.041 28.78 215.686 28.78H200.269C198.914 28.78 197.816 27.71 197.816 26.39ZM228.651 26.39C228.651 25.07 229.75 24 231.104 24H238.813C241.802 24 244.658 24.58 247.264 25.6331C248.515 26.1387 249.109 27.537 248.59 28.7563C248.071 29.9756 246.636 30.5541 245.385 30.0485C243.364 29.2319 241.146 28.78 238.813 28.78H231.104C229.75 28.78 228.651 27.71 228.651 26.39ZM5.77005 35.9833C7.02138 36.489 7.61513 37.8873 7.09622 39.1065C6.25813 41.0758 5.79433 43.2371 5.79433 45.5099V52.353C5.79433 53.673 4.69616 54.743 3.3415 54.743C1.98684 54.743 0.888672 53.673 0.888672 52.353V45.5099C0.888672 42.5978 1.48396 39.8151 2.56474 37.2755C3.08365 36.0563 4.51871 35.4777 5.77005 35.9833ZM256.007 35.9834C257.259 35.4777 258.694 36.0563 259.213 37.2756C260.293 39.8151 260.889 42.5978 260.889 45.5099V52.3531C260.889 53.673 259.79 54.7431 258.436 54.7431C257.081 54.7431 255.983 53.673 255.983 52.3531V45.5099C255.983 43.2371 255.519 41.0758 254.681 39.1066C254.162 37.8873 254.756 36.489 256.007 35.9834ZM3.3415 63.6493C4.69616 63.6493 5.79433 64.7193 5.79433 66.0393V79.7256C5.79433 81.0455 4.69616 82.1156 3.3415 82.1156C1.98684 82.1156 0.888672 81.0455 0.888672 79.7256V66.0393C0.888672 64.7193 1.98684 63.6493 3.3415 63.6493ZM258.436 63.6493C259.79 63.6493 260.889 64.7194 260.889 66.0393V79.7256C260.889 81.0455 259.79 82.1156 258.436 82.1156C257.081 82.1156 255.983 81.0455 255.983 79.7256V66.0393C255.983 64.7194 257.081 63.6493 258.436 63.6493ZM3.3415 91.0218C4.69616 91.0218 5.79433 92.0919 5.79433 93.4118V107.098C5.79433 108.418 4.69616 109.488 3.3415 109.488C1.98684 109.488 0.888672 108.418 0.888672 107.098V93.4118C0.888672 92.0919 1.98684 91.0218 3.3415 91.0218ZM258.436 91.0219C259.79 91.0219 260.889 92.0919 260.889 93.4118V107.098C260.889 108.418 259.79 109.488 258.436 109.488C257.081 109.488 255.983 108.418 255.983 107.098V93.4118C255.983 92.0919 257.081 91.0219 258.436 91.0219ZM3.3415 118.394C4.69616 118.394 5.79433 119.464 5.79433 120.784V134.471C5.79433 135.791 4.69616 136.861 3.3415 136.861C1.98684 136.861 0.888672 135.791 0.888672 134.471V120.784C0.888672 119.464 1.98684 118.394 3.3415 118.394ZM258.436 118.394C259.79 118.394 260.889 119.464 260.889 120.784V134.471C260.889 135.791 259.79 136.861 258.436 136.861C257.081 136.861 255.983 135.791 255.983 134.471V120.784C255.983 119.464 257.081 118.394 258.436 118.394ZM258.436 145.767C259.79 145.767 260.889 146.837 260.889 148.157V161.843C260.889 163.163 259.79 164.233 258.436 164.233C257.081 164.233 255.983 163.163 255.983 161.843V148.157C255.983 146.837 257.081 145.767 258.436 145.767ZM3.3415 145.767C4.69616 145.767 5.79433 146.837 5.79433 148.157V161.843C5.79433 163.163 4.69616 164.233 3.3415 164.233C1.98684 164.233 0.888672 163.163 0.888672 161.843V148.157C0.888672 146.837 1.98684 145.767 3.3415 145.767ZM3.3415 173.139C4.69616 173.139 5.79433 174.209 5.79433 175.529V189.216C5.79433 190.536 4.69616 191.606 3.3415 191.606C1.98684 191.606 0.888672 190.536 0.888672 189.216V175.529C0.888672 174.209 1.98684 173.139 3.3415 173.139ZM258.436 173.139C259.79 173.139 260.889 174.209 260.889 175.529V189.216C260.889 190.536 259.79 191.606 258.436 191.606C257.081 191.606 255.983 190.536 255.983 189.216V175.529C255.983 174.209 257.081 173.139 258.436 173.139ZM3.3415 200.512C4.69616 200.512 5.79433 201.582 5.79433 202.902V216.588C5.79433 217.908 4.69616 218.978 3.3415 218.978C1.98684 218.978 0.888672 217.908 0.888672 216.588V202.902C0.888672 201.582 1.98684 200.512 3.3415 200.512ZM258.436 200.512C259.79 200.512 260.889 201.582 260.889 202.902V216.588C260.889 217.908 259.79 218.978 258.436 218.978C257.081 218.978 255.983 217.908 255.983 216.588V202.902C255.983 201.582 257.081 200.512 258.436 200.512ZM3.3415 227.884C4.69616 227.884 5.79433 228.954 5.79433 230.274V243.961C5.79433 245.281 4.69616 246.351 3.3415 246.351C1.98684 246.351 0.888672 245.281 0.888672 243.961V230.274C0.888672 228.954 1.98684 227.884 3.3415 227.884ZM258.436 227.884C259.79 227.884 260.889 228.954 260.889 230.274V243.961C260.889 245.281 259.79 246.351 258.436 246.351C257.081 246.351 255.983 245.281 255.983 243.961V230.274C255.983 228.954 257.081 227.884 258.436 227.884ZM3.3415 255.257C4.69616 255.257 5.79433 256.327 5.79433 257.647V264.49C5.79433 266.763 6.25813 268.924 7.09622 270.893C7.61513 272.113 7.02138 273.511 5.77004 274.017C4.51871 274.522 3.08364 273.944 2.56473 272.724C1.48396 270.185 0.888672 267.402 0.888672 264.49V257.647C0.888672 256.327 1.98684 255.257 3.3415 255.257ZM258.436 255.257C259.79 255.257 260.889 256.327 260.889 257.647V264.49C260.889 267.402 260.293 270.185 259.213 272.724C258.694 273.944 257.259 274.522 256.007 274.017C254.756 273.511 254.162 272.113 254.681 270.893C255.519 268.924 255.983 266.763 255.983 264.49V257.647C255.983 256.327 257.081 255.257 258.436 255.257ZM13.1871 281.244C13.706 280.024 15.1411 279.446 16.3924 279.951C18.4135 280.768 20.6315 281.22 22.9641 281.22H30.6731C32.0277 281.22 33.1259 282.29 33.1259 283.61C33.1259 284.93 32.0277 286 30.6731 286H22.9641C19.9754 286 17.1195 285.42 14.5133 284.367C13.2619 283.861 12.6682 282.463 13.1871 281.244ZM248.59 281.244C249.109 282.463 248.515 283.861 247.264 284.367C244.658 285.42 241.802 286 238.813 286H231.104C229.75 286 228.651 284.93 228.651 283.61C228.651 282.29 229.75 281.22 231.104 281.22H238.813C241.146 281.22 243.364 280.768 245.385 279.951C246.636 279.446 248.071 280.024 248.59 281.244ZM43.638 283.61C43.638 282.29 44.7362 281.22 46.0909 281.22H61.5086C62.8633 281.22 63.9615 282.29 63.9615 283.61C63.9615 284.93 62.8633 286 61.5086 286H46.0909C44.7362 286 43.638 284.93 43.638 283.61ZM74.4736 283.61C74.4736 282.29 75.5718 281.22 76.9264 281.22H92.3442C93.6989 281.22 94.797 282.29 94.797 283.61C94.797 284.93 93.6989 286 92.3442 286H76.9264C75.5718 286 74.4736 284.93 74.4736 283.61ZM105.309 283.61C105.309 282.29 106.407 281.22 107.762 281.22H123.18C124.534 281.22 125.633 282.29 125.633 283.61C125.633 284.93 124.534 286 123.18 286H107.762C106.407 286 105.309 284.93 105.309 283.61ZM136.145 283.61C136.145 282.29 137.243 281.22 138.598 281.22H154.015C155.37 281.22 156.468 282.29 156.468 283.61C156.468 284.93 155.37 286 154.015 286H138.598C137.243 286 136.145 284.93 136.145 283.61ZM166.98 283.61C166.98 282.29 168.078 281.22 169.433 281.22H184.851C186.206 281.22 187.304 282.29 187.304 283.61C187.304 284.93 186.206 286 184.851 286H169.433C168.078 286 166.98 284.93 166.98 283.61ZM197.816 283.61C197.816 282.29 198.914 281.22 200.269 281.22H215.687C217.041 281.22 218.139 282.29 218.139 283.61C218.139 284.93 217.041 286 215.687 286H200.269C198.914 286 197.816 284.93 197.816 283.61Z" fill="#EDF2F4"/>
<path d="M152.554 101.632C151.891 101.632 151.255 101.905 150.786 102.39C150.317 102.875 150.054 103.533 150.054 104.22V105.203L146.354 101.374C145.047 100.032 143.282 99.2797 141.441 99.2797C139.601 99.2797 137.835 100.032 136.529 101.374L134.779 103.185L128.579 96.7686C127.254 95.4637 125.495 94.7359 123.666 94.7359C121.837 94.7359 120.078 95.4637 118.754 96.7686L115.054 100.598V86.1098C115.054 85.4236 115.317 84.7656 115.786 84.2804C116.255 83.7952 116.891 83.5226 117.554 83.5226H135.054C135.717 83.5226 136.353 83.2501 136.821 82.7649C137.29 82.2797 137.554 81.6217 137.554 80.9355C137.554 80.2494 137.29 79.5914 136.821 79.1062C136.353 78.621 135.717 78.3484 135.054 78.3484H117.554C115.565 78.3484 113.657 79.1661 112.25 80.6217C110.844 82.0772 110.054 84.0513 110.054 86.1098V117.155C110.054 119.213 110.844 121.188 112.25 122.643C113.657 124.099 115.565 124.916 117.554 124.916H147.554C149.543 124.916 151.45 124.099 152.857 122.643C154.264 121.188 155.054 119.213 155.054 117.155V104.22C155.054 103.533 154.79 102.875 154.321 102.39C153.853 101.905 153.217 101.632 152.554 101.632ZM117.554 119.742C116.891 119.742 116.255 119.47 115.786 118.984C115.317 118.499 115.054 117.841 115.054 117.155V107.919L122.304 100.416C122.671 100.054 123.159 99.8522 123.666 99.8522C124.174 99.8522 124.661 100.054 125.029 100.416L132.954 108.618L143.704 119.742H117.554ZM150.054 117.155C150.05 117.65 149.892 118.131 149.604 118.526L138.329 106.807L140.079 104.996C140.258 104.806 140.472 104.656 140.708 104.553C140.944 104.451 141.198 104.398 141.454 104.398C141.71 104.398 141.963 104.451 142.199 104.553C142.436 104.656 142.649 104.806 142.829 104.996L150.054 112.524V117.155ZM161.829 79.0987L154.329 71.3374C154.091 71.1018 153.811 70.9172 153.504 70.7941C152.895 70.5353 152.212 70.5353 151.604 70.7941C151.297 70.9172 151.016 71.1018 150.779 71.3374L143.279 79.0987C143.046 79.3399 142.861 79.6263 142.735 79.9414C142.608 80.2566 142.543 80.5944 142.543 80.9355C142.543 81.6245 142.808 82.2852 143.279 82.7724C143.749 83.2595 144.388 83.5332 145.054 83.5332C145.719 83.5332 146.358 83.2595 146.829 82.7724L150.054 79.4091V93.8711C150.054 94.5572 150.317 95.2153 150.786 95.7004C151.255 96.1856 151.891 96.4582 152.554 96.4582C153.217 96.4582 153.853 96.1856 154.321 95.7004C154.79 95.2153 155.054 94.5572 155.054 93.8711V79.4091L158.279 82.7724C158.511 83.0149 158.788 83.2073 159.092 83.3387C159.397 83.47 159.724 83.5376 160.054 83.5376C160.384 83.5376 160.711 83.47 161.015 83.3387C161.32 83.2073 161.596 83.0149 161.829 82.7724C162.063 82.5319 162.249 82.2457 162.376 81.9305C162.503 81.6152 162.568 81.2771 162.568 80.9355C162.568 80.594 162.503 80.2559 162.376 79.9406C162.249 79.6253 162.063 79.3392 161.829 79.0987Z" fill="#EDF2F4"/>
<path d="M73.3392 149.52C73.0992 149.08 72.7692 148.745 72.3492 148.515C71.9292 148.285 71.4392 148.17 70.8792 148.17C70.2592 148.17 69.7092 148.31 69.2292 148.59C68.7492 148.87 68.3742 149.27 68.1042 149.79C67.8342 150.31 67.6992 150.91 67.6992 151.59C67.6992 152.29 67.8342 152.9 68.1042 153.42C68.3842 153.94 68.7692 154.34 69.2592 154.62C69.7492 154.9 70.3192 155.04 70.9692 155.04C71.7692 155.04 72.4242 154.83 72.9342 154.41C73.4442 153.98 73.7792 153.385 73.9392 152.625H70.3392V151.02H76.0092V152.85C75.8692 153.58 75.5692 154.255 75.1092 154.875C74.6492 155.495 74.0542 155.995 73.3242 156.375C72.6042 156.745 71.7942 156.93 70.8942 156.93C69.8842 156.93 68.9692 156.705 68.1492 156.255C67.3392 155.795 66.6992 155.16 66.2292 154.35C65.7692 153.54 65.5392 152.62 65.5392 151.59C65.5392 150.56 65.7692 149.64 66.2292 148.83C66.6992 148.01 67.3392 147.375 68.1492 146.925C68.9692 146.465 69.8792 146.235 70.8792 146.235C72.0592 146.235 73.0842 146.525 73.9542 147.105C74.8242 147.675 75.4242 148.48 75.7542 149.52H73.3392ZM79.6628 145.74V156.84H77.5628V145.74H79.6628ZM82.8026 147.54C82.4326 147.54 82.1226 147.425 81.8726 147.195C81.6326 146.955 81.5126 146.66 81.5126 146.31C81.5126 145.96 81.6326 145.67 81.8726 145.44C82.1226 145.2 82.4326 145.08 82.8026 145.08C83.1726 145.08 83.4776 145.2 83.7176 145.44C83.9676 145.67 84.0926 145.96 84.0926 146.31C84.0926 146.66 83.9676 146.955 83.7176 147.195C83.4776 147.425 83.1726 147.54 82.8026 147.54ZM83.8376 148.53V156.84H81.7376V148.53H83.8376ZM89.0924 156.975C88.4124 156.975 87.8024 156.855 87.2624 156.615C86.7224 156.365 86.2924 156.03 85.9724 155.61C85.6624 155.19 85.4924 154.725 85.4624 154.215H87.5774C87.6174 154.535 87.7724 154.8 88.0424 155.01C88.3224 155.22 88.6674 155.325 89.0774 155.325C89.4774 155.325 89.7874 155.245 90.0074 155.085C90.2374 154.925 90.3524 154.72 90.3524 154.47C90.3524 154.2 90.2124 154 89.9324 153.87C89.6624 153.73 89.2274 153.58 88.6274 153.42C88.0074 153.27 87.4974 153.115 87.0974 152.955C86.7074 152.795 86.3674 152.55 86.0774 152.22C85.7974 151.89 85.6574 151.445 85.6574 150.885C85.6574 150.425 85.7874 150.005 86.0474 149.625C86.3174 149.245 86.6974 148.945 87.1874 148.725C87.6874 148.505 88.2724 148.395 88.9424 148.395C89.9324 148.395 90.7224 148.645 91.3124 149.145C91.9024 149.635 92.2274 150.3 92.2874 151.14H90.2774C90.2474 150.81 90.1074 150.55 89.8574 150.36C89.6174 150.16 89.2924 150.06 88.8824 150.06C88.5024 150.06 88.2074 150.13 87.9974 150.27C87.7974 150.41 87.6974 150.605 87.6974 150.855C87.6974 151.135 87.8374 151.35 88.1174 151.5C88.3974 151.64 88.8324 151.785 89.4224 151.935C90.0224 152.085 90.5174 152.24 90.9074 152.4C91.2974 152.56 91.6324 152.81 91.9124 153.15C92.2024 153.48 92.3524 153.92 92.3624 154.47C92.3624 154.95 92.2274 155.38 91.9574 155.76C91.6974 156.14 91.3174 156.44 90.8174 156.66C90.3274 156.87 89.7524 156.975 89.0924 156.975ZM97.2663 156.975C96.5863 156.975 95.9763 156.855 95.4363 156.615C94.8963 156.365 94.4663 156.03 94.1463 155.61C93.8363 155.19 93.6663 154.725 93.6363 154.215H95.7513C95.7913 154.535 95.9463 154.8 96.2163 155.01C96.4963 155.22 96.8413 155.325 97.2513 155.325C97.6513 155.325 97.9613 155.245 98.1813 155.085C98.4113 154.925 98.5263 154.72 98.5263 154.47C98.5263 154.2 98.3863 154 98.1063 153.87C97.8363 153.73 97.4013 153.58 96.8013 153.42C96.1813 153.27 95.6713 153.115 95.2713 152.955C94.8813 152.795 94.5413 152.55 94.2513 152.22C93.9713 151.89 93.8313 151.445 93.8313 150.885C93.8313 150.425 93.9613 150.005 94.2213 149.625C94.4913 149.245 94.8713 148.945 95.3613 148.725C95.8613 148.505 96.4463 148.395 97.1163 148.395C98.1063 148.395 98.8963 148.645 99.4863 149.145C100.076 149.635 100.401 150.3 100.461 151.14H98.4513C98.4213 150.81 98.2813 150.55 98.0313 150.36C97.7913 150.16 97.4663 150.06 97.0563 150.06C96.6763 150.06 96.3813 150.13 96.1713 150.27C95.9713 150.41 95.8713 150.605 95.8713 150.855C95.8713 151.135 96.0113 151.35 96.2913 151.5C96.5713 151.64 97.0063 151.785 97.5963 151.935C98.1963 152.085 98.6913 152.24 99.0813 152.4C99.4713 152.56 99.8063 152.81 100.086 153.15C100.376 153.48 100.526 153.92 100.536 154.47C100.536 154.95 100.401 155.38 100.131 155.76C99.8713 156.14 99.4913 156.44 98.9913 156.66C98.5013 156.87 97.9263 156.975 97.2663 156.975ZM109.985 152.505C109.985 152.805 109.965 153.075 109.925 153.315H103.85C103.9 153.915 104.11 154.385 104.48 154.725C104.85 155.065 105.305 155.235 105.845 155.235C106.625 155.235 107.18 154.9 107.51 154.23H109.775C109.535 155.03 109.075 155.69 108.395 156.21C107.715 156.72 106.88 156.975 105.89 156.975C105.09 156.975 104.37 156.8 103.73 156.45C103.1 156.09 102.605 155.585 102.245 154.935C101.895 154.285 101.72 153.535 101.72 152.685C101.72 151.825 101.895 151.07 102.245 150.42C102.595 149.77 103.085 149.27 103.715 148.92C104.345 148.57 105.07 148.395 105.89 148.395C106.68 148.395 107.385 148.565 108.005 148.905C108.635 149.245 109.12 149.73 109.46 150.36C109.81 150.98 109.985 151.695 109.985 152.505ZM107.81 151.905C107.8 151.365 107.605 150.935 107.225 150.615C106.845 150.285 106.38 150.12 105.83 150.12C105.31 150.12 104.87 150.28 104.51 150.6C104.16 150.91 103.945 151.345 103.865 151.905H107.81ZM113.438 155.115H117.143V156.84H111.053V155.145L114.683 150.255H111.068V148.53H117.098V150.225L113.438 155.115ZM121.803 152.655C121.803 151.815 121.968 151.07 122.298 150.42C122.638 149.77 123.098 149.27 123.678 148.92C124.258 148.57 124.903 148.395 125.613 148.395C126.153 148.395 126.668 148.515 127.158 148.755C127.648 148.985 128.038 149.295 128.328 149.685V145.74H130.458V156.84H128.328V155.61C128.068 156.02 127.703 156.35 127.233 156.6C126.763 156.85 126.218 156.975 125.598 156.975C124.898 156.975 124.258 156.795 123.678 156.435C123.098 156.075 122.638 155.57 122.298 154.92C121.968 154.26 121.803 153.505 121.803 152.655ZM128.343 152.685C128.343 152.175 128.243 151.74 128.043 151.38C127.843 151.01 127.573 150.73 127.233 150.54C126.893 150.34 126.528 150.24 126.138 150.24C125.748 150.24 125.388 150.335 125.058 150.525C124.728 150.715 124.458 150.995 124.248 151.365C124.048 151.725 123.948 152.155 123.948 152.655C123.948 153.155 124.048 153.595 124.248 153.975C124.458 154.345 124.728 154.63 125.058 154.83C125.398 155.03 125.758 155.13 126.138 155.13C126.528 155.13 126.893 155.035 127.233 154.845C127.573 154.645 127.843 154.365 128.043 154.005C128.243 153.635 128.343 153.195 128.343 152.685ZM140.234 152.505C140.234 152.805 140.214 153.075 140.174 153.315H134.099C134.149 153.915 134.359 154.385 134.729 154.725C135.099 155.065 135.554 155.235 136.094 155.235C136.874 155.235 137.429 154.9 137.759 154.23H140.024C139.784 155.03 139.324 155.69 138.644 156.21C137.964 156.72 137.129 156.975 136.139 156.975C135.339 156.975 134.619 156.8 133.979 156.45C133.349 156.09 132.854 155.585 132.494 154.935C132.144 154.285 131.969 153.535 131.969 152.685C131.969 151.825 132.144 151.07 132.494 150.42C132.844 149.77 133.334 149.27 133.964 148.92C134.594 148.57 135.319 148.395 136.139 148.395C136.929 148.395 137.634 148.565 138.254 148.905C138.884 149.245 139.369 149.73 139.709 150.36C140.059 150.98 140.234 151.695 140.234 152.505ZM138.059 151.905C138.049 151.365 137.854 150.935 137.474 150.615C137.094 150.285 136.629 150.12 136.079 150.12C135.559 150.12 135.119 150.28 134.759 150.6C134.409 150.91 134.194 151.345 134.114 151.905H138.059ZM137.744 146.34L134.294 147.915V146.415L137.744 144.63V146.34ZM143.867 149.73C144.137 149.35 144.507 149.035 144.977 148.785C145.457 148.525 146.002 148.395 146.612 148.395C147.322 148.395 147.962 148.57 148.532 148.92C149.112 149.27 149.567 149.77 149.897 150.42C150.237 151.06 150.407 151.805 150.407 152.655C150.407 153.505 150.237 154.26 149.897 154.92C149.567 155.57 149.112 156.075 148.532 156.435C147.962 156.795 147.322 156.975 146.612 156.975C146.002 156.975 145.462 156.85 144.992 156.6C144.532 156.35 144.157 156.035 143.867 155.655V160.8H141.767V148.53H143.867V149.73ZM148.262 152.655C148.262 152.155 148.157 151.725 147.947 151.365C147.747 150.995 147.477 150.715 147.137 150.525C146.807 150.335 146.447 150.24 146.057 150.24C145.677 150.24 145.317 150.34 144.977 150.54C144.647 150.73 144.377 151.01 144.167 151.38C143.967 151.75 143.867 152.185 143.867 152.685C143.867 153.185 143.967 153.62 144.167 153.99C144.377 154.36 144.647 154.645 144.977 154.845C145.317 155.035 145.677 155.13 146.057 155.13C146.447 155.13 146.807 155.03 147.137 154.83C147.477 154.63 147.747 154.345 147.947 153.975C148.157 153.605 148.262 153.165 148.262 152.655ZM155.623 156.975C154.823 156.975 154.103 156.8 153.463 156.45C152.823 156.09 152.318 155.585 151.948 154.935C151.588 154.285 151.408 153.535 151.408 152.685C151.408 151.835 151.593 151.085 151.963 150.435C152.343 149.785 152.858 149.285 153.508 148.935C154.158 148.575 154.883 148.395 155.683 148.395C156.483 148.395 157.208 148.575 157.858 148.935C158.508 149.285 159.018 149.785 159.388 150.435C159.768 151.085 159.958 151.835 159.958 152.685C159.958 153.535 159.763 154.285 159.373 154.935C158.993 155.585 158.473 156.09 157.813 156.45C157.163 156.8 156.433 156.975 155.623 156.975ZM155.623 155.145C156.003 155.145 156.358 155.055 156.688 154.875C157.028 154.685 157.298 154.405 157.498 154.035C157.698 153.665 157.798 153.215 157.798 152.685C157.798 151.895 157.588 151.29 157.168 150.87C156.758 150.44 156.253 150.225 155.653 150.225C155.053 150.225 154.548 150.44 154.138 150.87C153.738 151.29 153.538 151.895 153.538 152.685C153.538 153.475 153.733 154.085 154.123 154.515C154.523 154.935 155.023 155.145 155.623 155.145ZM164.678 156.975C163.998 156.975 163.388 156.855 162.848 156.615C162.308 156.365 161.878 156.03 161.558 155.61C161.248 155.19 161.078 154.725 161.048 154.215H163.163C163.203 154.535 163.358 154.8 163.628 155.01C163.908 155.22 164.253 155.325 164.663 155.325C165.063 155.325 165.373 155.245 165.593 155.085C165.823 154.925 165.938 154.72 165.938 154.47C165.938 154.2 165.798 154 165.518 153.87C165.248 153.73 164.813 153.58 164.213 153.42C163.593 153.27 163.083 153.115 162.683 152.955C162.293 152.795 161.953 152.55 161.663 152.22C161.383 151.89 161.243 151.445 161.243 150.885C161.243 150.425 161.373 150.005 161.633 149.625C161.903 149.245 162.283 148.945 162.773 148.725C163.273 148.505 163.858 148.395 164.528 148.395C165.518 148.395 166.308 148.645 166.898 149.145C167.488 149.635 167.813 150.3 167.873 151.14H165.863C165.833 150.81 165.693 150.55 165.443 150.36C165.203 150.16 164.878 150.06 164.468 150.06C164.088 150.06 163.793 150.13 163.583 150.27C163.383 150.41 163.283 150.605 163.283 150.855C163.283 151.135 163.423 151.35 163.703 151.5C163.983 151.64 164.418 151.785 165.008 151.935C165.608 152.085 166.103 152.24 166.493 152.4C166.883 152.56 167.218 152.81 167.498 153.15C167.788 153.48 167.938 153.92 167.948 154.47C167.948 154.95 167.813 155.38 167.543 155.76C167.283 156.14 166.903 156.44 166.403 156.66C165.913 156.87 165.338 156.975 164.678 156.975ZM177.397 152.505C177.397 152.805 177.377 153.075 177.337 153.315H171.262C171.312 153.915 171.522 154.385 171.892 154.725C172.262 155.065 172.717 155.235 173.257 155.235C174.037 155.235 174.592 154.9 174.922 154.23H177.187C176.947 155.03 176.487 155.69 175.807 156.21C175.127 156.72 174.292 156.975 173.302 156.975C172.502 156.975 171.782 156.8 171.142 156.45C170.512 156.09 170.017 155.585 169.657 154.935C169.307 154.285 169.132 153.535 169.132 152.685C169.132 151.825 169.307 151.07 169.657 150.42C170.007 149.77 170.497 149.27 171.127 148.92C171.757 148.57 172.482 148.395 173.302 148.395C174.092 148.395 174.797 148.565 175.417 148.905C176.047 149.245 176.532 149.73 176.872 150.36C177.222 150.98 177.397 151.695 177.397 152.505ZM175.222 151.905C175.212 151.365 175.017 150.935 174.637 150.615C174.257 150.285 173.792 150.12 173.242 150.12C172.722 150.12 172.282 150.28 171.922 150.6C171.572 150.91 171.357 151.345 171.277 151.905H175.222ZM180.85 155.115H184.555V156.84H178.465V155.145L182.095 150.255H178.48V148.53H184.51V150.225L180.85 155.115ZM190.82 147.54C190.45 147.54 190.14 147.425 189.89 147.195C189.65 146.955 189.53 146.66 189.53 146.31C189.53 145.96 189.65 145.67 189.89 145.44C190.14 145.2 190.45 145.08 190.82 145.08C191.19 145.08 191.495 145.2 191.735 145.44C191.985 145.67 192.11 145.96 192.11 146.31C192.11 146.66 191.985 146.955 191.735 147.195C191.495 147.425 191.19 147.54 190.82 147.54ZM191.855 148.53V156.84H189.755V148.53H191.855ZM193.39 152.685C193.39 151.825 193.565 151.075 193.915 150.435C194.265 149.785 194.75 149.285 195.37 148.935C195.99 148.575 196.7 148.395 197.5 148.395C198.53 148.395 199.38 148.655 200.05 149.175C200.73 149.685 201.185 150.405 201.415 151.335H199.15C199.03 150.975 198.825 150.695 198.535 150.495C198.255 150.285 197.905 150.18 197.485 150.18C196.885 150.18 196.41 150.4 196.06 150.84C195.71 151.27 195.535 151.885 195.535 152.685C195.535 153.475 195.71 154.09 196.06 154.53C196.41 154.96 196.885 155.175 197.485 155.175C198.335 155.175 198.89 154.795 199.15 154.035H201.415C201.185 154.935 200.73 155.65 200.05 156.18C199.37 156.71 198.52 156.975 197.5 156.975C196.7 156.975 195.99 156.8 195.37 156.45C194.75 156.09 194.265 155.59 193.915 154.95C193.565 154.3 193.39 153.545 193.39 152.685ZM204.018 147.54C203.648 147.54 203.338 147.425 203.088 147.195C202.848 146.955 202.728 146.66 202.728 146.31C202.728 145.96 202.848 145.67 203.088 145.44C203.338 145.2 203.648 145.08 204.018 145.08C204.388 145.08 204.693 145.2 204.933 145.44C205.183 145.67 205.308 145.96 205.308 146.31C205.308 146.66 205.183 146.955 204.933 147.195C204.693 147.425 204.388 147.54 204.018 147.54ZM205.053 148.53V156.84H202.953V148.53H205.053Z" fill="#EDF2F4"/>
<path d="M130.199 179.975C129.429 179.975 128.729 179.8 128.099 179.45C127.479 179.1 126.989 178.605 126.629 177.965C126.279 177.315 126.104 176.565 126.104 175.715C126.104 174.875 126.284 174.135 126.644 173.495C127.014 172.845 127.514 172.35 128.144 172.01C128.774 171.66 129.479 171.485 130.259 171.485C131.039 171.485 131.744 171.66 132.374 172.01C133.004 172.35 133.499 172.84 133.859 173.48C134.229 174.12 134.414 174.865 134.414 175.715C134.414 176.565 134.224 177.315 133.844 177.965C133.474 178.605 132.969 179.1 132.329 179.45C131.689 179.8 130.979 179.975 130.199 179.975ZM130.199 178.775C130.689 178.775 131.149 178.66 131.579 178.43C132.009 178.2 132.354 177.855 132.614 177.395C132.884 176.935 133.019 176.375 133.019 175.715C133.019 175.055 132.889 174.495 132.629 174.035C132.369 173.575 132.029 173.235 131.609 173.015C131.189 172.785 130.734 172.67 130.244 172.67C129.744 172.67 129.284 172.785 128.864 173.015C128.454 173.235 128.124 173.575 127.874 174.035C127.624 174.495 127.499 175.055 127.499 175.715C127.499 176.385 127.619 176.95 127.859 177.41C128.109 177.87 128.439 178.215 128.849 178.445C129.259 178.665 129.709 178.775 130.199 178.775ZM143.499 171.62V179.84H142.134V178.625C141.874 179.045 141.509 179.375 141.039 179.615C140.579 179.845 140.069 179.96 139.509 179.96C138.869 179.96 138.294 179.83 137.784 179.57C137.274 179.3 136.869 178.9 136.569 178.37C136.279 177.84 136.134 177.195 136.134 176.435V171.62H137.484V176.255C137.484 177.065 137.689 177.69 138.099 178.13C138.509 178.56 139.069 178.775 139.779 178.775C140.509 178.775 141.084 178.55 141.504 178.1C141.924 177.65 142.134 176.995 142.134 176.135V171.62H143.499Z" fill="#EDF2F4"/>
<path d="M51.948 202.945C51.258 202.945 50.638 202.825 50.088 202.585C49.548 202.335 49.123 201.995 48.813 201.565C48.503 201.125 48.343 200.62 48.333 200.05H49.788C49.838 200.54 50.038 200.955 50.388 201.295C50.748 201.625 51.268 201.79 51.948 201.79C52.598 201.79 53.108 201.63 53.478 201.31C53.858 200.98 54.048 200.56 54.048 200.05C54.048 199.65 53.938 199.325 53.718 199.075C53.498 198.825 53.223 198.635 52.893 198.505C52.563 198.375 52.118 198.235 51.558 198.085C50.868 197.905 50.313 197.725 49.893 197.545C49.483 197.365 49.128 197.085 48.828 196.705C48.538 196.315 48.393 195.795 48.393 195.145C48.393 194.575 48.538 194.07 48.828 193.63C49.118 193.19 49.523 192.85 50.043 192.61C50.573 192.37 51.178 192.25 51.858 192.25C52.838 192.25 53.638 192.495 54.258 192.985C54.888 193.475 55.243 194.125 55.323 194.935H53.823C53.773 194.535 53.563 194.185 53.193 193.885C52.823 193.575 52.333 193.42 51.723 193.42C51.153 193.42 50.688 193.57 50.328 193.87C49.968 194.16 49.788 194.57 49.788 195.1C49.788 195.48 49.893 195.79 50.103 196.03C50.323 196.27 50.588 196.455 50.898 196.585C51.218 196.705 51.663 196.845 52.233 197.005C52.923 197.195 53.478 197.385 53.898 197.575C54.318 197.755 54.678 198.04 54.978 198.43C55.278 198.81 55.428 199.33 55.428 199.99C55.428 200.5 55.293 200.98 55.023 201.43C54.753 201.88 54.353 202.245 53.823 202.525C53.293 202.805 52.668 202.945 51.948 202.945ZM64.9367 198.415C64.9367 198.675 64.9217 198.95 64.8917 199.24H58.3217C58.3717 200.05 58.6467 200.685 59.1467 201.145C59.6567 201.595 60.2717 201.82 60.9917 201.82C61.5817 201.82 62.0717 201.685 62.4617 201.415C62.8617 201.135 63.1417 200.765 63.3017 200.305H64.7717C64.5517 201.095 64.1117 201.74 63.4517 202.24C62.7917 202.73 61.9717 202.975 60.9917 202.975C60.2117 202.975 59.5117 202.8 58.8917 202.45C58.2817 202.1 57.8017 201.605 57.4517 200.965C57.1017 200.315 56.9267 199.565 56.9267 198.715C56.9267 197.865 57.0967 197.12 57.4367 196.48C57.7767 195.84 58.2517 195.35 58.8617 195.01C59.4817 194.66 60.1917 194.485 60.9917 194.485C61.7717 194.485 62.4617 194.655 63.0617 194.995C63.6617 195.335 64.1217 195.805 64.4417 196.405C64.7717 196.995 64.9367 197.665 64.9367 198.415ZM63.5267 198.13C63.5267 197.61 63.4117 197.165 63.1817 196.795C62.9517 196.415 62.6367 196.13 62.2367 195.94C61.8467 195.74 61.4117 195.64 60.9317 195.64C60.2417 195.64 59.6517 195.86 59.1617 196.3C58.6817 196.74 58.4067 197.35 58.3367 198.13H63.5267ZM62.4017 192.295L59.2067 194.005V192.985L62.4017 191.11V192.295ZM68.1035 191.74V202.84H66.7385V191.74H68.1035ZM77.9299 198.415C77.9299 198.675 77.9149 198.95 77.8849 199.24H71.3149C71.3649 200.05 71.6399 200.685 72.1399 201.145C72.6499 201.595 73.2649 201.82 73.9849 201.82C74.5749 201.82 75.0649 201.685 75.4549 201.415C75.8549 201.135 76.1349 200.765 76.2949 200.305H77.7649C77.5449 201.095 77.1049 201.74 76.4449 202.24C75.7849 202.73 74.9649 202.975 73.9849 202.975C73.2049 202.975 72.5049 202.8 71.8849 202.45C71.2749 202.1 70.7949 201.605 70.4449 200.965C70.0949 200.315 69.9199 199.565 69.9199 198.715C69.9199 197.865 70.0899 197.12 70.4299 196.48C70.7699 195.84 71.2449 195.35 71.8549 195.01C72.4749 194.66 73.1849 194.485 73.9849 194.485C74.7649 194.485 75.4549 194.655 76.0549 194.995C76.6549 195.335 77.1149 195.805 77.4349 196.405C77.7649 196.995 77.9299 197.665 77.9299 198.415ZM76.5199 198.13C76.5199 197.61 76.4049 197.165 76.1749 196.795C75.9449 196.415 75.6299 196.13 75.2299 195.94C74.8399 195.74 74.4049 195.64 73.9249 195.64C73.2349 195.64 72.6449 195.86 72.1549 196.3C71.6749 196.74 71.3999 197.35 71.3299 198.13H76.5199ZM79.2217 198.715C79.2217 197.865 79.3917 197.125 79.7317 196.495C80.0717 195.855 80.5417 195.36 81.1417 195.01C81.7517 194.66 82.4467 194.485 83.2267 194.485C84.2367 194.485 85.0667 194.73 85.7167 195.22C86.3767 195.71 86.8117 196.39 87.0217 197.26H85.5517C85.4117 196.76 85.1367 196.365 84.7267 196.075C84.3267 195.785 83.8267 195.64 83.2267 195.64C82.4467 195.64 81.8167 195.91 81.3367 196.45C80.8567 196.98 80.6167 197.735 80.6167 198.715C80.6167 199.705 80.8567 200.47 81.3367 201.01C81.8167 201.55 82.4467 201.82 83.2267 201.82C83.8267 201.82 84.3267 201.68 84.7267 201.4C85.1267 201.12 85.4017 200.72 85.5517 200.2H87.0217C86.8017 201.04 86.3617 201.715 85.7017 202.225C85.0417 202.725 84.2167 202.975 83.2267 202.975C82.4467 202.975 81.7517 202.8 81.1417 202.45C80.5417 202.1 80.0717 201.605 79.7317 200.965C79.3917 200.325 79.2217 199.575 79.2217 198.715ZM90.508 195.745V200.59C90.508 200.99 90.593 201.275 90.763 201.445C90.933 201.605 91.228 201.685 91.648 201.685H92.653V202.84H91.423C90.663 202.84 90.093 202.665 89.713 202.315C89.333 201.965 89.143 201.39 89.143 200.59V195.745H88.078V194.62H89.143V192.55H90.508V194.62H92.653V195.745H90.508ZM95.0119 193.285C94.7519 193.285 94.5319 193.195 94.3519 193.015C94.1719 192.835 94.0819 192.615 94.0819 192.355C94.0819 192.095 94.1719 191.875 94.3519 191.695C94.5319 191.515 94.7519 191.425 95.0119 191.425C95.2619 191.425 95.4719 191.515 95.6419 191.695C95.8219 191.875 95.9119 192.095 95.9119 192.355C95.9119 192.615 95.8219 192.835 95.6419 193.015C95.4719 193.195 95.2619 193.285 95.0119 193.285ZM95.6719 194.62V202.84H94.3069V194.62H95.6719ZM101.583 202.975C100.813 202.975 100.113 202.8 99.4833 202.45C98.8633 202.1 98.3733 201.605 98.0133 200.965C97.6633 200.315 97.4883 199.565 97.4883 198.715C97.4883 197.875 97.6683 197.135 98.0283 196.495C98.3983 195.845 98.8983 195.35 99.5283 195.01C100.158 194.66 100.863 194.485 101.643 194.485C102.423 194.485 103.128 194.66 103.758 195.01C104.388 195.35 104.883 195.84 105.243 196.48C105.613 197.12 105.798 197.865 105.798 198.715C105.798 199.565 105.608 200.315 105.228 200.965C104.858 201.605 104.353 202.1 103.713 202.45C103.073 202.8 102.363 202.975 101.583 202.975ZM101.583 201.775C102.073 201.775 102.533 201.66 102.963 201.43C103.393 201.2 103.738 200.855 103.998 200.395C104.268 199.935 104.403 199.375 104.403 198.715C104.403 198.055 104.273 197.495 104.013 197.035C103.753 196.575 103.413 196.235 102.993 196.015C102.573 195.785 102.118 195.67 101.628 195.67C101.128 195.67 100.668 195.785 100.248 196.015C99.8383 196.235 99.5083 196.575 99.2583 197.035C99.0083 197.495 98.8833 198.055 98.8833 198.715C98.8833 199.385 99.0033 199.95 99.2433 200.41C99.4933 200.87 99.8233 201.215 100.233 201.445C100.643 201.665 101.093 201.775 101.583 201.775ZM111.598 194.47C112.598 194.47 113.408 194.775 114.028 195.385C114.648 195.985 114.958 196.855 114.958 197.995V202.84H113.608V198.19C113.608 197.37 113.403 196.745 112.993 196.315C112.583 195.875 112.023 195.655 111.313 195.655C110.593 195.655 110.018 195.88 109.588 196.33C109.168 196.78 108.958 197.435 108.958 198.295V202.84H107.593V194.62H108.958V195.79C109.228 195.37 109.593 195.045 110.053 194.815C110.523 194.585 111.038 194.47 111.598 194.47ZM121.193 194.47C122.193 194.47 123.003 194.775 123.623 195.385C124.243 195.985 124.553 196.855 124.553 197.995V202.84H123.203V198.19C123.203 197.37 122.998 196.745 122.588 196.315C122.178 195.875 121.618 195.655 120.908 195.655C120.188 195.655 119.613 195.88 119.183 196.33C118.763 196.78 118.553 197.435 118.553 198.295V202.84H117.188V194.62H118.553V195.79C118.823 195.37 119.188 195.045 119.648 194.815C120.118 194.585 120.633 194.47 121.193 194.47ZM134.282 198.415C134.282 198.675 134.267 198.95 134.237 199.24H127.667C127.717 200.05 127.992 200.685 128.492 201.145C129.002 201.595 129.617 201.82 130.337 201.82C130.927 201.82 131.417 201.685 131.807 201.415C132.207 201.135 132.487 200.765 132.647 200.305H134.117C133.897 201.095 133.457 201.74 132.797 202.24C132.137 202.73 131.317 202.975 130.337 202.975C129.557 202.975 128.857 202.8 128.237 202.45C127.627 202.1 127.147 201.605 126.797 200.965C126.447 200.315 126.272 199.565 126.272 198.715C126.272 197.865 126.442 197.12 126.782 196.48C127.122 195.84 127.597 195.35 128.207 195.01C128.827 194.66 129.537 194.485 130.337 194.485C131.117 194.485 131.807 194.655 132.407 194.995C133.007 195.335 133.467 195.805 133.787 196.405C134.117 196.995 134.282 197.665 134.282 198.415ZM132.872 198.13C132.872 197.61 132.757 197.165 132.527 196.795C132.297 196.415 131.982 196.13 131.582 195.94C131.192 195.74 130.757 195.64 130.277 195.64C129.587 195.64 128.997 195.86 128.507 196.3C128.027 196.74 127.752 197.35 127.682 198.13H132.872ZM137.104 201.715H141.139V202.84H135.544V201.715L139.534 195.73H135.574V194.62H141.109V195.73L137.104 201.715ZM154.199 194.62V202.84H152.834V201.625C152.574 202.045 152.209 202.375 151.739 202.615C151.279 202.845 150.769 202.96 150.209 202.96C149.569 202.96 148.994 202.83 148.484 202.57C147.974 202.3 147.569 201.9 147.269 201.37C146.979 200.84 146.834 200.195 146.834 199.435V194.62H148.184V199.255C148.184 200.065 148.389 200.69 148.799 201.13C149.209 201.56 149.769 201.775 150.479 201.775C151.209 201.775 151.784 201.55 152.204 201.1C152.624 200.65 152.834 199.995 152.834 199.135V194.62H154.199ZM160.509 194.47C161.509 194.47 162.319 194.775 162.939 195.385C163.559 195.985 163.869 196.855 163.869 197.995V202.84H162.519V198.19C162.519 197.37 162.314 196.745 161.904 196.315C161.494 195.875 160.934 195.655 160.224 195.655C159.504 195.655 158.929 195.88 158.499 196.33C158.079 196.78 157.869 197.435 157.869 198.295V202.84H156.504V194.62H157.869V195.79C158.139 195.37 158.504 195.045 158.964 194.815C159.434 194.585 159.949 194.47 160.509 194.47ZM173.599 198.415C173.599 198.675 173.584 198.95 173.554 199.24H166.984C167.034 200.05 167.309 200.685 167.809 201.145C168.319 201.595 168.934 201.82 169.654 201.82C170.244 201.82 170.734 201.685 171.124 201.415C171.524 201.135 171.804 200.765 171.964 200.305H173.434C173.214 201.095 172.774 201.74 172.114 202.24C171.454 202.73 170.634 202.975 169.654 202.975C168.874 202.975 168.174 202.8 167.554 202.45C166.944 202.1 166.464 201.605 166.114 200.965C165.764 200.315 165.589 199.565 165.589 198.715C165.589 197.865 165.759 197.12 166.099 196.48C166.439 195.84 166.914 195.35 167.524 195.01C168.144 194.66 168.854 194.485 169.654 194.485C170.434 194.485 171.124 194.655 171.724 194.995C172.324 195.335 172.784 195.805 173.104 196.405C173.434 196.995 173.599 197.665 173.599 198.415ZM172.189 198.13C172.189 197.61 172.074 197.165 171.844 196.795C171.614 196.415 171.299 196.13 170.899 195.94C170.509 195.74 170.074 195.64 169.594 195.64C168.904 195.64 168.314 195.86 167.824 196.3C167.344 196.74 167.069 197.35 166.999 198.13H172.189ZM180.765 196.135C181.035 195.665 181.435 195.275 181.965 194.965C182.505 194.645 183.13 194.485 183.84 194.485C184.57 194.485 185.23 194.66 185.82 195.01C186.42 195.36 186.89 195.855 187.23 196.495C187.57 197.125 187.74 197.86 187.74 198.7C187.74 199.53 187.57 200.27 187.23 200.92C186.89 201.57 186.42 202.075 185.82 202.435C185.23 202.795 184.57 202.975 183.84 202.975C183.14 202.975 182.52 202.82 181.98 202.51C181.45 202.19 181.045 201.795 180.765 201.325V206.74H179.4V194.62H180.765V196.135ZM186.345 198.7C186.345 198.08 186.22 197.54 185.97 197.08C185.72 196.62 185.38 196.27 184.95 196.03C184.53 195.79 184.065 195.67 183.555 195.67C183.055 195.67 182.59 195.795 182.16 196.045C181.74 196.285 181.4 196.64 181.14 197.11C180.89 197.57 180.765 198.105 180.765 198.715C180.765 199.335 180.89 199.88 181.14 200.35C181.4 200.81 181.74 201.165 182.16 201.415C182.59 201.655 183.055 201.775 183.555 201.775C184.065 201.775 184.53 201.655 184.95 201.415C185.38 201.165 185.72 200.81 185.97 200.35C186.22 199.88 186.345 199.33 186.345 198.7ZM193.616 194.47C194.236 194.47 194.796 194.605 195.296 194.875C195.796 195.135 196.186 195.53 196.466 196.06C196.756 196.59 196.901 197.235 196.901 197.995V202.84H195.551V198.19C195.551 197.37 195.346 196.745 194.936 196.315C194.526 195.875 193.966 195.655 193.256 195.655C192.536 195.655 191.961 195.88 191.531 196.33C191.111 196.78 190.901 197.435 190.901 198.295V202.84H189.536V191.74H190.901V195.79C191.171 195.37 191.541 195.045 192.011 194.815C192.491 194.585 193.026 194.47 193.616 194.47ZM202.716 202.975C201.946 202.975 201.246 202.8 200.616 202.45C199.996 202.1 199.506 201.605 199.146 200.965C198.796 200.315 198.621 199.565 198.621 198.715C198.621 197.875 198.801 197.135 199.161 196.495C199.531 195.845 200.031 195.35 200.661 195.01C201.291 194.66 201.996 194.485 202.776 194.485C203.556 194.485 204.261 194.66 204.891 195.01C205.521 195.35 206.016 195.84 206.376 196.48C206.746 197.12 206.931 197.865 206.931 198.715C206.931 199.565 206.741 200.315 206.361 200.965C205.991 201.605 205.486 202.1 204.846 202.45C204.206 202.8 203.496 202.975 202.716 202.975ZM202.716 201.775C203.206 201.775 203.666 201.66 204.096 201.43C204.526 201.2 204.871 200.855 205.131 200.395C205.401 199.935 205.536 199.375 205.536 198.715C205.536 198.055 205.406 197.495 205.146 197.035C204.886 196.575 204.546 196.235 204.126 196.015C203.706 195.785 203.251 195.67 202.761 195.67C202.261 195.67 201.801 195.785 201.381 196.015C200.971 196.235 200.641 196.575 200.391 197.035C200.141 197.495 200.016 198.055 200.016 198.715C200.016 199.385 200.136 199.95 200.376 200.41C200.626 200.87 200.956 201.215 201.366 201.445C201.776 201.665 202.226 201.775 202.716 201.775ZM210.391 195.745V200.59C210.391 200.99 210.476 201.275 210.646 201.445C210.816 201.605 211.111 201.685 211.531 201.685H212.536V202.84H211.306C210.546 202.84 209.976 202.665 209.596 202.315C209.216 201.965 209.026 201.39 209.026 200.59V195.745H207.961V194.62H209.026V192.55H210.391V194.62H212.536V195.745H210.391ZM217.775 202.975C217.005 202.975 216.305 202.8 215.675 202.45C215.055 202.1 214.565 201.605 214.205 200.965C213.855 200.315 213.68 199.565 213.68 198.715C213.68 197.875 213.86 197.135 214.22 196.495C214.59 195.845 215.09 195.35 215.72 195.01C216.35 194.66 217.055 194.485 217.835 194.485C218.615 194.485 219.32 194.66 219.95 195.01C220.58 195.35 221.075 195.84 221.435 196.48C221.805 197.12 221.99 197.865 221.99 198.715C221.99 199.565 221.8 200.315 221.42 200.965C221.05 201.605 220.545 202.1 219.905 202.45C219.265 202.8 218.555 202.975 217.775 202.975ZM217.775 201.775C218.265 201.775 218.725 201.66 219.155 201.43C219.585 201.2 219.93 200.855 220.19 200.395C220.46 199.935 220.595 199.375 220.595 198.715C220.595 198.055 220.465 197.495 220.205 197.035C219.945 196.575 219.605 196.235 219.185 196.015C218.765 195.785 218.31 195.67 217.82 195.67C217.32 195.67 216.86 195.785 216.44 196.015C216.03 196.235 215.7 196.575 215.45 197.035C215.2 197.495 215.075 198.055 215.075 198.715C215.075 199.385 215.195 199.95 215.435 200.41C215.685 200.87 216.015 201.215 216.425 201.445C216.835 201.665 217.285 201.775 217.775 201.775ZM65.0709 225.975C64.4409 225.975 63.8759 225.87 63.3759 225.66C62.8759 225.44 62.4809 225.14 62.1909 224.76C61.9009 224.37 61.7409 223.925 61.7109 223.425H63.1209C63.1609 223.835 63.3509 224.17 63.6909 224.43C64.0409 224.69 64.4959 224.82 65.0559 224.82C65.5759 224.82 65.9859 224.705 66.2859 224.475C66.5859 224.245 66.7359 223.955 66.7359 223.605C66.7359 223.245 66.5759 222.98 66.2559 222.81C65.9359 222.63 65.4409 222.455 64.7709 222.285C64.1609 222.125 63.6609 221.965 63.2709 221.805C62.8909 221.635 62.5609 221.39 62.2809 221.07C62.0109 220.74 61.8759 220.31 61.8759 219.78C61.8759 219.36 62.0009 218.975 62.2509 218.625C62.5009 218.275 62.8559 218 63.3159 217.8C63.7759 217.59 64.3009 217.485 64.8909 217.485C65.8009 217.485 66.5359 217.715 67.0959 218.175C67.6559 218.635 67.9559 219.265 67.9959 220.065H66.6309C66.6009 219.635 66.4259 219.29 66.1059 219.03C65.7959 218.77 65.3759 218.64 64.8459 218.64C64.3559 218.64 63.9659 218.745 63.6759 218.955C63.3859 219.165 63.2409 219.44 63.2409 219.78C63.2409 220.05 63.3259 220.275 63.4959 220.455C63.6759 220.625 63.8959 220.765 64.1559 220.875C64.4259 220.975 64.7959 221.09 65.2659 221.22C65.8559 221.38 66.3359 221.54 66.7059 221.7C67.0759 221.85 67.3909 222.08 67.6509 222.39C67.9209 222.7 68.0609 223.105 68.0709 223.605C68.0709 224.055 67.9459 224.46 67.6959 224.82C67.4459 225.18 67.0909 225.465 66.6309 225.675C66.1809 225.875 65.6609 225.975 65.0709 225.975ZM77.2878 217.62V225.84H75.9228V224.625C75.6628 225.045 75.2978 225.375 74.8278 225.615C74.3678 225.845 73.8578 225.96 73.2978 225.96C72.6578 225.96 72.0828 225.83 71.5728 225.57C71.0628 225.3 70.6578 224.9 70.3578 224.37C70.0678 223.84 69.9228 223.195 69.9228 222.435V217.62H71.2728V222.255C71.2728 223.065 71.4778 223.69 71.8878 224.13C72.2978 224.56 72.8578 224.775 73.5678 224.775C74.2978 224.775 74.8728 224.55 75.2928 224.1C75.7128 223.65 75.9228 222.995 75.9228 222.135V217.62H77.2878ZM80.9575 218.955C81.1975 218.485 81.5375 218.12 81.9775 217.86C82.4275 217.6 82.9725 217.47 83.6125 217.47V218.88H83.2525C81.7225 218.88 80.9575 219.71 80.9575 221.37V225.84H79.5925V217.62H80.9575V218.955ZM92.2472 224.58L94.7972 217.62H96.2522L93.0272 225.84H91.4372L88.2122 217.62H89.6822L92.2472 224.58ZM101.18 225.975C100.41 225.975 99.7104 225.8 99.0804 225.45C98.4604 225.1 97.9704 224.605 97.6104 223.965C97.2604 223.315 97.0854 222.565 97.0854 221.715C97.0854 220.875 97.2654 220.135 97.6254 219.495C97.9954 218.845 98.4954 218.35 99.1254 218.01C99.7554 217.66 100.46 217.485 101.24 217.485C102.02 217.485 102.725 217.66 103.355 218.01C103.985 218.35 104.48 218.84 104.84 219.48C105.21 220.12 105.395 220.865 105.395 221.715C105.395 222.565 105.205 223.315 104.825 223.965C104.455 224.605 103.95 225.1 103.31 225.45C102.67 225.8 101.96 225.975 101.18 225.975ZM101.18 224.775C101.67 224.775 102.13 224.66 102.56 224.43C102.99 224.2 103.335 223.855 103.595 223.395C103.865 222.935 104 222.375 104 221.715C104 221.055 103.87 220.495 103.61 220.035C103.35 219.575 103.01 219.235 102.59 219.015C102.17 218.785 101.715 218.67 101.225 218.67C100.725 218.67 100.265 218.785 99.8454 219.015C99.4354 219.235 99.1054 219.575 98.8554 220.035C98.6054 220.495 98.4804 221.055 98.4804 221.715C98.4804 222.385 98.6004 222.95 98.8404 223.41C99.0904 223.87 99.4204 224.215 99.8304 224.445C100.24 224.665 100.69 224.775 101.18 224.775ZM108.855 218.745V223.59C108.855 223.99 108.94 224.275 109.11 224.445C109.28 224.605 109.575 224.685 109.995 224.685H111V225.84H109.77C109.01 225.84 108.44 225.665 108.06 225.315C107.68 224.965 107.49 224.39 107.49 223.59V218.745H106.425V217.62H107.49V215.55H108.855V217.62H111V218.745H108.855ZM114.019 218.955C114.259 218.485 114.599 218.12 115.039 217.86C115.489 217.6 116.034 217.47 116.674 217.47V218.88H116.314C114.784 218.88 114.019 219.71 114.019 221.37V225.84H112.654V217.62H114.019V218.955ZM125.75 221.415C125.75 221.675 125.735 221.95 125.705 222.24H119.135C119.185 223.05 119.46 223.685 119.96 224.145C120.47 224.595 121.085 224.82 121.805 224.82C122.395 224.82 122.885 224.685 123.275 224.415C123.675 224.135 123.955 223.765 124.115 223.305H125.585C125.365 224.095 124.925 224.74 124.265 225.24C123.605 225.73 122.785 225.975 121.805 225.975C121.025 225.975 120.325 225.8 119.705 225.45C119.095 225.1 118.615 224.605 118.265 223.965C117.915 223.315 117.74 222.565 117.74 221.715C117.74 220.865 117.91 220.12 118.25 219.48C118.59 218.84 119.065 218.35 119.675 218.01C120.295 217.66 121.005 217.485 121.805 217.485C122.585 217.485 123.275 217.655 123.875 217.995C124.475 218.335 124.935 218.805 125.255 219.405C125.585 219.995 125.75 220.665 125.75 221.415ZM124.34 221.13C124.34 220.61 124.225 220.165 123.995 219.795C123.765 219.415 123.45 219.13 123.05 218.94C122.66 218.74 122.225 218.64 121.745 218.64C121.055 218.64 120.465 218.86 119.975 219.3C119.495 219.74 119.22 220.35 119.15 221.13H124.34ZM135.136 225.975C134.366 225.975 133.666 225.8 133.036 225.45C132.416 225.1 131.926 224.605 131.566 223.965C131.216 223.315 131.041 222.565 131.041 221.715C131.041 220.875 131.221 220.135 131.581 219.495C131.951 218.845 132.451 218.35 133.081 218.01C133.711 217.66 134.416 217.485 135.196 217.485C135.976 217.485 136.681 217.66 137.311 218.01C137.941 218.35 138.436 218.84 138.796 219.48C139.166 220.12 139.351 220.865 139.351 221.715C139.351 222.565 139.161 223.315 138.781 223.965C138.411 224.605 137.906 225.1 137.266 225.45C136.626 225.8 135.916 225.975 135.136 225.975ZM135.136 224.775C135.626 224.775 136.086 224.66 136.516 224.43C136.946 224.2 137.291 223.855 137.551 223.395C137.821 222.935 137.956 222.375 137.956 221.715C137.956 221.055 137.826 220.495 137.566 220.035C137.306 219.575 136.966 219.235 136.546 219.015C136.126 218.785 135.671 218.67 135.181 218.67C134.681 218.67 134.221 218.785 133.801 219.015C133.391 219.235 133.061 219.575 132.811 220.035C132.561 220.495 132.436 221.055 132.436 221.715C132.436 222.385 132.556 222.95 132.796 223.41C133.046 223.87 133.376 224.215 133.786 224.445C134.196 224.665 134.646 224.775 135.136 224.775ZM142.51 218.955C142.75 218.485 143.09 218.12 143.53 217.86C143.98 217.6 144.525 217.47 145.165 217.47V218.88H144.805C143.275 218.88 142.51 219.71 142.51 221.37V225.84H141.145V217.62H142.51V218.955ZM146.231 221.7C146.231 220.86 146.401 220.125 146.741 219.495C147.081 218.855 147.546 218.36 148.136 218.01C148.736 217.66 149.406 217.485 150.146 217.485C150.786 217.485 151.381 217.635 151.931 217.935C152.481 218.225 152.901 218.61 153.191 219.09V214.74H154.571V225.84H153.191V224.295C152.921 224.785 152.521 225.19 151.991 225.51C151.461 225.82 150.841 225.975 150.131 225.975C149.401 225.975 148.736 225.795 148.136 225.435C147.546 225.075 147.081 224.57 146.741 223.92C146.401 223.27 146.231 222.53 146.231 221.7ZM153.191 221.715C153.191 221.095 153.066 220.555 152.816 220.095C152.566 219.635 152.226 219.285 151.796 219.045C151.376 218.795 150.911 218.67 150.401 218.67C149.891 218.67 149.426 218.79 149.006 219.03C148.586 219.27 148.251 219.62 148.001 220.08C147.751 220.54 147.626 221.08 147.626 221.7C147.626 222.33 147.751 222.88 148.001 223.35C148.251 223.81 148.586 224.165 149.006 224.415C149.426 224.655 149.891 224.775 150.401 224.775C150.911 224.775 151.376 224.655 151.796 224.415C152.226 224.165 152.566 223.81 152.816 223.35C153.066 222.88 153.191 222.335 153.191 221.715ZM157.583 216.285C157.323 216.285 157.103 216.195 156.923 216.015C156.743 215.835 156.653 215.615 156.653 215.355C156.653 215.095 156.743 214.875 156.923 214.695C157.103 214.515 157.323 214.425 157.583 214.425C157.833 214.425 158.043 214.515 158.213 214.695C158.393 214.875 158.483 215.095 158.483 215.355C158.483 215.615 158.393 215.835 158.213 216.015C158.043 216.195 157.833 216.285 157.583 216.285ZM158.243 217.62V225.84H156.878V217.62H158.243ZM164.574 217.47C165.574 217.47 166.384 217.775 167.004 218.385C167.624 218.985 167.934 219.855 167.934 220.995V225.84H166.584V221.19C166.584 220.37 166.379 219.745 165.969 219.315C165.559 218.875 164.999 218.655 164.289 218.655C163.569 218.655 162.994 218.88 162.564 219.33C162.144 219.78 161.934 220.435 161.934 221.295V225.84H160.569V217.62H161.934V218.79C162.204 218.37 162.569 218.045 163.029 217.815C163.499 217.585 164.014 217.47 164.574 217.47ZM169.654 221.7C169.654 220.86 169.824 220.125 170.164 219.495C170.504 218.855 170.969 218.36 171.559 218.01C172.159 217.66 172.824 217.485 173.554 217.485C174.274 217.485 174.899 217.64 175.429 217.95C175.959 218.26 176.354 218.65 176.614 219.12V217.62H177.994V225.84H176.614V224.31C176.344 224.79 175.939 225.19 175.399 225.51C174.869 225.82 174.249 225.975 173.539 225.975C172.809 225.975 172.149 225.795 171.559 225.435C170.969 225.075 170.504 224.57 170.164 223.92C169.824 223.27 169.654 222.53 169.654 221.7ZM176.614 221.715C176.614 221.095 176.489 220.555 176.239 220.095C175.989 219.635 175.649 219.285 175.219 219.045C174.799 218.795 174.334 218.67 173.824 218.67C173.314 218.67 172.849 218.79 172.429 219.03C172.009 219.27 171.674 219.62 171.424 220.08C171.174 220.54 171.049 221.08 171.049 221.7C171.049 222.33 171.174 222.88 171.424 223.35C171.674 223.81 172.009 224.165 172.429 224.415C172.849 224.655 173.314 224.775 173.824 224.775C174.334 224.775 174.799 224.655 175.219 224.415C175.649 224.165 175.989 223.81 176.239 223.35C176.489 222.88 176.614 222.335 176.614 221.715ZM181.966 218.745V223.59C181.966 223.99 182.051 224.275 182.221 224.445C182.391 224.605 182.686 224.685 183.106 224.685H184.111V225.84H182.881C182.121 225.84 181.551 225.665 181.171 225.315C180.791 224.965 180.601 224.39 180.601 223.59V218.745H179.536V217.62H180.601V215.55H181.966V217.62H184.111V218.745H181.966ZM193.264 221.415C193.264 221.675 193.249 221.95 193.219 222.24H186.649C186.699 223.05 186.974 223.685 187.474 224.145C187.984 224.595 188.599 224.82 189.319 224.82C189.909 224.82 190.399 224.685 190.789 224.415C191.189 224.135 191.469 223.765 191.629 223.305H193.099C192.879 224.095 192.439 224.74 191.779 225.24C191.119 225.73 190.299 225.975 189.319 225.975C188.539 225.975 187.839 225.8 187.219 225.45C186.609 225.1 186.129 224.605 185.779 223.965C185.429 223.315 185.254 222.565 185.254 221.715C185.254 220.865 185.424 220.12 185.764 219.48C186.104 218.84 186.579 218.35 187.189 218.01C187.809 217.66 188.519 217.485 189.319 217.485C190.099 217.485 190.789 217.655 191.389 217.995C191.989 218.335 192.449 218.805 192.769 219.405C193.099 219.995 193.264 220.665 193.264 221.415ZM191.854 221.13C191.854 220.61 191.739 220.165 191.509 219.795C191.279 219.415 190.964 219.13 190.564 218.94C190.174 218.74 189.739 218.64 189.259 218.64C188.569 218.64 187.979 218.86 187.489 219.3C187.009 219.74 186.734 220.35 186.664 221.13H191.854ZM202.356 217.62V225.84H200.991V224.625C200.731 225.045 200.366 225.375 199.896 225.615C199.436 225.845 198.926 225.96 198.366 225.96C197.726 225.96 197.151 225.83 196.641 225.57C196.131 225.3 195.726 224.9 195.426 224.37C195.136 223.84 194.991 223.195 194.991 222.435V217.62H196.341V222.255C196.341 223.065 196.546 223.69 196.956 224.13C197.366 224.56 197.926 224.775 198.636 224.775C199.366 224.775 199.941 224.55 200.361 224.1C200.781 223.65 200.991 222.995 200.991 222.135V217.62H202.356ZM206.026 218.955C206.266 218.485 206.606 218.12 207.046 217.86C207.496 217.6 208.041 217.47 208.681 217.47V218.88H208.321C206.791 218.88 206.026 219.71 206.026 221.37V225.84H204.661V217.62H206.026V218.955Z" fill="#EDF2F4"/>
<path d="M47.478 204.34H222.635V205.09H47.478V204.34ZM61.0059 227.34H209.101V228.09H61.0059V227.34Z" fill="#EDF2F4"/>
</svg>
