<svg width="398" height="119" viewBox="0 0 398 119" fill="none" xmlns="http://www.w3.org/2000/svg">
<rect x="2.5" y="2.5" width="393" height="114" rx="7.5" stroke="#EDF2F4" stroke-opacity="0.3" stroke-width="5"/>
<path d="M140.219 87.34H134.659L133.739 90H130.799L135.819 76.02H139.079L144.099 90H141.139L140.219 87.34ZM139.459 85.1L137.439 79.26L135.419 85.1H139.459ZM148.776 80.52C149.136 80.0133 149.629 79.5933 150.256 79.26C150.896 78.9133 151.622 78.74 152.436 78.74C153.382 78.74 154.236 78.9733 154.996 79.44C155.769 79.9067 156.376 80.5733 156.816 81.44C157.269 82.2933 157.496 83.2867 157.496 84.42C157.496 85.5533 157.269 86.56 156.816 87.44C156.376 88.3067 155.769 88.98 154.996 89.46C154.236 89.94 153.382 90.18 152.436 90.18C151.622 90.18 150.902 90.0133 150.276 89.68C149.662 89.3467 149.162 88.9267 148.776 88.42V95.28H145.976V78.92H148.776V80.52ZM154.636 84.42C154.636 83.7533 154.496 83.18 154.216 82.7C153.949 82.2067 153.589 81.8333 153.136 81.58C152.696 81.3267 152.216 81.2 151.696 81.2C151.189 81.2 150.709 81.3333 150.256 81.6C149.816 81.8533 149.456 82.2267 149.176 82.72C148.909 83.2133 148.776 83.7933 148.776 84.46C148.776 85.1267 148.909 85.7067 149.176 86.2C149.456 86.6933 149.816 87.0733 150.256 87.34C150.709 87.5933 151.189 87.72 151.696 87.72C152.216 87.72 152.696 87.5867 153.136 87.32C153.589 87.0533 153.949 86.6733 154.216 86.18C154.496 85.6867 154.636 85.1 154.636 84.42ZM162.33 80.52C162.69 80.0133 163.184 79.5933 163.81 79.26C164.45 78.9133 165.177 78.74 165.99 78.74C166.937 78.74 167.79 78.9733 168.55 79.44C169.324 79.9067 169.93 80.5733 170.37 81.44C170.824 82.2933 171.05 83.2867 171.05 84.42C171.05 85.5533 170.824 86.56 170.37 87.44C169.93 88.3067 169.324 88.98 168.55 89.46C167.79 89.94 166.937 90.18 165.99 90.18C165.177 90.18 164.457 90.0133 163.83 89.68C163.217 89.3467 162.717 88.9267 162.33 88.42V95.28H159.53V78.92H162.33V80.52ZM168.19 84.42C168.19 83.7533 168.05 83.18 167.77 82.7C167.504 82.2067 167.144 81.8333 166.69 81.58C166.25 81.3267 165.77 81.2 165.25 81.2C164.744 81.2 164.264 81.3333 163.81 81.6C163.37 81.8533 163.01 82.2267 162.73 82.72C162.464 83.2133 162.33 83.7933 162.33 84.46C162.33 85.1267 162.464 85.7067 162.73 86.2C163.01 86.6933 163.37 87.0733 163.81 87.34C164.264 87.5933 164.744 87.72 165.25 87.72C165.77 87.72 166.25 87.5867 166.69 87.32C167.144 87.0533 167.504 86.6733 167.77 86.18C168.05 85.6867 168.19 85.1 168.19 84.42ZM172.365 84.42C172.365 83.3 172.585 82.3067 173.025 81.44C173.478 80.5733 174.085 79.9067 174.845 79.44C175.618 78.9733 176.478 78.74 177.425 78.74C178.252 78.74 178.972 78.9067 179.585 79.24C180.212 79.5733 180.712 79.9933 181.085 80.5V78.92H183.905V90H181.085V88.38C180.725 88.9 180.225 89.3333 179.585 89.68C178.958 90.0133 178.232 90.18 177.405 90.18C176.472 90.18 175.618 89.94 174.845 89.46C174.085 88.98 173.478 88.3067 173.025 87.44C172.585 86.56 172.365 85.5533 172.365 84.42ZM181.085 84.46C181.085 83.78 180.952 83.2 180.685 82.72C180.418 82.2267 180.058 81.8533 179.605 81.6C179.152 81.3333 178.665 81.2 178.145 81.2C177.625 81.2 177.145 81.3267 176.705 81.58C176.265 81.8333 175.905 82.2067 175.625 82.7C175.358 83.18 175.225 83.7533 175.225 84.42C175.225 85.0867 175.358 85.6733 175.625 86.18C175.905 86.6733 176.265 87.0533 176.705 87.32C177.158 87.5867 177.638 87.72 178.145 87.72C178.665 87.72 179.152 87.5933 179.605 87.34C180.058 87.0733 180.418 86.7 180.685 86.22C180.952 85.7267 181.085 85.14 181.085 84.46ZM189.44 80.64C189.8 80.0533 190.266 79.5933 190.84 79.26C191.426 78.9267 192.093 78.76 192.84 78.76V81.7H192.1C191.22 81.7 190.553 81.9067 190.1 82.32C189.66 82.7333 189.44 83.4533 189.44 84.48V90H186.64V78.92H189.44V80.64ZM197.986 81.22V86.58C197.986 86.9533 198.072 87.2267 198.246 87.4C198.432 87.56 198.739 87.64 199.166 87.64H200.466V90H198.706C196.346 90 195.166 88.8533 195.166 86.56V81.22H193.846V78.92H195.166V76.18H197.986V78.92H200.466V81.22H197.986ZM212.78 84.22C212.78 84.62 212.753 84.98 212.7 85.3H204.6C204.666 86.1 204.946 86.7267 205.44 87.18C205.933 87.6333 206.54 87.86 207.26 87.86C208.3 87.86 209.04 87.4133 209.48 86.52H212.5C212.18 87.5867 211.566 88.4667 210.66 89.16C209.753 89.84 208.64 90.18 207.32 90.18C206.253 90.18 205.293 89.9467 204.44 89.48C203.6 89 202.94 88.3267 202.46 87.46C201.993 86.5933 201.76 85.5933 201.76 84.46C201.76 83.3133 201.993 82.3067 202.46 81.44C202.926 80.5733 203.58 79.9067 204.42 79.44C205.26 78.9733 206.226 78.74 207.32 78.74C208.373 78.74 209.313 78.9667 210.14 79.42C210.98 79.8733 211.626 80.52 212.08 81.36C212.546 82.1867 212.78 83.14 212.78 84.22ZM209.88 83.42C209.866 82.7 209.606 82.1267 209.1 81.7C208.593 81.26 207.973 81.04 207.24 81.04C206.546 81.04 205.96 81.2533 205.48 81.68C205.013 82.0933 204.726 82.6733 204.62 83.42H209.88ZM228.583 78.76C229.943 78.76 231.037 79.18 231.863 80.02C232.703 80.8467 233.123 82.0067 233.123 83.5V90H230.323V83.88C230.323 83.0133 230.103 82.3533 229.663 81.9C229.223 81.4333 228.623 81.2 227.863 81.2C227.103 81.2 226.497 81.4333 226.043 81.9C225.603 82.3533 225.383 83.0133 225.383 83.88V90H222.583V83.88C222.583 83.0133 222.363 82.3533 221.923 81.9C221.483 81.4333 220.883 81.2 220.123 81.2C219.35 81.2 218.737 81.4333 218.283 81.9C217.843 82.3533 217.623 83.0133 217.623 83.88V90H214.823V78.92H217.623V80.26C217.983 79.7933 218.443 79.4267 219.003 79.16C219.577 78.8933 220.203 78.76 220.883 78.76C221.75 78.76 222.523 78.9467 223.203 79.32C223.883 79.68 224.41 80.2 224.783 80.88C225.143 80.24 225.663 79.7267 226.343 79.34C227.037 78.9533 227.783 78.76 228.583 78.76ZM246.08 84.22C246.08 84.62 246.054 84.98 246 85.3H237.9C237.967 86.1 238.247 86.7267 238.74 87.18C239.234 87.6333 239.84 87.86 240.56 87.86C241.6 87.86 242.34 87.4133 242.78 86.52H245.8C245.48 87.5867 244.867 88.4667 243.96 89.16C243.054 89.84 241.94 90.18 240.62 90.18C239.554 90.18 238.594 89.9467 237.74 89.48C236.9 89 236.24 88.3267 235.76 87.46C235.294 86.5933 235.06 85.5933 235.06 84.46C235.06 83.3133 235.294 82.3067 235.76 81.44C236.227 80.5733 236.88 79.9067 237.72 79.44C238.56 78.9733 239.527 78.74 240.62 78.74C241.674 78.74 242.614 78.9667 243.44 79.42C244.28 79.8733 244.927 80.52 245.38 81.36C245.847 82.1867 246.08 83.14 246.08 84.22ZM243.18 83.42C243.167 82.7 242.907 82.1267 242.4 81.7C241.894 81.26 241.274 81.04 240.54 81.04C239.847 81.04 239.26 81.2533 238.78 81.68C238.314 82.0933 238.027 82.6733 237.92 83.42H243.18ZM254.264 78.76C255.584 78.76 256.651 79.18 257.464 80.02C258.277 80.8467 258.684 82.0067 258.684 83.5V90H255.884V83.88C255.884 83 255.664 82.3267 255.224 81.86C254.784 81.38 254.184 81.14 253.424 81.14C252.651 81.14 252.037 81.38 251.584 81.86C251.144 82.3267 250.924 83 250.924 83.88V90H248.124V78.92H250.924V80.3C251.297 79.82 251.771 79.4467 252.344 79.18C252.931 78.9 253.571 78.76 254.264 78.76ZM264.607 81.22V86.58C264.607 86.9533 264.693 87.2267 264.867 87.4C265.053 87.56 265.36 87.64 265.787 87.64H267.087V90H265.327C262.967 90 261.787 88.8533 261.787 86.56V81.22H260.467V78.92H261.787V76.18H264.607V78.92H267.087V81.22H264.607Z" fill="#EDF2F4" fill-opacity="0.3"/>
<path fill-rule="evenodd" clip-rule="evenodd" d="M184.6 25C183.716 25 183 25.8954 183 27V33V61C183 62.1046 183.895 63 185 63H195H203H213C214.105 63 215 62.1046 215 61V33V27C215 25.8954 214.284 25 213.4 25H184.6ZM211 35H187V59H193V53C193 49.6863 195.686 47 199 47C202.314 47 205 49.6863 205 53V59H211V35ZM211.8 31V29H186.2V31H211.8ZM201 53V59H197V53C197 51.8954 197.895 51 199 51C200.105 51 201 51.8954 201 53Z" fill="#EDF2F4" fill-opacity="0.3"/>
</svg>
