<svg width="40" height="40" viewBox="0 0 40 40" fill="none" xmlns="http://www.w3.org/2000/svg">
<rect width="40" height="40" rx="20" fill="#EDF2F4"/>
<path fill-rule="evenodd" clip-rule="evenodd" d="M25.8335 12.643C25.6334 12.643 25.4353 12.6824 25.2504 12.759C25.0656 12.8355 24.8976 12.9478 24.7561 13.0893L13.6626 24.1828L12.8545 27.1457L15.8174 26.3376L26.9109 15.2441C27.0524 15.1026 27.1646 14.9346 27.2412 14.7498C27.3178 14.5649 27.3572 14.3668 27.3572 14.1667C27.3572 13.9666 27.3178 13.7684 27.2412 13.5836C27.1646 13.3987 27.0524 13.2308 26.9109 13.0893C26.7694 12.9478 26.6015 12.8355 26.4166 12.759C26.2317 12.6824 26.0336 12.643 25.8335 12.643ZM24.6126 11.2192C24.9997 11.0588 25.4146 10.9763 25.8335 10.9763C26.2525 10.9763 26.6673 11.0588 27.0544 11.2192C27.4415 11.3795 27.7932 11.6145 28.0894 11.9108C28.3857 12.207 28.6207 12.5587 28.781 12.9458C28.9414 13.3329 29.0239 13.7477 29.0239 14.1667C29.0239 14.5856 28.9414 15.0005 28.781 15.3876C28.6207 15.7746 28.3857 16.1263 28.0894 16.4226L16.8394 27.6726C16.7369 27.7751 16.6094 27.8492 16.4694 27.8873L11.8861 29.1373C11.5976 29.216 11.2891 29.1341 11.0776 28.9226C10.8661 28.7111 10.7842 28.4026 10.8629 28.1141L12.1129 23.5307C12.151 23.3908 12.225 23.2633 12.3276 23.1608L23.5776 11.9108C23.8738 11.6145 24.2255 11.3795 24.6126 11.2192Z" fill="#D80032"/>
</svg>
