<svg width="398" height="119" viewBox="0 0 398 119" fill="none" xmlns="http://www.w3.org/2000/svg">
<rect x="2.5" y="2.5" width="393" height="114" rx="7.5" stroke="#EDF2F4" stroke-opacity="0.3" stroke-width="5"/>
<path d="M178.608 76.04V90H175.808V80.92L172.068 90H169.948L166.188 80.92V90H163.388V76.04H166.568L171.008 86.42L175.448 76.04H178.608ZM180.656 84.42C180.656 83.3 180.876 82.3067 181.316 81.44C181.769 80.5733 182.376 79.9067 183.136 79.44C183.909 78.9733 184.769 78.74 185.716 78.74C186.543 78.74 187.263 78.9067 187.876 79.24C188.503 79.5733 189.003 79.9933 189.376 80.5V78.92H192.196V90H189.376V88.38C189.016 88.9 188.516 89.3333 187.876 89.68C187.249 90.0133 186.523 90.18 185.696 90.18C184.763 90.18 183.909 89.94 183.136 89.46C182.376 88.98 181.769 88.3067 181.316 87.44C180.876 86.56 180.656 85.5533 180.656 84.42ZM189.376 84.46C189.376 83.78 189.243 83.2 188.976 82.72C188.709 82.2267 188.349 81.8533 187.896 81.6C187.443 81.3333 186.956 81.2 186.436 81.2C185.916 81.2 185.436 81.3267 184.996 81.58C184.556 81.8333 184.196 82.2067 183.916 82.7C183.649 83.18 183.516 83.7533 183.516 84.42C183.516 85.0867 183.649 85.6733 183.916 86.18C184.196 86.6733 184.556 87.0533 184.996 87.32C185.449 87.5867 185.929 87.72 186.436 87.72C186.956 87.72 187.443 87.5933 187.896 87.34C188.349 87.0733 188.709 86.7 188.976 86.22C189.243 85.7267 189.376 85.14 189.376 84.46ZM196.351 77.6C195.857 77.6 195.444 77.4467 195.111 77.14C194.791 76.82 194.631 76.4267 194.631 75.96C194.631 75.4933 194.791 75.1067 195.111 74.8C195.444 74.48 195.857 74.32 196.351 74.32C196.844 74.32 197.251 74.48 197.571 74.8C197.904 75.1067 198.071 75.4933 198.071 75.96C198.071 76.4267 197.904 76.82 197.571 77.14C197.251 77.4467 196.844 77.6 196.351 77.6ZM197.731 78.92V90H194.931V78.92H197.731ZM204.737 90.18C203.831 90.18 203.017 90.02 202.297 89.7C201.577 89.3667 201.004 88.92 200.577 88.36C200.164 87.8 199.937 87.18 199.897 86.5H202.717C202.771 86.9267 202.977 87.28 203.337 87.56C203.711 87.84 204.171 87.98 204.717 87.98C205.251 87.98 205.664 87.8733 205.957 87.66C206.264 87.4467 206.417 87.1733 206.417 86.84C206.417 86.48 206.231 86.2133 205.857 86.04C205.497 85.8533 204.917 85.6533 204.117 85.44C203.291 85.24 202.611 85.0333 202.077 84.82C201.557 84.6067 201.104 84.28 200.717 83.84C200.344 83.4 200.157 82.8067 200.157 82.06C200.157 81.4467 200.331 80.8867 200.677 80.38C201.037 79.8733 201.544 79.4733 202.197 79.18C202.864 78.8867 203.644 78.74 204.537 78.74C205.857 78.74 206.911 79.0733 207.697 79.74C208.484 80.3933 208.917 81.28 208.997 82.4H206.317C206.277 81.96 206.091 81.6133 205.757 81.36C205.437 81.0933 205.004 80.96 204.457 80.96C203.951 80.96 203.557 81.0533 203.277 81.24C203.011 81.4267 202.877 81.6867 202.877 82.02C202.877 82.3933 203.064 82.68 203.437 82.88C203.811 83.0667 204.391 83.26 205.177 83.46C205.977 83.66 206.637 83.8667 207.157 84.08C207.677 84.2933 208.124 84.6267 208.497 85.08C208.884 85.52 209.084 86.1067 209.097 86.84C209.097 87.48 208.917 88.0533 208.557 88.56C208.211 89.0667 207.704 89.4667 207.037 89.76C206.384 90.04 205.617 90.18 204.737 90.18ZM216.316 90.18C215.249 90.18 214.289 89.9467 213.436 89.48C212.582 89 211.909 88.3267 211.416 87.46C210.936 86.5933 210.696 85.5933 210.696 84.46C210.696 83.3267 210.942 82.3267 211.436 81.46C211.942 80.5933 212.629 79.9267 213.496 79.46C214.362 78.98 215.329 78.74 216.396 78.74C217.462 78.74 218.429 78.98 219.296 79.46C220.162 79.9267 220.842 80.5933 221.336 81.46C221.842 82.3267 222.096 83.3267 222.096 84.46C222.096 85.5933 221.836 86.5933 221.316 87.46C220.809 88.3267 220.116 89 219.236 89.48C218.369 89.9467 217.396 90.18 216.316 90.18ZM216.316 87.74C216.822 87.74 217.296 87.62 217.736 87.38C218.189 87.1267 218.549 86.7533 218.816 86.26C219.082 85.7667 219.216 85.1667 219.216 84.46C219.216 83.4067 218.936 82.6 218.376 82.04C217.829 81.4667 217.156 81.18 216.356 81.18C215.556 81.18 214.882 81.4667 214.336 82.04C213.802 82.6 213.536 83.4067 213.536 84.46C213.536 85.5133 213.796 86.3267 214.316 86.9C214.849 87.46 215.516 87.74 216.316 87.74ZM230.29 78.76C231.61 78.76 232.676 79.18 233.49 80.02C234.303 80.8467 234.71 82.0067 234.71 83.5V90H231.91V83.88C231.91 83 231.69 82.3267 231.25 81.86C230.81 81.38 230.21 81.14 229.45 81.14C228.676 81.14 228.063 81.38 227.61 81.86C227.17 82.3267 226.95 83 226.95 83.88V90H224.15V78.92H226.95V80.3C227.323 79.82 227.796 79.4467 228.37 79.18C228.956 78.9 229.596 78.76 230.29 78.76Z" fill="#EDF2F4" fill-opacity="0.3"/>
<path d="M218.32 40.5L200.32 24.5C199.955 24.1793 199.486 24.0025 199 24.0025C198.514 24.0025 198.045 24.1793 197.68 24.5L179.68 40.5C179.374 40.7706 179.158 41.1284 179.062 41.5253C178.965 41.9221 178.992 42.3391 179.14 42.72C179.285 43.0958 179.54 43.4192 179.872 43.6475C180.204 43.8759 180.597 43.9988 181 44H183V62C183 62.5304 183.21 63.0391 183.586 63.4142C183.961 63.7893 184.469 64 185 64H213C213.53 64 214.039 63.7893 214.414 63.4142C214.789 63.0391 215 62.5304 215 62V44H217C217.403 43.9988 217.796 43.8759 218.128 43.6475C218.46 43.4192 218.715 43.0958 218.86 42.72C219.007 42.3391 219.034 41.9221 218.938 41.5253C218.841 41.1284 218.626 40.7706 218.32 40.5V40.5ZM201 60H197V54C197 53.4695 197.21 52.9608 197.586 52.5858C197.961 52.2107 198.469 52 199 52C199.53 52 200.039 52.2107 200.414 52.5858C200.789 52.9608 201 53.4695 201 54V60ZM211 60H205V54C205 52.4087 204.368 50.8825 203.242 49.7573C202.117 48.6321 200.591 48 199 48C197.408 48 195.882 48.6321 194.757 49.7573C193.632 50.8825 193 52.4087 193 54V60H187V44H211V60ZM186.26 40L199 28.68L211.74 40H186.26Z" fill="#EDF2F4" fill-opacity="0.3"/>
</svg>
