<svg xmlns="http://www.w3.org/2000/svg" width="116.862" height="71.027" viewBox="0 0 116.862 71.027">
  <g id="logo_footer" transform="translate(-146.136 -73.065)">
    <path id="Tracé_9" data-name="Tracé 9" d="M15.9-173.949c-3.309,4.006-7.9,15.212-7.9,24.5,0,5.69,4.471,9,7.49,9.232,1.51-.058,4.7-5.748,6.735-9.7-1.393,6.561-3.193,14.4-3.89,21.192.813,2.787,4.529,6.5,7.548,6.5a323.025,323.025,0,0,1,9.754-38.726c1.219-3.774,2.38-7.49,2.38-10.393,0-4.413-4.761-7.664-8.477-7.664a4.324,4.324,0,0,0-1.045.116c-.581,3.774-2.5,13.76-4.993,22.876a34.985,34.985,0,0,1-7.141,9.057,58.614,58.614,0,0,1,5.051-13.76c1.045-2.09,2.38-4.18,2.38-6.5C23.792-170.7,18.915-173.949,15.9-173.949Zm39.539,37.391c5.4,0,10.1-9.638,10.1-14.109a41.384,41.384,0,0,1-7.374,4.587c1.219-3.019,3.6-8.825,3.6-12.425,0-4.819-4.819-7.374-9.115-7.664a100.709,100.709,0,0,1-2.671,12.483c-.464,1.451-.813,2.845-1.045,3.948-1.045,2.148-3.368,5.748-5.342,7.316,1.045-7.141,3.774-13.3,5.922-17.883-1.277-2.148-5.051-4.761-8.883-4.993-2.555,3.193-5.574,13.122-5.574,19.044,0,4.761,3.89,9.29,8.128,9.7,1.568,0,3.832-5.748,5.109-9v.7C48.294-140.738,51.081-136.558,55.435-136.558Zm14.109-40.41a168.6,168.6,0,0,1-5.922,26.185c-1.219,3.6-3.368,8.883-3.368,8.883,1.51,3.135,5.806,5.283,8.883,5.342a87.4,87.4,0,0,0,5.283-13.412,47.831,47.831,0,0,0-.348,5.574c0,3.832,3.019,7.838,7.316,7.838,6.1,0,10.335-10.625,10.335-14.225-2.729,1.974-9.348,5.632-12.831,5.806l-.406-.871c4.645-2.322,9.87-7.606,9.87-13.064a7.649,7.649,0,0,0-5.167-7.258c-.348,1.974-3.077,7.083-6.909,9.7,1.277-4.877,2.206-9.522,2.206-12.657C78.485-174.007,73.376-176.852,69.544-176.968Zm38.494,10.741c-1.51,5.051-3.135,11.09-4.413,15.56-1.51,3.019-3.832,6.619-5.748,8.128a52.286,52.286,0,0,1,1.684-7.2c1.858-5.98,3.658-6.1,3.658-9,0-3.716-5.167-6.735-7.664-6.851-1.742,1.277-4.3,6.793-5.69,12.831a31.643,31.643,0,0,0-.871,7.2,10.855,10.855,0,0,0,.639,4.238c1.335,2.148,5.225,4.355,7.78,4.761,1.161,0,3.135-4.3,4.529-7.722-1.684,6.561-4.758,17.449-5.686,21.92,1.219,2.845,4.935,5.167,8.187,5.225,3.658-16.431,12.015-38.467,12.015-41.951C116.457-162.743,112.915-165.82,108.038-166.227Z" transform="translate(146.541 252.065)" fill="#fbfeff"/>
    <path id="Tracé_10" data-name="Tracé 10" d="M.067,18.836S27.819-.245,79.117,0s39.261,10.435,22.41,8.7S52.518,2.3.067,18.836Z" transform="translate(146.136 125.16) rotate(-3)" fill="#fbfeff"/>
  </g>
</svg>
