<svg xmlns="http://www.w3.org/2000/svg" width="109.763" height="66.712" viewBox="0 0 109.763 66.712">
  <g id="logo_header" transform="translate(-146.136 -73.065)">
    <path id="Tracé_9" data-name="Tracé 9" d="M15.417-174.256C12.308-170.493,8-159.968,8-151.243c0,5.344,4.2,8.453,7.035,8.671,1.418-.055,4.417-5.4,6.326-9.107-1.309,6.162-3,13.524-3.654,19.9.763,2.618,4.254,6.108,7.089,6.108a303.4,303.4,0,0,1,9.162-36.374c1.145-3.545,2.236-7.035,2.236-9.761,0-4.145-4.472-7.2-7.962-7.2a4.062,4.062,0,0,0-.982.109c-.545,3.545-2.345,12.924-4.69,21.486a32.86,32.86,0,0,1-6.708,8.507A55.054,55.054,0,0,1,20.6-161.822c.982-1.963,2.236-3.926,2.236-6.108C22.833-171.2,18.252-174.256,15.417-174.256Zm37.137,35.119c5.072,0,9.489-9.053,9.489-13.252a38.87,38.87,0,0,1-6.926,4.308c1.145-2.836,3.381-8.289,3.381-11.67,0-4.526-4.526-6.926-8.562-7.2a94.591,94.591,0,0,1-2.509,11.725c-.436,1.363-.763,2.672-.982,3.708a23.7,23.7,0,0,1-5.017,6.871,59.962,59.962,0,0,1,5.562-16.8,11.55,11.55,0,0,0-8.344-4.69c-2.4,3-5.235,12.325-5.235,17.887,0,4.472,3.654,8.725,7.635,9.107,1.472,0,3.6-5.4,4.8-8.453v.654C45.846-143.063,48.464-139.136,52.554-139.136Zm13.252-37.955A158.352,158.352,0,0,1,60.243-152.5c-1.145,3.381-3.163,8.344-3.163,8.344,1.418,2.945,5.453,4.963,8.344,5.017a82.09,82.09,0,0,0,4.963-12.6,44.925,44.925,0,0,0-.327,5.235c0,3.6,2.836,7.362,6.871,7.362,5.726,0,9.707-9.98,9.707-13.361-2.563,1.854-8.78,5.29-12.052,5.453l-.382-.818c4.363-2.181,9.271-7.144,9.271-12.27a7.184,7.184,0,0,0-4.853-6.817c-.327,1.854-2.89,6.653-6.489,9.107A53.363,53.363,0,0,0,74.2-169.729C74.2-174.31,69.4-176.982,65.805-177.091ZM101.961-167c-1.418,4.744-2.945,10.416-4.145,14.615-1.418,2.836-3.6,6.217-5.4,7.635A49.109,49.109,0,0,1,94-151.515c1.745-5.617,3.436-5.726,3.436-8.453,0-3.49-4.853-6.326-7.2-6.435-1.636,1.2-4.035,6.38-5.344,12.052a29.721,29.721,0,0,0-.818,6.762,10.2,10.2,0,0,0,.6,3.981c1.254,2.018,4.908,4.09,7.307,4.472,1.091,0,2.945-4.035,4.254-7.253C94.653-140.227,91.766-130,90.894-125.8a9.183,9.183,0,0,0,7.689,4.908c3.436-15.433,11.285-36.13,11.285-39.4C109.868-163.731,106.541-166.621,101.961-167Z" transform="translate(146.031 252.065)" fill="#fbfeff"/>
    <path id="Tracé_10" data-name="Tracé 10" d="M.063,17.692S26.129-.231,74.31,0s36.876,9.8,21.049,8.172S49.327,2.163.063,17.692Z" transform="translate(146.136 121.995) rotate(-3)" fill="#fbfeff"/>
  </g>
</svg>
