<svg xmlns="http://www.w3.org/2000/svg" width="20.002" height="20" viewBox="0 0 20.002 20">
  <path id="check_wrong" d="M-5702.628,22459.549l-7.373-7.375-7.373,7.375a1.537,1.537,0,0,1-1.088.451,1.536,1.536,0,0,1-1.088-.451,1.534,1.534,0,0,1,0-2.176l7.373-7.375-7.373-7.375a1.534,1.534,0,0,1,0-2.176,1.544,1.544,0,0,1,2.176,0l7.373,7.375,7.373-7.375a1.544,1.544,0,0,1,2.176,0,1.535,1.535,0,0,1,0,2.176l-7.374,7.375,7.374,7.375a1.535,1.535,0,0,1,0,2.176,1.537,1.537,0,0,1-1.088.451A1.555,1.555,0,0,1-5702.628,22459.549Z" transform="translate(5720.002 -22440)" fill="#FBFEFF"/>
</svg>
