<svg width="27" height="26" viewBox="0 0 27 26" fill="none" xmlns="http://www.w3.org/2000/svg">
<path d="M18.1378 8.36251C18.0216 8.24535 17.8833 8.15235 17.731 8.08889C17.5787 8.02543 17.4153 7.99276 17.2503 7.99276C17.0853 7.99276 16.9219 8.02543 16.7696 8.08889C16.6172 8.15235 16.479 8.24535 16.3628 8.36251L13.5003 11.2375L10.6378 8.36251C10.4024 8.12713 10.0832 7.99489 9.75028 7.99489C9.41741 7.99489 9.09816 8.12713 8.86278 8.36251C8.6274 8.59789 8.49517 8.91713 8.49517 9.25001C8.49517 9.58288 8.6274 9.90213 8.86278 10.1375L11.7378 13L8.86278 15.8625C8.74562 15.9787 8.65263 16.117 8.58917 16.2693C8.52571 16.4216 8.49303 16.585 8.49303 16.75C8.49303 16.915 8.52571 17.0784 8.58917 17.2307C8.65263 17.3831 8.74562 17.5213 8.86278 17.6375C8.97899 17.7547 9.11724 17.8477 9.26956 17.9111C9.42189 17.9746 9.58527 18.0073 9.75028 18.0073C9.9153 18.0073 10.0787 17.9746 10.231 17.9111C10.3833 17.8477 10.5216 17.7547 10.6378 17.6375L13.5003 14.7625L16.3628 17.6375C16.479 17.7547 16.6172 17.8477 16.7696 17.9111C16.9219 17.9746 17.0853 18.0073 17.2503 18.0073C17.4153 18.0073 17.5787 17.9746 17.731 17.9111C17.8833 17.8477 18.0216 17.7547 18.1378 17.6375C18.2549 17.5213 18.3479 17.3831 18.4114 17.2307C18.4749 17.0784 18.5075 16.915 18.5075 16.75C18.5075 16.585 18.4749 16.4216 18.4114 16.2693C18.3479 16.117 18.2549 15.9787 18.1378 15.8625L15.2628 13L18.1378 10.1375C18.2549 10.0213 18.3479 9.88305 18.4114 9.73073C18.4749 9.5784 18.5075 9.41502 18.5075 9.25001C18.5075 9.08499 18.4749 8.92161 18.4114 8.76929C18.3479 8.61696 18.2549 8.47871 18.1378 8.36251ZM22.3378 4.16251C21.1847 2.96863 19.8054 2.01635 18.2803 1.36124C16.7553 0.706128 15.115 0.3613 13.4553 0.346877C11.7956 0.332454 10.1496 0.648726 8.61336 1.27724C7.07715 1.90575 5.6815 2.83391 4.50785 4.00757C3.33419 5.18123 2.40602 6.57688 1.77751 8.11308C1.149 9.64929 0.832729 11.2953 0.847152 12.955C0.861574 14.6148 1.2064 16.255 1.86151 17.7801C2.51663 19.3051 3.4689 20.6844 4.66278 21.8375C5.81587 23.0314 7.19518 23.9837 8.72023 24.6388C10.2453 25.2939 11.8855 25.6387 13.5453 25.6531C15.205 25.6676 16.851 25.3513 18.3872 24.7228C19.9234 24.0943 21.3191 23.1661 22.4927 21.9924C23.6664 20.8188 24.5945 19.4231 25.2231 17.8869C25.8516 16.3507 26.1678 14.7047 26.1534 13.045C26.139 11.3853 25.7942 9.745 25.1391 8.21995C24.4839 6.6949 23.5317 5.31559 22.3378 4.16251ZM20.5753 20.075C18.9403 21.7118 16.7885 22.731 14.4863 22.9591C12.1841 23.1872 9.87404 22.6101 7.94968 21.326C6.02533 20.0419 4.60573 18.1303 3.93275 15.9169C3.25977 13.7035 3.37504 11.3252 4.25892 9.18724C5.14281 7.04929 6.74063 5.28394 8.78015 4.19196C10.8197 3.09998 13.1747 2.74892 15.444 3.1986C17.7134 3.64828 19.7566 4.87087 21.2256 6.65808C22.6946 8.4453 23.4985 10.6866 23.5003 13C23.5047 14.3141 23.2485 15.6161 22.7464 16.8305C22.2444 18.0449 21.5064 19.1477 20.5753 20.075Z" fill="#FF3939"/>
</svg>
