<svg width="60" height="60" viewBox="0 0 60 60" fill="none" xmlns="http://www.w3.org/2000/svg">
<g clip-path="url(#clip0_505_1159)">
<path d="M30 2.5C24.561 2.5 19.2442 4.11285 14.7218 7.13459C10.1995 10.1563 6.67474 14.4512 4.59333 19.4762C2.51192 24.5012 1.96732 30.0305 3.02842 35.365C4.08951 40.6995 6.70863 45.5995 10.5546 49.4454C14.4005 53.2914 19.3006 55.9105 24.635 56.9716C29.9695 58.0327 35.4988 57.4881 40.5238 55.4067C45.5488 53.3253 49.8437 49.8005 52.8654 45.2782C55.8872 40.7558 57.5 35.439 57.5 30C57.5 22.7065 54.6027 15.7118 49.4455 10.5546C44.2882 5.39731 37.2935 2.5 30 2.5V2.5ZM30 52.5C25.5499 52.5 21.1998 51.1804 17.4997 48.7081C13.7996 46.2357 10.9157 42.7217 9.21272 38.6104C7.50975 34.499 7.06418 29.975 7.93234 25.6105C8.80051 21.2459 10.9434 17.2368 14.0901 14.0901C17.2368 10.9434 21.2459 8.8005 25.6105 7.93233C29.9751 7.06416 34.4991 7.50974 38.6104 9.21271C42.7217 10.9157 46.2357 13.7996 48.7081 17.4997C51.1804 21.1998 52.5 25.5499 52.5 30C52.5 35.9674 50.1295 41.6903 45.9099 45.9099C41.6903 50.1295 35.9674 52.5 30 52.5V52.5ZM31.475 19.175C32.7585 19.2078 34.0172 19.5361 35.1532 20.1344C36.2893 20.7328 37.272 21.5851 38.025 22.625C38.4265 23.1516 39.0206 23.4973 39.6768 23.5864C40.333 23.6754 40.9977 23.5005 41.525 23.1C41.7874 22.8991 42.0074 22.6483 42.1723 22.3618C42.3371 22.0754 42.4435 21.7592 42.4854 21.4314C42.5272 21.1036 42.5036 20.7707 42.4161 20.4521C42.3285 20.1335 42.1786 19.8353 41.975 19.575C40.7587 17.9272 39.1784 16.5826 37.3571 15.646C35.5358 14.7093 33.5228 14.2059 31.475 14.175C28.6121 14.2583 25.8445 15.2224 23.5494 16.9359C21.2544 18.6493 19.5435 21.0288 18.65 23.75H15C14.337 23.75 13.7011 24.0134 13.2322 24.4822C12.7634 24.9511 12.5 25.587 12.5 26.25C12.5 26.913 12.7634 27.5489 13.2322 28.0178C13.7011 28.4866 14.337 28.75 15 28.75H17.5C17.5 29.175 17.5 29.575 17.5 30C17.5 30.425 17.5 30.825 17.5 31.25H15C14.337 31.25 13.7011 31.5134 13.2322 31.9822C12.7634 32.4511 12.5 33.087 12.5 33.75C12.5 34.413 12.7634 35.0489 13.2322 35.5178C13.7011 35.9866 14.337 36.25 15 36.25H18.65C19.5435 38.9712 21.2544 41.3507 23.5494 43.0641C25.8445 44.7776 28.6121 45.7417 31.475 45.825C33.5228 45.7941 35.5358 45.2907 37.3571 44.354C39.1784 43.4174 40.7587 42.0728 41.975 40.425C42.244 40.175 42.4545 39.8689 42.5918 39.5283C42.729 39.1878 42.7896 38.8212 42.7692 38.4546C42.7487 38.088 42.6477 37.7304 42.4735 37.4072C42.2992 37.084 42.0559 36.8032 41.7608 36.5847C41.4657 36.3662 41.1261 36.2154 40.7662 36.1429C40.4062 36.0705 40.0347 36.0783 39.6781 36.1656C39.3215 36.253 38.9885 36.4179 38.7028 36.6485C38.4171 36.8791 38.1857 37.1698 38.025 37.5C37.272 38.5399 36.2893 39.3922 35.1532 39.9906C34.0172 40.5889 32.7585 40.9172 31.475 40.95C29.9494 40.8897 28.4678 40.422 27.1841 39.5955C25.9003 38.769 24.8613 37.6138 24.175 36.25H30C30.6631 36.25 31.2989 35.9866 31.7678 35.5178C32.2366 35.0489 32.5 34.413 32.5 33.75C32.5 33.087 32.2366 32.4511 31.7678 31.9822C31.2989 31.5134 30.6631 31.25 30 31.25H22.625C22.5586 30.8362 22.5169 30.4188 22.5 30C22.5169 29.5812 22.5586 29.1638 22.625 28.75H30C30.6631 28.75 31.2989 28.4866 31.7678 28.0178C32.2366 27.5489 32.5 26.913 32.5 26.25C32.5 25.587 32.2366 24.9511 31.7678 24.4822C31.2989 24.0134 30.6631 23.75 30 23.75H24.175C24.8779 22.4095 25.9241 21.2797 27.2067 20.4759C28.4892 19.6721 29.9622 19.2232 31.475 19.175V19.175Z" fill="#EDF2F4"/>
</g>
<defs>
<clipPath id="clip0_505_1159">
<rect width="60" height="60" fill="white"/>
</clipPath>
</defs>
</svg>
