<svg width="80" height="80" viewBox="0 0 80 80" fill="none" xmlns="http://www.w3.org/2000/svg">
<path d="M66.6663 29.8C66.6316 29.4938 66.5646 29.1921 66.4663 28.9V28.6C66.3061 28.2573 66.0923 27.9422 65.833 27.6667L45.833 7.66669C45.5575 7.40741 45.2424 7.19362 44.8997 7.03335H44.5997L43.533 6.66669H23.333C20.6808 6.66669 18.1373 7.72026 16.2619 9.59562C14.3866 11.471 13.333 14.0145 13.333 16.6667V63.3334C13.333 65.9855 14.3866 68.5291 16.2619 70.4044C18.1373 72.2798 20.6808 73.3334 23.333 73.3334H56.6663C59.3185 73.3334 61.862 72.2798 63.7374 70.4044C65.6128 68.5291 66.6663 65.9855 66.6663 63.3334V30C66.6663 30 66.6663 30 66.6663 29.8ZM46.6663 18.0334L55.2997 26.6667H46.6663V18.0334ZM59.9997 63.3334C59.9997 64.2174 59.6485 65.0653 59.0234 65.6904C58.3982 66.3155 57.5504 66.6667 56.6663 66.6667H23.333C22.449 66.6667 21.6011 66.3155 20.976 65.6904C20.3509 65.0653 19.9997 64.2174 19.9997 63.3334V16.6667C19.9997 15.7826 20.3509 14.9348 20.976 14.3097C21.6011 13.6845 22.449 13.3334 23.333 13.3334H39.9997V30C39.9997 30.8841 40.3509 31.7319 40.976 32.357C41.6011 32.9822 42.449 33.3334 43.333 33.3334H59.9997V63.3334Z" fill="#EDF2F4"/>
</svg>
