<svg width="60" height="60" viewBox="0 0 60 60" fill="none" xmlns="http://www.w3.org/2000/svg">
<g clip-path="url(#clip0_505_793)">
<path fill-rule="evenodd" clip-rule="evenodd" d="M30 52.5C42.4264 52.5 52.5 42.4264 52.5 30C52.5 17.5736 42.4264 7.5 30 7.5C17.5736 7.5 7.5 17.5736 7.5 30C7.5 42.4264 17.5736 52.5 30 52.5ZM57.5 30C57.5 45.1878 45.1878 57.5 30 57.5C14.8122 57.5 2.5 45.1878 2.5 30C2.5 14.8122 14.8122 2.5 30 2.5C45.1878 2.5 57.5 14.8122 57.5 30Z" fill="#EDF2F4"/>
<path fill-rule="evenodd" clip-rule="evenodd" d="M32.5 20C32.5 21.3807 31.3807 22.5 30 22.5L29.975 22.5C28.5943 22.5 27.475 21.3807 27.475 20C27.475 18.6193 28.5943 17.5 29.975 17.5L30 17.5C31.3807 17.5 32.5 18.6193 32.5 20Z" fill="#EDF2F4"/>
<path fill-rule="evenodd" clip-rule="evenodd" d="M30 42.5C28.6193 42.5 27.5 41.3807 27.5 40L27.5 30C27.5 28.6193 28.6193 27.5 30 27.5C31.3807 27.5 32.5 28.6193 32.5 30L32.5 40C32.5 41.3807 31.3807 42.5 30 42.5Z" fill="#EDF2F4"/>
</g>
<defs>
<clipPath id="clip0_505_793">
<rect width="60" height="60" fill="white"/>
</clipPath>
</defs>
</svg>
