<svg width="47" height="46" viewBox="0 0 47 46" fill="none" xmlns="http://www.w3.org/2000/svg">
<path d="M29.733 15.6438L19.9018 25.498L16.1205 21.7167C15.9151 21.4768 15.6623 21.282 15.3779 21.1444C15.0936 21.0069 14.784 20.9296 14.4683 20.9174C14.1527 20.9052 13.838 20.9584 13.5439 21.0736C13.2499 21.1888 12.9828 21.3636 12.7594 21.5869C12.5361 21.8102 12.3614 22.0773 12.2461 22.3714C12.1309 22.6655 12.0777 22.9802 12.0899 23.2958C12.1021 23.6114 12.1794 23.9211 12.317 24.2054C12.4545 24.4897 12.6494 24.7425 12.8893 24.948L18.2747 30.3563C18.4888 30.5687 18.7428 30.7367 19.022 30.8508C19.3012 30.9648 19.6002 31.0226 19.9018 31.0209C20.503 31.0183 21.0791 30.7797 21.5059 30.3563L32.9643 18.898C33.1791 18.6849 33.3495 18.4315 33.4659 18.1522C33.5822 17.8729 33.6421 17.5734 33.6421 17.2709C33.6421 16.9683 33.5822 16.6688 33.4659 16.3896C33.3495 16.1103 33.1791 15.8568 32.9643 15.6438C32.5349 15.217 31.9541 14.9774 31.3486 14.9774C30.7432 14.9774 30.1624 15.217 29.733 15.6438ZM23.4997 0.083374C18.9672 0.083374 14.5365 1.42741 10.7679 3.94553C6.99924 6.46364 4.06195 10.0427 2.32745 14.2302C0.592937 18.4177 0.139111 23.0255 1.02336 27.4709C1.9076 31.9163 4.0902 35.9996 7.29515 39.2046C10.5001 42.4095 14.5835 44.5921 19.0289 45.4764C23.4743 46.3606 28.082 45.9068 32.2695 44.1723C36.457 42.4378 40.0361 39.5005 42.5542 35.7319C45.0723 31.9632 46.4163 27.5325 46.4163 23C46.4163 19.9906 45.8236 17.0106 44.6719 14.2302C43.5203 11.4498 41.8322 8.92352 39.7042 6.79551C37.5762 4.6675 35.0499 2.97947 32.2695 1.8278C29.4891 0.676131 26.5091 0.083374 23.4997 0.083374V0.083374ZM23.4997 41.3334C19.8737 41.3334 16.3291 40.2581 13.3142 38.2437C10.2993 36.2292 7.9495 33.3659 6.56189 30.0159C5.17429 26.6659 4.81123 22.9797 5.51862 19.4234C6.22602 15.8671 7.9721 12.6004 10.5361 10.0364C13.1 7.47245 16.3667 5.72637 19.923 5.01898C23.4793 4.31158 27.1656 4.67464 30.5155 6.06225C33.8655 7.44986 36.7288 9.79969 38.7433 12.8146C40.7578 15.8295 41.833 19.3741 41.833 23C41.833 27.8623 39.9015 32.5255 36.4633 35.9637C33.0251 39.4018 28.362 41.3334 23.4997 41.3334V41.3334Z" fill="#87FF7E"/>
</svg>
