<svg width="60" height="60" viewBox="0 0 60 60" fill="none" xmlns="http://www.w3.org/2000/svg">
<path d="M29.9999 5C25.1511 5.00921 20.4096 6.42828 16.353 9.08435C12.2963 11.7404 9.09962 15.5189 7.15223 19.9594C5.20484 24.4 4.59082 29.311 5.38494 34.0944C6.17907 38.8777 8.34707 43.3269 11.6249 46.9V46.9C13.9659 49.4376 16.8072 51.4628 19.9697 52.848C23.1322 54.2332 26.5473 54.9483 29.9999 54.9483C33.4524 54.9483 36.8675 54.2332 40.03 52.848C43.1925 51.4628 46.0338 49.4376 48.3749 46.9V46.9C51.6527 43.3269 53.8207 38.8777 54.6148 34.0944C55.4089 29.311 54.7949 24.4 52.8475 19.9594C50.9001 15.5189 47.7034 11.7404 43.6468 9.08435C39.5902 6.42828 34.8487 5.00921 29.9999 5V5ZM29.9999 50C24.821 49.9921 19.8472 47.9757 16.1249 44.375C17.255 41.6238 19.1775 39.2707 21.648 37.6147C24.1186 35.9587 27.0256 35.0745 29.9999 35.0745C32.9741 35.0745 35.8812 35.9587 38.3517 37.6147C40.8223 39.2707 42.7448 41.6238 43.8749 44.375C40.1526 47.9757 35.1787 49.9921 29.9999 50ZM24.9999 25C24.9999 24.0111 25.2931 23.0444 25.8425 22.2221C26.3919 21.3999 27.1728 20.759 28.0865 20.3806C29.0001 20.0022 30.0054 19.9031 30.9753 20.0961C31.9452 20.289 32.8361 20.7652 33.5354 21.4645C34.2347 22.1637 34.7109 23.0546 34.9038 24.0245C35.0967 24.9945 34.9977 25.9998 34.6193 26.9134C34.2408 27.827 33.6 28.6079 32.7777 29.1573C31.9555 29.7068 30.9888 30 29.9999 30C28.6738 30 27.402 29.4732 26.4643 28.5355C25.5267 27.5979 24.9999 26.3261 24.9999 25ZM47.2749 40C45.0412 36.1794 41.6034 33.2076 37.4999 31.55C38.7728 30.1066 39.6022 28.3266 39.8886 26.4236C40.1749 24.5205 39.9061 22.5753 39.1143 20.8212C38.3225 19.0672 37.0413 17.5789 35.4246 16.5349C33.808 15.4909 31.9244 14.9356 29.9999 14.9356C28.0754 14.9356 26.1918 15.4909 24.5751 16.5349C22.9584 17.5789 21.6773 19.0672 20.8855 20.8212C20.0937 22.5753 19.8248 24.5205 20.1112 26.4236C20.3976 28.3266 21.227 30.1066 22.4999 31.55C18.3964 33.2076 14.9586 36.1794 12.7249 40C10.9447 36.9678 10.0042 33.5162 9.99988 30C9.99988 24.6957 12.107 19.6086 15.8577 15.8579C19.6085 12.1071 24.6955 10 29.9999 10C35.3042 10 40.3913 12.1071 44.142 15.8579C47.8927 19.6086 49.9999 24.6957 49.9999 30C49.9956 33.5162 49.055 36.9678 47.2749 40V40Z" fill="#EDF2F4"/>
</svg>
